SplineFontDB: 3.2
FontName: SpencerianCursive
FullName: Spencerian Cursive
FamilyName: Spencerian Cursive
Weight: Regular

StartChar: O
Encoding: 40 79 0
Width: 2463
VWidth: 0
Flags: HW
HStem: 2439 19<1718.94 1848>
VStem: 100 58<593.212 1136.74> 2344 19<1382.88 1647>
LayerCount: 6
Fore
SplineSet
1848 2458 m 3
 1140 2458 100 1869 100 866 c 3
 100 -742 2363 142 2363 1507 c 3
 2363 3101 -31.8583984375 1924.5078125 356 477 c 1
 375 483 l 1
 -5.205078125 1901.9453125 2344 3070 2344 1507 c 3
 2344 195 158 -707.004882812 158 856 c 3
 158 1902 1180 2439 1848 2439 c 0
 1848 2458 l 3
EndSplineSet
EndChar

StartChar: A
Encoding: 26 65 1
Width: 1814
VWidth: 0
Flags: HW
HStem: 0 21G<100 322.18> 2435 20G<1360.9 1714>
AnchorPoint: "Cursive 1" 1709 2450 entry 0
AnchorPoint: "Cursive 1" 540 853 exit 0
LayerCount: 6
Back
Refer: 164 -1 S 1 0 0 1 27 1639 2
Refer: 184 -1 N 1 0 0 1 -1774 0 2
Fore
SplineSet
1700 2455 m 1
 1714 2442 l 1
 1038.17773438 1691.42382812 526.3515625 917.171875 118 0 c 1
 100 8 l 1
 509.55078125 927.8671875 1021.79980469 1701.78222656 1700 2455 c 1
EndSplineSet
Layer: 2
SplineSet
101.896484375 0 m 1
 508.525390625 925.155273438 1057.19433594 1751.49804688 1702.546875 2457.59960938 c 1
 1718.92675781 2457.59960938 l 1
 1077.2109375 1747.01855469 529.9296875 921.624023438 118.287109375 0 c 1
 101.896484375 0 l 1
  Spiro
    1702.54 2457.6 v
    1718.92 2457.6 v
    807.46 1269.76 o
    118.28 0 v
    101.89 0 v
    785.84 1269.76 o
    0 0 z
  EndSpiro
1718.91992188 2457.59960938 m 5
 1262.27734375 2134.75195312 862.483398438 1748.54980469 503.240234375 1327.09960938 c 4
 198.415039062 969.491210938 -61.205078125 566.670898438 -423.580078125 267.528320312 c 4
 -602.965820312 119.444335938 -812.5703125 4.3544921875 -1060.64746094 4.3544921875 c 4
 -1452.06152344 4.3544921875 -1774.03515625 292.556640625 -1774.03515625 685.6171875 c 4
 -1774.03515625 1053.05273438 -1485.66503906 1289.71386719 -1126.58984375 1289.71386719 c 4
 -750.543945312 1289.71386719 -478.3359375 1075.07324219 -308.889648438 840.967773438 c 5
 -317.080078125 832.776367188 l 5
 -492.860351562 1074.08691406 -760.375976562 1266.55078125 -1118.59179688 1266.55078125 c 4
 -1474.47265625 1266.55078125 -1754.32714844 1039.8359375 -1754.32714844 683.5703125 c 4
 -1754.32714844 311.830078125 -1442.3828125 36.4560546875 -1097.5703125 36.4560546875 c 4
 -828.786132812 36.4560546875 -626.6015625 181.829101562 -472.73046875 316.6796875 c 4
 -118.768554688 626.887695312 170.001953125 1003.65039062 486.849609375 1351.6796875 c 4
 855.90234375 1757.05175781 1239.28027344 2149.25 1702.54003906 2457.59960938 c 5
 1718.91992188 2457.59960938 l 5
  Spiro
    1718.92 2457.6 v
    1120.91 1974.27 o
    503.24 1327.1 o
    -423.58 267.528 o
    -1021.59 5.384 o
    -1701.53 390.408 o
    -1717.91 939.272 o
    -800.41 1225.99 o
    -308.89 840.968 v
    -317.08 832.776 v
    -956.06 1250.57 o
    -1709.72 906.504 o
    -1627.8 308.488 o
    -1144.47 38.152 o
    -472.73 316.68 o
    486.85 1351.68 o
    1104.52 1990.66 o
    1702.54 2457.6 v
    0 0 z
  EndSpiro
536.619140625 864.967773438 m 1
 528.426757812 848.583984375 l 1
 379.629882812 923.078125 176.561523438 770.506835938 285.451171875 615.368164062 c 0
 334.0078125 546.184570312 440.959960938 522.309570312 539.083007812 558.967773438 c 0
 659.28125 603.83203125 752.07421875 711.03515625 815.147460938 815.81640625 c 1
 831.53125 815.81640625 l 1
 767.294921875 708.584960938 672.8984375 603.592773438 552.53125 554.967773438 c 0
 413.341796875 498.748046875 249.333984375 552.782226562 241.70703125 692.935546875 c 0
 233.915039062 836.543945312 397.947265625 921.998046875 536.619140625 864.967773438 c 1
  Spiro
    536.61 864.968 v
    528.42 848.584 v
    299.04 807.624 o
    258.08 692.936 o
    348.2 561.864 o
    700.45 668.36 o
    815.14 815.816 v
    831.52 815.816 v
    716.84 668.36 o
    356.39 545.48 o
    241.7 692.936 o
    315.43 840.392 o
    0 0 z
  EndSpiro
EndSplineSet
MultipleSubs2: "'ccmp' [Uppercase]" AMN A A_
EndChar

StartChar: N
Encoding: 39 78 2
Width: 2165
VWidth: 0
Flags: HW
HStem: 16.3838 32.7686<-1134.78 -860.028> 2437.6 20G<1443.46 1597.1>
VStem: -1694.77 25.6934<574.053 818.98>
AnchorPoint: "Cursive 1" 1586.65 2450 entry 0
LayerCount: 6
Back
Refer: 164 -1 S 1 0 0 1 -95.3471 1639 2
Fore
SplineSet
119.653320312 110 m 0
 264.802734375 508.795898438 1140.15527344 1851.70605469 1580.65332031 2458 c 1
 1595.65332031 2446 l 1
 1160.45214844 1842.03710938 279.934570312 496.485351562 137.653320312 102 c 0
 100.864257812 0 113.426757812 -8.6044921875 182.653320312 80 c 0
 881.754882812 974.809570312 1353.66308594 1309.2578125 2058.65332031 1638 c 1
 2065.65332031 1620 l 1
 1373.94140625 1297.52636719 883.182617188 945.719726562 196.653320312 67 c 0
 116.73828125 -35.2861328125 71.77734375 -21.5380859375 119.653320312 110 c 0
EndSplineSet
MultipleSubs2: "'ccmp' [Uppercase]" AMN N
EndChar

StartChar: M
Encoding: 38 77 3
Width: 2613
VWidth: 0
Flags: HW
HStem: 2438 20G<1360.72 1595.72 1967.72 2513.72>
AnchorPoint: "Cursive 1" 1048.72 279 exit 0
AnchorPoint: "Cursive 1" 1586.72 2450 entry 0
LayerCount: 6
Back
Refer: 228 -1 S 1 0 0 1 -1835.28 0 2
Refer: 164 -1 N 1 0 0 1 -95.2782 1639 2
Fore
SplineSet
119.721679688 110 m 0
 264.721679688 509 1140.72167969 1852 1580.72167969 2458 c 1
 1595.72167969 2446 l 1
 1160.72167969 1842 279.721679688 496 137.721679688 102 c 0
 100.721679688 0 113.721679688 -9 182.721679688 80 c 0
 881.721679688 975 1435.72167969 1658 2499.72167969 2458 c 1
 2513.72167969 2445 l 1
 2020.72167969 1879 1288.625 819.329101562 1056.72167969 273 c 5
NamedP: "67 degree"
 1038.72167969 280 l 1
 1279.14257812 846.395507812 1951.72167969 1811 2440.72167969 2389 c 1
 1433.72167969 1609 868.721679688 926 196.721679688 67 c 0
 116.721679688 -35 71.7216796875 -22 119.721679688 110 c 0
EndSplineSet
Layer: 2
SplineSet
119.721679688 110 m 4
 264.721679688 509 1140.72167969 1852 1580.72167969 2458 c 5
 1595.72167969 2446 l 5
 1160.72167969 1842 279.721679688 496 137.721679688 102 c 4
 100.721679688 0 113.721679688 -9 182.721679688 80 c 4
 881.721679688 975 1435.72167969 1658 2499.72167969 2458 c 5
 2510.72167969 2443 l 5
 1459.72167969 1641 883.721679688 946 196.721679688 67 c 4
 116.721679688 -35 71.7216796875 -22 119.721679688 110 c 4
1038.72167969 281 m 5
 1287.72167969 871 2007.72167969 1891 2499.72167969 2458 c 5
 2513.72167969 2445 l 5
 2020.72167969 1879 1291.72167969 818 1056.72167969 273 c 5
 1038.72167969 281 l 5
EndSplineSet
MultipleSubs2: "'ccmp' [Uppercase]" AMN M M_
EndChar

StartChar: T
Encoding: 45 84 4
Width: 4316
VWidth: 0
Flags: HW
HStem: 16.3838 32.7686<1020.63 1285.47> 2437.6 20G<4423.96 4498.6>
VStem: 452.758 26.1143<569.25 818.978> 1975.47 8.19141<1851.39 1882.3> 2214.79 18.0713<1871.39 2002.28> 2745.51 16.3838<2084.1 2231.41>
LayerCount: 6
Fore
SplineSet
3216.609375 2089 m 5
 2394.10351562 1614.12597656 1949.609375 689 1578.609375 327 c 4
 1349.67089844 103.615234375 1060.91992188 0 792.609375 0 c 4
 -136.8125 0 -166.392578125 1314 920.609375 1314 c 4
 1316.85742188 1314 1541.03515625 1081.05566406 1702.609375 933 c 5
 1689.61035156 919 l 5
 1521.58496094 1072.96679688 1276.64453125 1295 920.609375 1295 c 4
 -140.39453125 1295 -96.4267578125 26 792.609375 26 c 4
 1041.26464844 26 1322.93359375 140.8203125 1557.609375 375.051757812 c 4
 2112.609375 929 2397.31738281 1636.59960938 3208.609375 2105 c 5
 3216.609375 2089 l 5
4207.609375 2458 m 1
 4216.609375 2441 l 1
 3482.08203125 2016.91992188 3248.609375 2439 2666.609375 2439 c 0
 2574.22558594 2439 2478.50976562 2425.43457031 2388.66796875 2398.70507812 c 1
 2458.07617188 2346.21972656 2503.609375 2256.33105469 2503.609375 2126 c 0
 2503.609375 1754.99902344 1949.609375 1525 1949.609375 1944 c 0
 1949.609375 2179.79980469 2123.6171875 2332.04003906 2340.97265625 2405.69628906 c 1
 2127.67382812 2534.42871094 1717.609375 2294.22753906 1717.609375 1851 c 1
 1698.609375 1851 l 1
 1698.609375 2334.77050781 2136.40039062 2552.60351562 2366.28027344 2413.86035156 c 1
 2462.70507812 2443.42578125 2566.45703125 2458 2666.609375 2458 c 0
 3241.609375 2458 3489.03417969 2043.12988281 4207.609375 2458 c 1
2362.87792969 2390.61523438 m 1
 2145.38574219 2318.80664062 1968.609375 2167.95410156 1968.609375 1944 c 0
 1968.609375 1554.90625 2466.609375 1782.94726562 2466.609375 2126 c 0
 2466.609375 2255.13964844 2425.64550781 2341.59863281 2362.87792969 2390.61523438 c 1
EndSplineSet
Layer: 2
SplineSet
4207.609375 2458 m 5
 4216.609375 2441 l 5
 3482.08203125 2016.91992188 3248.609375 2439 2666.609375 2439 c 7
 2338.609375 2439 1968.609375 2268.00195312 1968.609375 1944 c 7
 1968.609375 1554.90625 2466.609375 1782.94726562 2466.609375 2126 c 7
 2466.609375 2678.20410156 1717.609375 2450.02050781 1717.609375 1851 c 4
 1698.609375 1851 l 7
 1698.609375 2507.00097656 2503.609375 2674 2503.609375 2126 c 7
 2503.609375 1754.99902344 1949.609375 1525 1949.609375 1944 c 7
 1949.609375 2292 2328.609375 2458 2666.609375 2458 c 7
 3241.609375 2458 3489.03417969 2043.12988281 4207.609375 2458 c 5
  Spiro
    4207.61 2458 v
    4216.61 2441 v
    3618.13 2252 o
    3163.46 2345.42 o
    2666.61 2439 o
    2340.18 2382.78 o
    2076.48 2216.11 o
    1968.61 1944 o
    2097.5 1742.05 o
    2337.72 1840.09 o
    2466.61 2126 o
    2272.76 2433.17 o
    1911.46 2310.93 o
    1717.61 1851 o
    1698.61 1851 o
    1906.96 2335.32 o
    2295.26 2443.94 o
    2503.61 2126 o
    2360.23 1821.04 o
    2092.99 1722.56 o
    1949.61 1944 o
    2060.18 2231.7 o
    2330.82 2402.19 o
    2666.61 2458 o
    3161.56 2365.94 o
    3617 2273.61 o
    0 0 z
  EndSpiro
3216.609375 2089 m 5
 2394.10351562 1614.12597656 1949.609375 689 1578.609375 327 c 4
 1349.67089844 103.615234375 1060.91992188 0 792.609375 0 c 7
 -136.8125 0 -166.392578125 1314 920.609375 1314 c 7
 1316.85742188 1314 1541.03515625 1081.05566406 1702.609375 933 c 5
 1689.61035156 919 l 5
 1521.58496094 1072.96679688 1276.64453125 1295 920.609375 1295 c 7
 -140.39453125 1295 -96.4267578125 26 792.609375 26 c 7
 1041.26464844 26 1322.93359375 140.8203125 1557.609375 375.051757812 c 4
 2112.609375 929 2397.31738281 1636.59960938 3208.609375 2105 c 5
 3216.609375 2089 l 5
EndSplineSet
EndChar

StartChar: F
Encoding: 31 70 5
Width: 4316
VWidth: 0
Flags: HW
HStem: 16.3838 32.7686<746.94 1011.71> 2437.6 20G<4157.97 4232.61>
VStem: 1709.47 8.19141<1851.39 1882.3> 1948.8 18.0713<1871.39 2002.28> 2315.68 32.7676<942.08 972.811> 2479.52 16.3838<2084.1 2231.41>
LayerCount: 6
Fore
SplineSet
4207.609375 2458 m 1
 4216.609375 2441 l 1
 3482.08203125 2016.91992188 3248.609375 2439 2666.609375 2439 c 0
 2574.22558594 2439 2478.50976562 2425.43457031 2388.66796875 2398.70507812 c 1
 2458.07617188 2346.21972656 2503.609375 2256.33105469 2503.609375 2126 c 0
 2503.609375 1754.99902344 1949.609375 1525 1949.609375 1944 c 0
 1949.609375 2179.79980469 2123.6171875 2332.04003906 2340.97265625 2405.69628906 c 1
 2127.67382812 2534.42871094 1717.609375 2294.22753906 1717.609375 1851 c 1
 1698.609375 1851 l 1
 1698.609375 2334.77050781 2136.40039062 2552.60351562 2366.28027344 2413.86035156 c 1
 2462.70507812 2443.42578125 2566.45703125 2458 2666.609375 2458 c 0
 3241.609375 2458 3489.03417969 2043.12988281 4207.609375 2458 c 1
2418.609375 1090 m 2
 2413.609375 1090 2349.609375 969 2352.609375 942 c 1
 2315.609375 942 l 1
 2390.22460938 1071.33203125 l 1
 2285.08984375 1015.74609375 2186.17382812 989.693359375 2091.13867188 983.893554688 c 1
 1894.15722656 716.984375 1730.24511719 474.95703125 1578.609375 327 c 0
 1349.67089844 103.615234375 1060.91992188 0 792.609375 0 c 0
 -136.8125 0 -166.392578125 1314 920.609375 1314 c 0
 1379.33105469 1314 1692.25976562 984.745117188 2077.88574219 999.883789062 c 1
 2378.22949219 1397.43359375 2682.84082031 1801.44726562 3208.609375 2105 c 1
 3216.609375 2089 l 1
 2737.63183594 1812.46191406 2386.84570312 1383.23535156 2104.11328125 1001.44335938 c 1
 2198.94433594 1009.0078125 2298.38769531 1037.94042969 2405.609375 1098 c 1
 2418.609375 1090 l 2
2064.9765625 982.798828125 m 1
 1675.90527344 973.939453125 1349.15722656 1295 920.609375 1295 c 0
 -140.39453125 1295 -96.4267578125 26 792.609375 26 c 0
 1041.26464844 26 1322.93359375 140.8203125 1557.609375 375.051757812 c 0
 1747.78027344 564.862304688 1906.21679688 772.712890625 2064.9765625 982.798828125 c 1
2362.87792969 2390.61523438 m 1
 2145.38574219 2318.80664062 1968.609375 2167.95410156 1968.609375 1944 c 0
 1968.609375 1554.90625 2466.609375 1782.94726562 2466.609375 2126 c 0
 2466.609375 2255.13964844 2425.64550781 2341.59863281 2362.87792969 2390.61523438 c 1
EndSplineSet
Layer: 2
SplineSet
2418.609375 1090 m 29
 2413.609375 1090 2349.609375 969 2352.609375 942 c 13
 2315.609375 942 l 5
 2405.609375 1098 l 5
 2418.609375 1090 l 29
  Spiro
    2418.61 1090 v
    2398.64 1057.69 o
    2367.25 992.305 o
    2352.61 942 v
    2315.61 942 v
    2405.61 1098 v
    0 0 z
  EndSpiro
4207.609375 2458 m 5
 4216.609375 2441 l 5
 3482.08203125 2016.91992188 3248.609375 2439 2666.609375 2439 c 7
 2338.609375 2439 1968.609375 2268.00195312 1968.609375 1944 c 7
 1968.609375 1554.90625 2466.609375 1782.94726562 2466.609375 2126 c 7
 2466.609375 2678.20410156 1717.609375 2450.02050781 1717.609375 1851 c 4
 1698.609375 1851 l 7
 1698.609375 2507.00097656 2503.609375 2674 2503.609375 2126 c 7
 2503.609375 1754.99902344 1949.609375 1525 1949.609375 1944 c 7
 1949.609375 2292 2328.609375 2458 2666.609375 2458 c 7
 3241.609375 2458 3489.03417969 2043.12988281 4207.609375 2458 c 5
3216.609375 2089 m 5
 2394.10351562 1614.12597656 1949.609375 689 1578.609375 327 c 4
 1349.67089844 103.615234375 1060.91992188 0 792.609375 0 c 7
 -136.8125 0 -166.392578125 1314 920.609375 1314 c 7
 1501.5078125 1314 1848.609375 786 2405.609375 1098 c 5
 2411.609375 1083 l 5
 1851.609375 768 1469.65722656 1295 920.609375 1295 c 7
 -140.39453125 1295 -96.4267578125 26 792.609375 26 c 7
 1041.26464844 26 1322.93359375 140.8203125 1557.609375 375.051757812 c 4
 2112.609375 929 2397.31738281 1636.59960938 3208.609375 2105 c 5
 3216.609375 2089 l 5
EndSplineSet
EndChar

StartChar: K
Encoding: 36 75 6
Width: 3782
VWidth: 0
Flags: HW
HStem: 0 8.19238<2112.85 2217.5> 1129.84 6.13574<2002.04 2074.48> 1302.53 8.19141<1947.64 1990.43> 2449.41 8.19141<3337.16 3467>
VStem: -103.018 25.9688<569.36 818.968>
AnchorPoint: "Cursive 1" 2170 277 exit 0
LayerCount: 6
Back
Refer: 218 -1 S 1 0 0 1 229 0 2
Refer: 143 -1 N 1 0 0 1 1098 0 2
Fore
SplineSet
3682 2439 m 0
 3682 2458 l 3
 2746 2458 2916.03320312 1215 2386 1215 c 3
 2128 1215 2110 1358 2193 1358 c 3
 2548 1358 2232 579 2160 277 c 1
 2179 273 l 1
 2252.8125 569.046875 2578 1377 2193 1377 c 3
 2090 1377 2091 1196 2386 1196 c 3
 2936.9296875 1196 2761 2439 3682 2439 c 0
2755 2114 m 1
 2038 1261 1138 525 109 0 c 1
 100 17 l 1
 1122 538 2029 1278 2740 2126 c 1
 2755 2114 l 1
2755 2114 m 1
 2289 1333 l 2
 2025 888 1574 -3 788 -3 c 3
 344 -3 115 384 115 674 c 3
 115 1428 1187 1571 1603 851 c 1
 1586 841 l 1
 1180 1545 135 1408 135 673 c 3
 135 402 348 32 788 32 c 3
 1420 32 1946 823 2271 1352 c 2
 2738 2123 l 1
 2755 2114 l 1
EndSplineSet
Layer: 2
SplineSet
2186 1281 m 3
 2080.92382812 1281 2053 1159 2254 1159 c 3
 2982 1159 2763 2439 3682 2439 c 0
 3682 2458 l 3
 2746 2458 2958 1178 2254 1178 c 3
 2095 1178 2100.99414062 1260 2185 1260 c 3
 2379.0234375 1260 2464.13183594 863.655273438 1905 148 c 9
 1920 136 l 17
 2487.4921875 862.356445312 2399.03710938 1281 2186 1281 c 3
2755 2114 m 1
 2038 1261 1138 525 109 0 c 1
 100 17 l 1
 1122 538 2029 1278 2740 2126 c 1
 2755 2114 l 1
2755 2114 m 1
 2289 1333 l 2
 2025 888 1574 -3 788 -3 c 3
 344 -3 115 384 115 674 c 3
 115 1428 1187 1571 1603 851 c 1
 1586 841 l 1
 1180 1545 135 1408 135 673 c 3
 135 402 348 32 788 32 c 3
 1420 32 1946 823 2271 1352 c 2
 2738 2123 l 1
 2755 2114 l 1
EndSplineSet
MultipleSubs2: "'ccmp' [Uppercase]" K K_
EndChar

StartChar: H
Encoding: 33 72 7
Width: 4255
VWidth: 0
Flags: HW
HStem: 0 21G<2197.53 2225> 782.816 20G<2926.9 2959.38> 853.656 14.7197<2513.62 2629.17> 2437.6 20G<3987.3 4171.8>
VStem: 134.839 25.9688<569.36 818.968>
AnchorPoint: "Cursive 1" 2672 853 exit 0
LayerCount: 6
Back
Refer: 184 -1 S 1 0 0 1 358 0 2
Fore
SplineSet
4155 2440 m 5
 3487 2143 3093 1590 2747 965 c 6
 2214 0 l 5
 2197 9 l 5
 2730 975 l 6
 3073 1599 3479 2161 4147 2458 c 5
 4155 2440 l 5
357 154 m 5
 197 293 115 501 115 674 c 4
 115 1391 1086 1556 1538 950 c 5
 1981 1306 2385 1703 2740 2126 c 5
 2755 2114 l 5
 2289 1333 l 6
 2025 888 1574 -3 788 -3 c 4
 618 -3 479 54 373 141 c 5
 286 93 198 45 109 0 c 5
 100 17 l 5
 186 61 272 107 357 154 c 5
1522 938 m 5
 1080 1531 135 1372 135 673 c 4
 135 506 216 300 382 168 c 5
 784 393 1165 653 1522 938 c 5
1549 934 m 5
 1568 908 1586 880 1603 851 c 5
 1586 841 l 5
 1570 869 1552 896 1534 922 c 5
 1179 638 800 380 399 155 c 5
 499 80 629 32 788 32 c 4
 1420 32 1946 823 2271 1352 c 5
 2677 2023 l 5
 2338 1631 1960 1265 1549 934 c 5
EndSplineSet
Layer: 2
SplineSet
4155 2440 m 1
 3487 2143 3093 1590 2747 965 c 1
 2214 0 l 1
 2197 9 l 1
 2730 975 l 1
 3073 1599 3479 2161 4147 2458 c 1
 4155 2440 l 1
  Spiro
    4155 2440 v
    3570.47 2064.93 o
    3116.97 1558.63 o
    2747 965 v
    2214 0 v
    2197 9 v
    2730 975 v
    3100.96 1570.25 o
    3559.48 2080.64 o
    4147 2458 v
    0 0 z
  EndSpiro
2755 2114 m 5
 2038 1261 1138 525 109 0 c 5
 100 17 l 5
 1121.76171875 537.61328125 2028.63964844 1278.234375 2740 2126 c 5
 2755 2114 l 5
2755 2114 m 5
 2289 1333 l 6
 2025 888 1573.59277344 -3 788 -3 c 7
 343.990234375 -3 115 383.916015625 115 674 c 7
 115 1428 1187.29492188 1571.02246094 1603 851 c 5
 1586 841 l 5
 1179.5 1545.07910156 135 1408 135 673 c 7
 135 402.44140625 347.862304688 32 788 32 c 7
 1420.01269531 32 1945.61035156 823.2421875 2271 1352 c 6
 2738 2123 l 5
 2755 2114 l 5
EndSplineSet
MultipleSubs2: "'ccmp' [Uppercase]" H A_
EndChar

StartChar: P
Encoding: 41 80 8
Width: 3078
VWidth: 0
Flags: HW
HStem: 16.3838 32.7686<668.659 952.595> 1261.57 8.19141<2177.31 2199.81>
LayerCount: 6
Fore
SplineSet
2073.32519531 1196 m 0
 2628.32519531 1196 2959.32519531 1675 2878.32519531 2043 c 1
 2910.32519531 2060 2944.32519531 2077 2978.32519531 2094 c 1
 2967.32519531 2110 l 1
 2935.32519531 2094 2903.32519531 2078 2873.32519531 2062 c 1
 2815.32519531 2282 2606.32519531 2458 2204.32519531 2458 c 0
 674.325195312 2458 -509.674804688 0 440.325195312 0 c 0
 741.325195312 0 1151.32519531 215 1548.32519531 694 c 0
 1678.32519531 851 1788.32519531 1027 1921.32519531 1208 c 1
 1964.32519531 1201 2014.32519531 1196 2073.32519531 1196 c 0
2854.32519531 2052 m 1
 2377.32519531 1797 2098.32519531 1509 1883.32519531 1236 c 1
 1765.32519531 1265 1714.32519531 1315 1699.32519531 1329 c 1
 1686.32519531 1315 l 1
 1699.32519531 1304 1747.32519531 1251 1870.32519531 1219 c 1
 1734.32519531 1045 1623.32519531 878 1500.32519531 730 c 0
 1108.32519531 259 726.325195312 19 440.325195312 19 c 0
 -473.674804688 19 697.325195312 2439 2204.32519531 2439 c 0
 2595.32519531 2439 2799.32519531 2267 2854.32519531 2052 c 1
2859.32519531 2033 m 1
 2935.32519531 1677 2615.32519531 1215 2073.32519531 1215 c 0
 2020.32519531 1215 1974.32519531 1219 1934.32519531 1225 c 1
 2137.32519531 1499 2397.32519531 1785 2859.32519531 2033 c 1
EndSplineSet
Layer: 2
SplineSet
2073.32519531 1196 m 7
 2974.31152344 1196 3282.69140625 2458 2204.32519531 2458 c 7
 674.185546875 2458 -509.888671875 0 440.325195312 0 c 7
 741.325195312 0 1151.32519531 215 1548.32519531 694 c 4
 1894.32519531 1112 2100.32519531 1667 2978.32519531 2094 c 5
 2967.32519531 2110 l 5
 2084.32519531 1676 1833.32519531 1131 1500.32519531 730 c 4
 1108.32519531 259 726.325195312 19 440.325195312 19 c 7
 -473.3671875 19 697.138671875 2439 2204.32519531 2439 c 7
 3248.32519531 2439 2956.32519531 1215 2073.32519531 1215 c 7
 1815.09082031 1215 1720.32519531 1309 1699.32519531 1329 c 13
 1686.32519531 1315 l 21
 1705.5703125 1300 1793.30859375 1196 2073.32519531 1196 c 7
EndSplineSet
EndChar

StartChar: B
Encoding: 27 66 9
Width: 3078
VWidth: 0
Flags: HW
HStem: -122.332 10.9229<1092.27 1236.32> 16.3838 32.7686<292.394 576.389> 1219.7 14.2236<1887.03 2069.01> 1327.1 8.19238<1267.13 1276.76>
VStem: 629.594 32.7676<293.858 631.687> 1782.98 13.959<1287.15 1340.11>
LayerCount: 6
Fore
SplineSet
2978.43359375 2094 m 5
 2100.43359375 1667 1894.43359375 1112 1548.43359375 694 c 4
 1151.43359375 215 741.43359375 0 440.43359375 0 c 7
 -509.779296875 0 674.294921875 2458 2204.43359375 2458 c 7
 3282.80078125 2458 2974.42089844 1196 2073.43359375 1196 c 7
 1778.43359375 1196 1777.43359375 1377 1880.43359375 1377 c 7
 1929.19921875 1377 2113.79785156 1323.57128906 2113.79785156 914 c 7
 2113.79785156 359.995117188 1618.45410156 -271 985.43359375 -271 c 7
 88.43359375 -271 348.43359375 924 1231.43359375 1176 c 5
 1236.43359375 1157 l 5
 337.43359375 894 150.43359375 -252 985.43359375 -252 c 7
 1612.43359375 -252 2093.99804688 375.873046875 2093.99804688 914 c 7
 2093.99804688 1277.18457031 1947.14257812 1358 1880.43359375 1358 c 7
 1797.21777344 1358 1815.19921875 1215 2073.43359375 1215 c 7
 2956.43457031 1215 3248.43457031 2439 2204.43359375 2439 c 7
 697.248046875 2439 -473.2578125 19 440.43359375 19 c 7
 726.43359375 19 1108.43359375 259 1500.43359375 730 c 4
 1833.43359375 1131 2084.43359375 1676 2967.43359375 2110 c 5
 2978.43359375 2094 l 5
EndSplineSet
Layer: 2
SplineSet
2854.5 2052.09570312 m 1
 2799.32128906 2267.07617188 2595.70605469 2439 2204.43359375 2439 c 0
 697.248046875 2439 -473.2578125 19 440.43359375 19 c 0
 448.483398438 19 456.608398438 19.1904296875 464.807617188 19.5703125 c 1
 314.9921875 390.130859375 627.489257812 1003.63964844 1231.43359375 1176 c 1
 1236.43359375 1157 l 1
 618.223632812 976.14453125 336.706054688 377.733398438 492.6875 21.56640625 c 1
 772.099609375 48.4921875 1131.84667969 287.130859375 1500.43359375 730 c 0
 1626.765625 882.12890625 1741.29492188 1054.98242188 1883.00683594 1234.63769531 c 1
 1787.07324219 1287.79882812 1808.12695312 1377 1880.43359375 1377 c 0
 1897.96777344 1377 1933.06152344 1370.09277344 1970.82226562 1342.20703125 c 1
 2174.39257812 1582.49316406 2438.95117188 1829.83691406 2854.5 2052.09570312 c 1
1894.81347656 1249.54003906 m 1
 1915.63769531 1275.70996094 1937.05859375 1302.01660156 1959.19726562 1328.41601562 c 1
 1929.74121094 1350.16601562 1901.203125 1358 1880.43359375 1358 c 0
 1823.83886719 1358 1814.05078125 1291.85742188 1894.81347656 1249.54003906 c 1
2043.31738281 1215.68066406 m 1
 2027.59277344 1251.40332031 2009.42382812 1278.87011719 1990.62890625 1299.69726562 c 1
 1973.00292969 1277.046875 1955.84375 1254.44238281 1939.06933594 1231.91015625 c 1
 1967.19726562 1223.52246094 2001.70214844 1217.61035156 2043.31738281 1215.68066406 c 1
2064.56152344 1215.05664062 m 0
 2067.48730469 1215.01953125 2070.44433594 1215 2073.43359375 1215 c 0
 2615.74316406 1215 2935.12695312 1676.69335938 2858.99511719 2032.96679688 c 1
 2446.54394531 1811.51953125 2195.78027344 1560.59765625 2002.08691406 1314.34277344 c 1
 2024.38867188 1290.69238281 2046.20898438 1258.53710938 2064.56152344 1215.05664062 c 0
2072.1015625 1196.00097656 m 1
 2096.95605469 1128.93261719 2113.79785156 1037.71289062 2113.79785156 914 c 0
 2113.79785156 359.995117188 1618.45410156 -271 985.43359375 -271 c 0
 712.424804688 -271 546.592773438 -160.302734375 472.8828125 0.814453125 c 1
 461.932617188 0.2705078125 451.115234375 0 440.43359375 0 c 0
 -509.779296875 0 674.294921875 2458 2204.43359375 2458 c 0
 2606.68652344 2458 2815.98144531 2282.39941406 2873.53808594 2062.20410156 c 1
 2904.02246094 2078.27539062 2935.31054688 2094.2109375 2967.43359375 2110 c 1
 2978.43359375 2094 l 1
 2943.9765625 2077.2421875 2910.55371094 2060.28710938 2878.11621094 2043.15039062 c 1
 2958.88183594 1675.30957031 2628.69433594 1196 2073.43359375 1196 c 0
 2072.98925781 1196 2072.54492188 1196.00097656 2072.1015625 1196.00097656 c 1
2051.26367188 1196.35253906 m 1
 2000.90234375 1197.98339844 1959.89355469 1205.16796875 1927.13085938 1215.80078125 c 1
 1791.36914062 1031.76953125 1680.02636719 852.9765625 1548.43359375 694 c 0
 1177.63183594 246.609375 795.489257812 29.525390625 501.412109375 2.8232421875 c 1
 576.284179688 -148.775390625 734.83203125 -252 985.43359375 -252 c 0
 1612.43359375 -252 2093.99804688 375.873046875 2093.99804688 914 c 0
 2093.99804688 1038.67480469 2076.69238281 1130.07421875 2051.26367188 1196.35253906 c 1
EndSplineSet
EndChar

StartChar: R
Encoding: 43 82 10
Width: 3078
VWidth: 0
Flags: HW
HStem: 0 19<360.693 527.755> 1196 19<1972.77 2194.78> 1358 19<1849.92 1934.56> 2090 20G<2525.82 2978.32> 2439 19<2063.01 2344.63>
VStem: 1847.32 19<273 302.214>
AnchorPoint: "Cursive 1" 1857.33 276 exit 0
LayerCount: 6
Back
Refer: 218 -1 S 1 0 0 1 -83.6753 0 2
Fore
SplineSet
1847.32519531 277 m 5
 1919.32519531 579 2235.32519531 1358 1880.32519531 1358 c 7
 1797.32519531 1358 1815.32519531 1215 2073.32519531 1215 c 7
 2956.32519531 1215 3248.32519531 2439 2204.32519531 2439 c 3
 697.325195312 2439 -473.674804688 19 440.325195312 19 c 3
 726.325195312 19 1108.32519531 259 1500.32519531 730 c 0
 1833.32519531 1131 2084.32519531 1676 2967.32519531 2110 c 1
 2978.32519531 2094 l 1
 2100.32519531 1667 1894.32519531 1112 1548.32519531 694 c 0
 1151.32519531 215 741.325195312 0 440.325195312 0 c 3
 -509.674804688 0 674.325195312 2458 2204.32519531 2458 c 3
 3282.32519531 2458 2974.32519531 1196 2073.32519531 1196 c 7
 1778.32519531 1196 1777.32519531 1377 1880.32519531 1377 c 7
 2265.32519531 1377 1940.13769531 569.046875 1866.32519531 273 c 5
 1847.32519531 277 l 5
EndSplineSet
MultipleSubs2: "'ccmp' [Uppercase]" R K_
EndChar

StartChar: G
Encoding: 32 71 11
Width: 2710
VWidth: 0
Flags: HW
HStem: 16.3838 32.7686<829.012 1093.76> 622.592 16.3838<1316.9 1488.51>
VStem: 261.199 26.1348<569.264 818.977> 2656.13 8.21582<2321.86 2380.92>
LayerCount: 6
Fore
SplineSet
1251.47460938 779.072265625 m 1
 974.05078125 546.428710938 680.802734375 333.729492188 375.502929688 150.321289062 c 1
 482.391601562 73.5830078125 622.853515625 26 795 26 c 0
 1044 26 1325 141 1560 375 c 0
 1809.31445312 623.404296875 2003.15722656 902.442382812 2215.35644531 1177.4609375 c 1
 1713.78027344 745.291992188 1390.30078125 663.833007812 1251.47460938 779.072265625 c 1
1268.12304688 793.07421875 m 1
 1409.16308594 681.359375 1747.046875 780.02734375 2279 1259 c 1
 2294 1247 l 1
 2003 883 1781 523 1581 327 c 0
 1352 104 1063 0 795 0 c 0
 610.5234375 0 461.49609375 51.8134765625 349.625976562 134.864257812 c 1
 270.52734375 87.8798828125 190.629882812 42.8720703125 110 0 c 1
 100 20 l 1
 177.807617188 61.37109375 254.763671875 104.53515625 330.840820312 149.379882812 c 1
 -97.37890625 493.735351562 64.1669921875 1314 923 1314 c 0
 1041.30664062 1314 1144.16699219 1293.09863281 1234.59863281 1259.87011719 c 1
 1348.90527344 1551.0703125 1624.32226562 1917.59863281 2066 2238.49609375 c 0
 2683.34863281 2687.02539062 2748.828125 2383.66210938 2399 1952 c 0
 2147.63378906 1641.83203125 1868.14355469 1339.03417969 1566.140625 1057.50292969 c 1
 1617.61328125 1013.87402344 1663.26660156 970.576171875 1705 933 c 1
 1692 919 l 1
 1648.92382812 957.78515625 1602.92285156 1001.16503906 1551.93554688 1044.29199219 c 1
 1459.375 958.411132812 1364.71679688 874.540039062 1268.12304688 793.07421875 c 1
1253.66210938 805.943359375 m 1
 1350.30273438 887.088867188 1444.94042969 970.672851562 1537.49902344 1056.37988281 c 1
 1455.61132812 1124.234375 1360.85058594 1190.3359375 1245.140625 1235.69335938 c 1
 1172.05859375 1041.03222656 1175.11816406 884.342773438 1253.66210938 805.943359375 c 1
1237.26171875 792.211914062 m 1
 1155.87402344 875.904296875 1152.140625 1039.89355469 1227.84667969 1242.25878906 c 1
 1139.40332031 1274.74023438 1038.92773438 1295 923 1295 c 0
 79.8857421875 1295 -65.4716796875 493.68359375 356.466796875 164.569335938 c 1
 665.280273438 348.614257812 959.485351562 560.311523438 1237.26171875 792.211914062 c 1
1551.73242188 1069.59277344 m 1
 1852.08203125 1349.06152344 2130.39160156 1650.81933594 2384 1964 c 0
 2720.05664062 2378.99609375 2673.24511719 2655.55566406 2077 2222.35839844 c 0
 1639.28027344 1904.33691406 1364.9296875 1539.87988281 1251.91796875 1253.29882812 c 1
 1371.59667969 1206.4453125 1469.07519531 1138.22460938 1551.73242188 1069.59277344 c 1
EndSplineSet
Layer: 2
SplineSet
2279 1259 m 21
 2041 958 1834 648 1560 375 c 4
 1325 141 1044 26 795 26 c 7
 -94 26 -138 1295 923 1295 c 7
 1308.046875 1295 1522.63769531 1071.49511719 1692 919 c 5
 1705 933 l 5
 1541.93164062 1079.82714844 1319 1314 923 1314 c 7
 -164 1314 -134 0 795 0 c 7
 1063 0 1352 104 1581 327 c 4
 1781 523 2003 883 2294 1247 c 5
 2279 1259 l 21
100 20 m 5
 984.713867188 490.41015625 1759.29296875 1192.55078125 2384 1964 c 4
 2720.05664062 2378.99609375 2673.24511719 2655.55566406 2077 2222.35839844 c 4
 826.259765625 1313.64257812 909.383789062 25.7919921875 2279 1259 c 5
 2292 1245 l 5
 902.490234375 -6.1201171875 785.301757812 1308.01464844 2066 2238.49609375 c 4
 2683.34863281 2687.02539062 2748.828125 2383.66210938 2399 1952 c 4
 1779.02636719 1186.99804688 987.9765625 466.828125 110 0 c 5
 100 20 l 5
  Spiro
    100 20 v
    945.723 561.031 o
    1711.53 1222.38 o
    2384 1964 o
    2586.2 2311.43 o
    2496.02 2440.11 o
    2077 2222.36 o
    1269.49 1295.52 o
    1340.48 758.606 o
    2279 1259 v
    2292 1245 v
    1331.78 739.615 o
    1246.98 1290.21 o
    2066 2238.5 o
    2504.19 2459.47 o
    2605.28 2317.52 o
    2399 1952 o
    1725.84 1210.38 o
    955.074 542.941 o
    110 0 v
    0 0 z
  EndSpiro
EndSplineSet
EndChar

StartChar: S
Encoding: 44 83 12
Width: 3339
VWidth: 0
Flags: HW
HStem: 0 21G<369.576 590.857>
VStem: 608.721 25.6328<574.093 818.976>
LayerCount: 6
Fore
SplineSet
2129 1070 m 1
 1690 720 1133 355 550 136 c 1
 654 68 787 26 948 26 c 0
 1197 26 1479 140 1713 375 c 0
 1909 572 2013 803 2129 1070 c 1
2145 1108 m 1
 2268 1391 2412 1714 2699 2081 c 0
 3192 2712 3530 2517 2882 1772 c 0
 2732 1599 2482 1356 2168 1102 c 1
 2032 785 1928 516 1734 327 c 0
 1505 104 1216 0 948 0 c 0
 772 0 628 47 518 124 c 1
 381 74 243 32 105 0 c 1
 100 19 l 1
 233 50 367 90 499 138 c 1
 52 475 207 1314 1076 1314 c 0
 1472 1314 1696 1081 1858 933 c 1
 1845 919 l 1
 1677 1073 1432 1295 1076 1295 c 0
 220 1295 83 468 530 149 c 1
 1130 372 1701 750 2145 1108 c 1
2185 1140 m 1
 2485 1385 2723 1620 2868 1786 c 0
 3221 2192 3248 2389 3201 2430 c 0
 3153 2471 2965 2391 2714 2069 c 0
 2456 1739 2307 1421 2185 1140 c 1
EndSplineSet
Layer: 2
SplineSet
2714 2069 m 4
 2149.88769531 1346.96972656 2105.36035156 688.629882812 1734 327 c 4
 1505 104 1216 0 948 0 c 7
 19 0 -11 1314 1076 1314 c 7
 1472 1314 1696 1081 1858 933 c 5
 1845 919 l 5
 1677 1073 1432 1295 1076 1295 c 7
 15 1295 59 26 948 26 c 7
 1197 26 1478.92382812 140.076171875 1713 375 c 4
 2124.24902344 787.737304688 2125.26464844 1346.65234375 2699 2081 c 4
 3192.17675781 2712.23730469 3529.65527344 2517.04199219 2882 1772 c 4
 2465.96679688 1293.40820312 1289.58105469 273.482421875 105 0 c 5
 100 19 l 5
 1286.69921875 292.970703125 2456.83691406 1313.01074219 2868 1786 c 4
 3220.89550781 2191.95996094 3248 2389 3200.54101562 2430 c 4
 3152.72363281 2471.30957031 2965.35644531 2390.72167969 2714 2069 c 4
EndSplineSet
EndChar

StartChar: L
Encoding: 37 76 13
Width: 2861
VWidth: 0
Flags: HW
HStem: 0 8.19238<2058.89 2131.47>
VStem: 1593.46 49.1523<366.068 700.37> 2814.63 11.5137<508.947 691.324>
AnchorPoint: "Cursive 1" 257 114 exit 0
LayerCount: 6
Back
Refer: 229 -1 S 1 0 0 1 -389 0 2
Fore
SplineSet
257 124 m 3
 118.985351562 124 72 0 257 0 c 3
 508 0 908.36328125 79.865234375 1242.75 416 c 0
 1960 1137 2313.76269531 2435 2670 2435 c 3
 2906.03417969 2435 2675.66699219 1386.50683594 100 17 c 9
 109 0 l 1
 2707.89453125 1381.85644531 2951.04492188 2454 2670 2454 c 3
 2168.70507812 2454 1624.0234375 19 257 19 c 3
 88.98828125 19 154.995117188 105 257 105 c 0
 257 124 l 3
EndSplineSet
MultipleSubs2: "'ccmp' [Uppercase]" L L_
EndChar

StartChar: X
Encoding: 49 88 14
Width: 3408
VWidth: 0
Flags: HW
HStem: 0 21G<284.665 339.585 880.254 974.654> 799.2 20G<2932.05 2969.21> 2437.6 20G<3274.87 3387>
AnchorPoint: "Cursive 1" 1316.58 276 exit 0
LayerCount: 6
Back
Refer: 218 -1 S 1 0 0 1 -624.416 0 2
Fore
SplineSet
1306.58398438 277 m 1
 1430.54785156 813.946289062 2304.58398438 1989 3301.58398438 2452 c 257
 3308.58398438 2436 l 257
 2346.58398438 1976 1445.93945312 794.317382812 1325.58398438 273 c 1
NamedP: "77 degree"
 1306.58398438 277 l 1
EndSplineSet
Refer: 214 -1 S 1 0 0 1 -642.416 0 2
MultipleSubs2: "'ccmp' [Uppercase]" X K_
EndChar

StartChar: W
Encoding: 48 87 15
Width: 3271
VWidth: 0
Flags: HW
HStem: 0 19<100 1500> 1239 19<3052.98 3171> 2013 20G<2396.5 2465.5>
AnchorPoint: "Cursive 1" 103 9 entry 0
LayerCount: 6
Back
Refer: 215 -1 S 1 0 0 1 -807 0 2
Fore
SplineSet
2636 2033 m 1
 2295 1383 1994 724 1733 7 c 1
 1751 0 l 1
 2077 613 2492 1239 3171 1239 c 1
 3171 1258 l 1
 2527 1258 2119 707 1798 127 c 1
 2105 949 2466 1698 2882 2449 c 1
 2865 2458 l 1
 2357 1578 1740 552 100 19 c 1
 105 0 l 1
 1500 452 2157 1259 2636 2033 c 1
EndSplineSet
Layer: 2
SplineSet
1751 0 m 5
 2076.87304688 612.876953125 2492.17871094 1239 3171 1239 c 4
 3171 1258 l 7
 2483 1258 2064.3203125 630.2421875 1734 9 c 5
 1751 0 l 5
  Spiro
    1751 0 v
    2115.5 598.282 o
    2575.48 1056.93 o
    3171 1239 o
    3171 1258 o
    2566.6 1072.59 o
    2100.07 608.367 o
    1734 9 v
    0 0 z
  EndSpiro
2882 2449 m 5
 2865 2458 l 5
 2427.44921875 1668.63867188 2050.86328125 880.322265625 1733 7 c 5
 1751 0 l 5
 2068.25097656 871.639648438 2444.30859375 1659.38476562 2882 2449 c 5
105 0 m 5
 1753 534 2370.96484375 1563.86132812 2882 2449 c 5
 2865 2458 l 5
 2357.20019531 1578.46484375 1739.62109375 551.745117188 100 19 c 5
 105 0 l 5
EndSplineSet
MultipleSubs2: "'ccmp' [Uppercase]" XW W
EndChar

StartChar: Z
Encoding: 51 90 16
Width: 3015
VWidth: 0
Flags: HW
HStem: -1 21G<2009.5 2063> 799 20G<4156 4438>
AnchorPoint: "Cursive 1" 106 -1620 exit 0
LayerCount: 6
Back
Refer: 142 -1 S 1 0 0 1 760 0 2
Fore
SplineSet
827 -1102 m 0
 273 -1717 124 -1642 100 -1627 c 9
 100 -1625 l 25
 109 -1614 l 25
 112 -1612 l 1
 157 -1639 340.120117188 -1614.10839844 813 -1089 c 0
 1813.22558594 21.6982421875 1655.00390625 219 1508 219 c 3
 1336.98828125 219 1127.95410156 19 1223 19 c 3
 1546 19 2201.46582031 709.732421875 2472 1056 c 0
 3461.04785156 2321.92382812 2428 3081 1359 1712 c 0
 941 1177 826 477 927 4 c 1
 908 0 l 1
 805 483 917 1177 1345 1725 c 0
 2438 3124 3525.20605469 2319.84472656 2512 1023 c 0
 2232.47167969 665.219726562 1550 0 1223 0 c 3
 1075 0 1311 238 1508 238 c 3
 1673 238 1863 48 827 -1102 c 0
EndSplineSet
MultipleSubs2: "'ccmp' [Uppercase]" Z g_
EndChar

StartChar: Q
Encoding: 42 81 17
Width: 2435
VWidth: 0
Flags: HW
HStem: 0 8<954.611 1336.74> 2465 8<1837.08 1992.12>
VStem: 652.511 5<780.064 955.591> 2740.51 36<1406.74 1451 1584 1768.01>
AnchorPoint: "Cursive 1" 201.511 114 exit 0
LayerCount: 6
Back
Refer: 229 -1 S 1 0 0 1 -444.489 0 2
Fore
SplineSet
201.510742188 124 m 3
 63.49609375 124 69.5107421875 0 199.510742188 0 c 3
 962.314453125 0 1581.43164062 610.57421875 1919.38378906 1023 c 0
 2962.51074219 2296 1845.91699219 3124.49511719 752.510742188 1724.99902344 c 0
 324.3125 1176.9296875 212.916992188 482.666992188 315.510742188 0 c 1
 334.510742188 4 l 1
 232.977539062 481.678710938 348.40234375 1176.84472656 766.510742188 1711.99902344 c 0
 1835.99316406 3080.87402344 2910.51074219 2288 1879.51074219 1056 c 0
 1542.44140625 653.216796875 937.543945312 19 199.510742188 19 c 3
 95.505859375 19 99.505859375 105 201.510742188 105 c 0
 201.510742188 124 l 3
EndSplineSet
MultipleSubs2: "'ccmp' [Uppercase]" Q L_
EndChar

StartChar: C
Encoding: 28 67 18
Width: 2436
VWidth: 0
Flags: HW
HStem: 0 21G<100 269.922>
VStem: 1010 37<396.346 711.158> 2169 19<635.459 825.43>
LayerCount: 6
Fore
SplineSet
1191 545 m 1
 1321.86035156 1218.21972656 2188 1340 2188 735 c 0
 2188 -9.880859375 1010 -372 1010 550 c 0
 1010 607.428710938 1015.140625 668.140625 1025.97265625 731.998046875 c 1
 737.141601562 478.079101562 427.842773438 238.057617188 112 0 c 1
 100 15 l 1
 422.565429688 258.125 738.032226562 503.297851562 1031.61914062 762.927734375 c 1
 1113.5546875 1182.37304688 1437.23535156 1732.45800781 2152 2376 c 0
 2274 2486 2412 2516 2287 2271 c 0
 1992.36132812 1692.79492188 1567.56542969 1215.61230469 1081.03808594 780.802734375 c 1
 1057.85742188 691.358398438 1047 614.104492188 1047 552 c 0
 1047 -358 2169 30 2169 735 c 0
 2169 1315 1336.40820312 1191.94824219 1210 542 c 1
 1191 545 l 1
1090.45800781 815.42578125 m 1
 1566.80371094 1244.30664062 1981.6875 1714.27636719 2270 2280 c 0
 2385 2505 2270 2457 2164 2361 c 0
 1522.63671875 1783.30175781 1199.42578125 1198.18945312 1090.45800781 815.42578125 c 1
EndSplineSet
Layer: 2
SplineSet
1191 545 m 5
 1321.86035156 1218.21972656 2188 1340 2188 735 c 7
 2188 -9.880859375 1010 -372 1010 550 c 7
 1010 988 1309 1617 2152 2376 c 4
 2274 2486 2412 2516 2287 2271 c 4
 1808 1331 985 658 112 0 c 5
 100 15 l 21
 973 673 1794 1346 2270 2280 c 4
 2385 2505 2270 2457 2164 2361 c 4
 1348 1626 1047 879 1047 552 c 7
 1047 -358 2169 30 2169 735 c 7
 2169 1315 1336.40820312 1191.94824219 1210 542 c 5
 1191 545 l 5
EndSplineSet
EndChar

StartChar: D
Encoding: 29 68 19
Width: 3572
VWidth: 0
Flags: HW
HStem: 0 19<1581.91 1861.61> 800 19<670.46 785.06> 2438 20<2789.27 2989.25>
VStem: 1035.06 19<819 1804>
LayerCount: 6
Fore
SplineSet
1054.05957031 819 m 17
 1291.05957031 1804 2337.02734375 2438 2889.05957031 2438 c 3
 4013.27636719 2438 3353.14746094 19 1709.05957031 19 c 3
 986.802734375 19 1120.05957031 819 734.059570312 819 c 3
 45.0595703125 819 -316.584960938 -1191.65332031 896.059570312 1089 c 1
 879.059570312 1098 l 1
 350.881835938 104.641601562 170.51171875 -0.9814453125 135.890625 19 c 0
 44.0595703125 72 329.80859375 800 734.059570312 800 c 3
 1098.05957031 800 971.059570312 0 1709.05957031 0 c 3
 3382.05957031 0 4053.26757812 2458 2889.05957031 2458 c 3
 2188.57714844 2458 1279.05957031 1858 1035.05957031 819 c 1
 1054.05957031 819 l 17
EndSplineSet
EndChar

StartChar: E
Encoding: 30 69 20
Width: 2144
VWidth: 0
Flags: HW
HStem: 2449 9<1296.03 1642>
LayerCount: 6
Fore
SplineSet
2044 2458 m 3
 1710 2458 1529 2198 1529 2019 c 3
 1529 1732 1860 1927 1860 2193 c 3
 1860 2650 1072 2481.09472656 1072 1952 c 3
 1072 1586.97851562 1406 1526.82617188 1406 1599 c 3
 1406 1627 1359 1659 1283 1659 c 7
 804 1659 100 1261 100 582 c 7
 100 -506 1631 92 1631 1016 c 7
 1631 2095 12 1299 273 319 c 5
 292 323 l 5
 38 1268 1612 2062 1612 1016 c 7
 1612 128 143 -460.0234375 143 573 c 7
 143 1281 830.866210938 1640 1283 1640 c 7
 1348 1640 1387 1617 1387 1599 c 3
 1387 1561 1091 1606.99414062 1091 1952 c 3
 1091 2454.00097656 1841 2626 1841 2193 c 3
 1841 1974 1561 1762 1561 2019 c 3
 1561 2188 1720 2439 2044 2439 c 0
 2044 2458 l 3
EndSplineSet
EndChar

StartChar: I
Encoding: 34 73 21
Width: 2206
VWidth: 0
Flags: HW
VStem: 743 19<0 262.489>
LayerCount: 6
Fore
SplineSet
743 0 m 1
 762 0 l 1
 758 117 765 237 783 360 c 1
 1208 683 1571 1157 1867 1714 c 0
 2365 2651 2020 2692 1430 1897 c 0
 1118 1476 852 926 769 396 c 1
 548 224 322 96 100 18 c 1
 106 0 l 1
 338 75 557 192 761 344 c 1
 745 228 739 112 743 0 c 1
792 414 m 1
 879 935 1142 1480 1445 1885 c 0
 2029 2664 2332 2633 1849 1724 c 0
 1556 1172 1184 725 792 414 c 1
EndSplineSet
Layer: 2
SplineSet
743 0 m 5
 762 0 l 5
 740.030273438 629.140625 1059.76464844 1370.90136719 1445 1885 c 4
 2028.83398438 2664.12988281 2332.33984375 2633.03027344 1849 1724 c 4
 1385.01171875 851.365234375 723 238 100 18 c 5
 106 0 l 5
 833 234 1424.35449219 881.50390625 1867 1714 c 4
 2365.02050781 2650.63964844 2019.67480469 2692 1430 1897 c 4
 1039.21875 1370.1484375 720.65625 639.83984375 743 0 c 5
EndSplineSet
EndChar

StartChar: J
Encoding: 35 74 22
Width: 3182
VWidth: 0
Flags: HW
VStem: 2902.6 16<0 43.3771>
AnchorPoint: "Cursive 1" 106.601 -1620 exit 0
LayerCount: 6
Back
Refer: 142 -1 S 1 0 0 1 760.6 0 2
Fore
SplineSet
100.600585938 -1627 m 5
 162.600585938 -1667 321.600585938 -1598 540.600585938 -1373 c 0
 767.022460938 -1140.375 895.396484375 -933.286132812 1042.60058594 -744 c 2
 1913.60058594 376 l 2
 2193.60058594 736 2687.60058594 1413 2847.60058594 1714 c 0
 3345.60058594 2651 2985.60058594 2692 2395.60058594 1897 c 0
 2004.60058594 1370 1556.60058594 513 1605.60058594 -187 c 1
 1624.60058594 -186 l 1
 1576.60058594 503 2025.60058594 1371 2410.60058594 1885 c 0
 2994.60058594 2664 3312.60058594 2633 2829.60058594 1724 c 0
 2665.60058594 1415 2182.60058594 749 1899.60058594 389 c 2
 1023.60058594 -728 l 2
 870.600585938 -924 722.540039062 -1131 512.600585938 -1345 c 0
 282.620117188 -1579.42871094 155.600585938 -1640 112.600585938 -1612 c 9
 109 -1613 l 25
 100 -1624 l 25
 100.600585938 -1627 l 5
EndSplineSet
Layer: 2
SplineSet
100.600585938 -1627 m 1
 35.6005859375 -1585 81.6005859375 -1418 291.600585938 -1153 c 0
 704.600585938 -632 1539.60058594 73 2943.60058594 819 c 1
 2952.60058594 802 l 1
 1548.60058594 56 719.600585938 -645 306.600585938 -1165 c 0
 111.600585938 -1410 57.6005859375 -1577 112.600585938 -1612 c 1
 100.600585938 -1627 l 1
1899.60058594 389 m 2
 1023.60058594 -728 l 2
 870.600585938 -924 722.540039062 -1131 512.600585938 -1345 c 0
 282.620117188 -1579.42871094 155.600585938 -1640 112.600585938 -1612 c 1
 100.600585938 -1627 l 1
 162.600585938 -1667 321.600585938 -1598 540.600585938 -1373 c 0
 767.022460938 -1140.375 895.396484375 -933.286132812 1042.60058594 -744 c 2
 1913.60058594 376 l 2
 2193.60058594 736 2687.60058594 1413 2847.60058594 1714 c 0
 3345.60058594 2651 2985.60058594 2692 2395.60058594 1897 c 0
 2004.60058594 1370 1556.60058594 513 1605.60058594 -187 c 1
 1624.60058594 -186 l 1
 1576.60058594 503 2025.60058594 1371 2410.60058594 1885 c 0
 2994.60058594 2664 3312.60058594 2633 2829.60058594 1724 c 0
 2665.60058594 1415 2182.60058594 749 1899.60058594 389 c 2
EndSplineSet
Refer: 130 -1 N 1 0 0 1 760.6 0 2
MultipleSubs2: "'ccmp' [Uppercase]" J g_
EndChar

StartChar: Y
Encoding: 50 89 24
Width: 2923
VWidth: 0
Flags: HW
AnchorPoint: "Cursive 1" 106 -1620 exit 0
AnchorPoint: "Cursive 1" 2816 1633 entry 0
LayerCount: 6
Back
Refer: 140 -1 S 1 0 0 1 2706 1490 2
Refer: 142 -1 S 1 0 0 1 1401.09 819 2
Fore
SplineSet
112 -1612 m 1
 153.93359375 -1639.23242188 299.735351562 -1592.1171875 528 -1386.58691406 c 0
 680.872070312 -1248.94042969 862.153320312 -1035.15429688 1081 -735 c 2
 2808 1638 l 5
 2823 1626 l 1
 1097 -746 l 2
 886.323242188 -1034.99414062 702.514648438 -1255.57128906 541 -1401 c 0
 323.19921875 -1597.10839844 161.684570312 -1667.05859375 100 -1627 c 9
 100 -1624 l 25
 110 -1612 l 25
 112 -1612 l 1
EndSplineSet
MultipleSubs2: "'ccmp' [Uppercase]" UY Y g_
EndChar

StartChar: V
Encoding: 47 86 25
Width: 2634
VWidth: 0
Flags: HW
LayerCount: 6
Fore
SplineSet
468.975585938 0 m 1
 170.25 382.350585938 27.9326171875 1001.69628906 135.975585938 1510 c 0
 470.87890625 3085.59570312 2481.97558594 2553 1355.97558594 967 c 0
 1143.97558594 668 624.975585938 19 865.975585938 19 c 7
 1031.96289062 19 1375.33105469 503.455078125 1732.97558594 945.735351562 c 0
 2006.91601562 1284.50292969 2295.62207031 1596.32421875 2531.97558594 1638 c 1
 2534.97558594 1619 l 1
 2000.6875 1521.1875 1183.97558594 0 865.975585938 0 c 3
 593.975585938 0 1069.80175781 674.866210938 1297.97558594 983 c 0
 2447.97558594 2536 483.432617188 3051.265625 154.975585938 1506 c 0
 48.4189453125 1004.68945312 186.995117188 392.397460938 484.975585938 11 c 1
 468.975585938 0 l 1
EndSplineSet
EndChar

StartChar: _r
Encoding: 80 -1 52
Width: 1616
VWidth: 0
Flags: HW
HStem: 0 21G<62 231.5> 799 20G<1401.5 1529>
AnchorPoint: "Cursive 1" 1510 812 exit 0
LayerCount: 6
Back
Refer: 143 -1 S 1 0 0 1 1345 0 2
Fore
SplineSet
100 19 m 1
 696 116 1242 588 1504 819 c 1
 1516 804 l 1
 1253 572 703 97 103 0 c 1
 100 19 l 1
EndSplineSet
Substitution2: "Substitute with nulls" null1
Comment: "It is for initial part of 'r' and 's'."
Colour: 5bfff
EndChar

StartChar: _a
Encoding: 82 -1 53
Width: 1473
VWidth: 0
Flags: HW
HStem: 798 21<1062.96 1331.19>
AnchorPoint: "Cursive 1" 870.194 819 entry 0
AnchorPoint: "Cursive 1" 1356.19 814 exit 0
LayerCount: 6
Back
Refer: 160 -1 N 1 0 0 1 -41.8052 0 2
Fore
SplineSet
1331.19433594 798 m 1
 1125.19433594 526 750.194335938 236 529.194335938 127 c 0
 9.1943359375 -130 61.1943359375 126 274.194335938 374 c 0
 622.194335938 779 1043.19433594 806 1331.19433594 798 c 1
1373.19433594 819 m 1
 929.194335938 819 623.194335938 803 256.194335938 384 c 0
 33.1943359375 129 -12.8056640625 -162 538.194335938 108 c 0
 769.194335938 221 1142.19433594 516 1373.19433594 819 c 1
EndSplineSet
Comment: "It is one of part of 'a'."
Colour: bdbdbd
EndChar

StartChar: P001
Encoding: 83 -1 54
Width: 1622
VWidth: 0
Flags: HW
HStem: 784 19<1438.32 1522>
AnchorPoint: "Cursive 1" 1522 795 exit 0
LayerCount: 6
Fore
SplineSet
116 0 m 1
 257 234 608 703 1522 784 c 1
 1522 803 l 1
 599 718 247 254 100 8 c 1
 116 0 l 1
EndSplineSet
Substitution2: "Substitute with nulls" null1
Comment: "It was for initial part of glyphs like 'a'."
Colour: 129eff
EndChar

StartChar: a.0
Encoding: 84 -1 55
Width: 740
VWidth: 0
Flags: HW
HStem: 148 659
AnchorPoint: "Cursive 1" 108 143 exit 0
AnchorPoint: "Cursive 1" 633 814 entry 0
LayerCount: 6
Back
Refer: 140 -1 S 1 0 0 1 523 671 2
Refer: 140 -1 N 1 0 0 1 -2 0 2
Refer: 139 -1 N 1 0 0 1 -2 0 2
Fore
SplineSet
100 146 m 25
 113 136 l 25
 115 136 l 1
 640 807 l 1
 625 819 l 1
 100 148 l 1
 100 146 l 25
EndSplineSet
Comment: "It is one of parts of glyphs like 'a'."
Colour: bdbdbd
EndChar

StartChar: d.0
Encoding: 85 -1 56
Width: 1381
VWidth: 0
Flags: HW
HStem: 819 807
AnchorPoint: "Cursive 1" 108 143 exit 0
AnchorPoint: "Cursive 1" 633 814 entry 0
LayerCount: 6
Back
Refer: 140 -1 S 1 0 0 1 523 671 2
Refer: 140 -1 N 1 0 0 1 -2 0 2
Refer: 140 -1 N 1 0 0 1 1164 1490 2
Fore
SplineSet
100 146 m 25
 113 136 l 25
 115 136 l 1
 1281 1626 l 1
 1266 1638 l 1
 100 148 l 1
 100 146 l 25
EndSplineSet
Comment: "It is one of parts of 'd'."
Colour: d9d9d9
EndChar

StartChar: _g.0
Encoding: 86 -1 57
Width: 2282
VWidth: 0
Flags: HW
AnchorPoint: "Cursive 1" 106 -1620 exit 0
AnchorPoint: "Cursive 1" 2175 814 entry 0
LayerCount: 6
Back
Refer: 140 -1 S 1 0 0 1 2065 671 2
Refer: 142 -1 S 1 0 0 1 760 0 2
Fore
SplineSet
112 -1612 m 1
 153.93359375 -1639.23242188 299.735351562 -1592.1171875 528 -1386.58691406 c 0
 680.872070312 -1248.94042969 868.041992188 -1039.45019531 1081 -735 c 2
 2167 819 l 1
 2182 807 l 1
 1097 -746 l 2
 892.045898438 -1039.16699219 702.514648438 -1255.57128906 541 -1401 c 0
 323.19921875 -1597.10839844 161.684570312 -1667.05859375 100 -1627 c 9
 100 -1624 l 25
 110 -1612 l 29
 112 -1612 l 1
EndSplineSet
Comment: "it is one of parts of glyphs like 'g'."
Colour: bd8582
EndChar

StartChar: q_
Encoding: 87 -1 58
Width: 2293
VWidth: 0
Flags: HW
HStem: 800 19<2155.06 2193.63>
AnchorPoint: "Cursive 1" 2198.63 812 exit 0
AnchorPoint: "Cursive 1" 1419.63 812 entry 0
LayerCount: 6
Back
Refer: 140 -1 N 1 0 0 1 1875.63 397 2
Refer: 140 -1 N 1 0 0 1 1096.63 397 2
Refer: 135 -1 N 1 0 0 1 785.63 0 2
Fore
SplineSet
1411.62988281 819 m 25
 195.629882812 -737 l 2
 1.6298828125 -984 128.561523438 -1082.14550781 346.629882812 -782 c 0
 825.086914062 -123.459960938 1366.390625 654.135742188 2193.62988281 800 c 1
 2190.62988281 819 l 1
 1353.16894531 671.333007812 809.86328125 -111.767578125 331.629882812 -770 c 0
 227.90625 -912.762695312 143.2265625 -959.98828125 125.629882812 -947.817382812 c 0
 107.060546875 -934.973632812 125.884765625 -856.909179688 208.629882812 -751 c 10
 1426.62988281 807 l 1
 1411.62988281 819 l 25
  Spiro
    1411.63 819 v
    195.63 -737 ]
    100.102 -925.023 o
    167.583 -958.558 o
    346.63 -782 o
    853.753 -112.236 o
    1454.1 471.849 o
    2193.63 800 v
    2190.63 819 v
    1443.4 488.168 o
    839.491 -98.9612 o
    331.63 -770 o
    236.12 -882.172 o
    163.752 -938.882 o
    125.63 -947.817 o
    120.498 -914.67 o
    146.252 -846.16 o
    208.63 -751 [
    1426.63 807 v
    0 0 z
  EndSpiro
EndSplineSet
Substitution2: "* +- [t]" q_b
Substitution2: "* +- [b, f, h, k, l]" q_b
Substitution2: "* +- [a, d, g, q]" q_a
Substitution2: "* +- [o]" q_o
Substitution2: "* +- [p, r, s]" q_p
Substitution2: "* +- [m, n, v, x, y, z] - 1" q_m
Substitution2: "* +- [c]" q_c
Substitution2: "* +- [e]" q_e
Comment: "It is default final part of 'q'."
Colour: ff1c3b
EndChar

StartChar: h.0
Encoding: 88 -1 59
Width: 846
VWidth: 0
Flags: HW
HStem: 12 795
AnchorPoint: "Cursive 1" 739 814 entry 0
AnchorPoint: "Cursive 1" 108 7 exit 0
LayerCount: 6
Back
Refer: 140 -1 S 1 0 0 1 -2 -136 2
Refer: 140 -1 S 1 0 0 1 629 671 2
Fore
SplineSet
100 12 m 25
 115 0 l 1
 746 807 l 25
 731 819 l 1
 100 12 l 25
EndSplineSet
Comment: "It is one of parts of glyphs like 'h'."
Colour: bdbdbd
EndChar

StartChar: _m
Encoding: 89 -1 60
Width: 1548
VWidth: 0
Flags: HW
AnchorPoint: "Cursive 1" 974 143 exit 0
AnchorPoint: "Cursive 1" 105 7 entry 0
LayerCount: 6
Back
Refer: 140 -1 S 1 0 0 1 -5 -136 2
Refer: 163 -1 N 1 0 0 1 84 0 2
Refer: 140 -1 N 1 0 0 1 864 0 2
Fore
SplineSet
1227 756 m 0
 1418 833.168945312 1493.54980469 817.370117188 1359 650 c 2
 966 148 l 1
 966 146 l 25
 979 136 l 25
 981 136 l 1
 1377 643 l 2
 1524.21972656 826.58984375 1429.91601562 859.215820312 1219 774 c 0
 871.723632812 633.69140625 424.439453125 286.827148438 100 15 c 1
 112 0 l 1
 436.802734375 272.541992188 882.087890625 616.646484375 1227 756 c 0
EndSplineSet
Substitution2: "* +- [m, n, v, x, y, z] - 4" D__m
Substitution2: "* +- [m, n, v, x, y, z] - 3" g__m
Substitution2: "* +- [m, n, v, x, y, z] - 2" b__m
Substitution2: "* +- [m, n, v, x, y, z] - 1" m__m
Comment: "It is default initial part of glyphs like 'm'."
Colour: 3d8fbd
EndChar

StartChar: f.0
Encoding: 90 -1 61
Width: 1928
VWidth: 0
Flags: HW
AnchorPoint: "Cursive 1" 1821.14 812 entry 0
AnchorPoint: "Cursive 1" 1192.14 10 exit 0
LayerCount: 6
Back
Refer: 140 -1 S 1 0 0 1 1498.14 397 2
Fore
SplineSet
1813.14257812 819 m 1
 535.142578125 -814 l 2
 -178.252929688 -1725.56054688 76.142578125 -1952 648.142578125 -1128 c 0
 1013.14257812 -602 1199.14257812 8 1199.14257812 8 c 1
 1185.14257812 11 l 1
 1185.14257812 11 974.321289062 -632.807617188 633.352539062 -1119 c 0
 359.142578125 -1510 171.90625 -1645.30664062 129.142578125 -1614.68847656 c 0
 85.869140625 -1583.70507812 157.716796875 -1327.796875 551.142578125 -825 c 2
 1828.14257812 807 l 1
 1813.14257812 819 l 1
-4953.85742188 279 m 1049
EndSplineSet
Comment: "It is one of parts of 'f'."
Colour: c9c9c9
EndChar

StartChar: h.1
Encoding: 91 -1 63
Width: 1729
VWidth: 0
Flags: HW
AnchorPoint: "Cursive 1" 108 814 exit 0
AnchorPoint: "Cursive 1" 106 812 entry 0
LayerCount: 6
Back
Refer: 143 -1 N 1 0 0 1 -59 0 2
Refer: 140 -1 S 1 0 0 1 -2 671 2
Fore
SplineSet
972 1901 m 2
 1302.015625 2322.63964844 1562.91796875 2468.76464844 1605 2431.76953125 c 0
 1640 2401 1542 2188 1182 1797 c 0
 811.431640625 1394.52246094 523 1187 174 882 c 1
 972 1901 l 2
100 817 m 1
 110 804 l 1
 112 804 l 5
NamedP: "41 degree"
 507 1147 808.135742188 1360.875 1196 1784 c 0
 2010 2672 1530.20996094 2644.26855469 958 1914 c 2
 958 1914 386 1184 100 819 c 1
 100 817 l 1
EndSplineSet
Comment: "It is one of parts of glyphs like 'h'."
Colour: bdbdbd
EndChar

StartChar: b_
Encoding: 92 -1 64
Width: 860
VWidth: 0
Flags: HW
AnchorPoint: "Cursive 1" 756 812 exit 0
AnchorPoint: "Cursive 1" 108 781 entry 0
LayerCount: 6
Back
Refer: 137 -1 N 1 0 0 1 29 0 2
Fore
SplineSet
100 776 m 1
 116 787 l 5
 207 639 344 653 753 819 c 5
 760 801 l 1
 343 632 198 619 100 776 c 1
EndSplineSet
Substitution2: "* +- [a, d, g, q]" b_a
Substitution2: "* +- [c]" b_c
Substitution2: "* +- [e]" b_e
Substitution2: "* +- [p, r, s]" b_p
Substitution2: "* +- [m, n, v, x, y, z] - 1" b_m
Substitution2: "* +- [o]" b_o
Substitution2: "* +- [b, f, h, k, l]" b_b
Comment: "It is final part of glyph like b without any glyph after it."
Colour: ff2938
EndChar

StartChar: _c
Encoding: 93 -1 65
Width: 1057
VWidth: 0
Flags: HW
HStem: 722 20G<764.65 765.078> 819 21G<291.917 359.453 856.3 885.3>
AnchorPoint: "Cursive 1" 108 143 exit 0
AnchorPoint: "Cursive 1" 901 811 entry 0
LayerCount: 6
Back
Refer: 164 -1 S 1 0 0 1 -781 0 2
Refer: 140 -1 N 1 0 0 1 -2 0 2
Refer: 139 -1 N 1 0 0 1 -2 0 2
Fore
SplineSet
617 711 m 0
 865 917.977539062 1057 802 902 666 c 0
 765 546 619 644 895 819 c 1
 906 803 l 5
NamedP: "147.5 degree"
 771 717 748 658 762 640 c 0
 776 622 837 635 888 679 c 0
 1024 797 853.684570312 883.694335938 630 696 c 0
 455.341796875 549.444335938 263.374023438 325.91015625 115 136 c 9
 110 137 l 25
 100 145 l 25
 100 148 l 17
 252.215820312 342.828125 440.686523438 563.8515625 617 711 c 0
EndSplineSet
Comment: "It is default initial of 'c'."
Colour: 4a91bd
EndChar

StartChar: _h
Encoding: 95 -1 66
Width: 1398
VWidth: 0
Flags: HW
HStem: 0 819
VStem: 109 1189
AnchorPoint: "Cursive 1" 1292 812 exit 0
LayerCount: 6
Back
Refer: 143 -1 S 1 0 0 1 1127 0 2
Fore
SplineSet
1298 804 m 17
 880 472 601 270 109 0 c 1
 100 17 l 17
 624 312 876 491 1286 819 c 1
 1298 804 l 17
EndSplineSet
Substitution2: "Substitute with nulls" null1
Comment: "It is initial part of glyphs like 'h'."
Colour: 59cff
EndChar

StartChar: e.0
Encoding: 96 -1 67
Width: 950
VWidth: 0
Flags: HW
HStem: 410 21G<-2 59.1143 84.2471 168.247>
AnchorPoint: "Cursive 1" 108 143 exit 0
AnchorPoint: "Cursive 1" 421 418 entry 0
LayerCount: 6
Back
Refer: 140 -1 S 1 0 0 1 203 262 2
Refer: 141 -1 N 1 0 0 1 -2 0 2
Refer: 140 -1 N 1 0 0 1 -2 0 2
Refer: 139 -1 N 1 0 0 1 -2 0 2
Fore
SplineSet
715 607 m 0
 620.033203125 535.956054688 523.890625 471.168945312 426 410 c 13
NamedP: "32 degree"
 424 410 l 25
 415 425 l 25
 416 427 l 1
 515.78125 489.350585938 597.143554688 542.80859375 703 622 c 0
 812.700195312 704.06640625 841.329101562 780.853515625 828 797.081054688 c 0
 812.131835938 816.399414062 609.375976562 768.772460938 115 136 c 9
 111 136 l 25
 100 144 l 25
 100 148 l 17
 844.950195312 1101.49316406 1004.06445312 823.247070312 715 607 c 0
EndSplineSet
Comment: "It is one of parts of 'e'."
Colour: bdbdbd
EndChar

StartChar: _e
Encoding: 97 -1 68
Width: 1094
VWidth: 0
Flags: HW
HStem: 0 427
VStem: 106 878
AnchorPoint: "Cursive 1" 989 418 exit 0
LayerCount: 6
Back
Refer: 141 -1 N 1 0 0 1 566 0 2
Refer: 139 -1 N 1 0 0 1 566 0 2
Fore
SplineSet
984 427 m 5
 994 410 l 1
 638 177 420.715820312 95.5166015625 106 0 c 1
 100 18 l 1
 415.734375 115.419921875 628 193 984 427 c 5
EndSplineSet
Substitution2: "Substitute with nulls" null1
Comment: "It is initial part of e."
Colour: 1f96ff
EndChar

StartChar: k.0
Encoding: 98 -1 69
Width: 1689
VWidth: 0
Flags: HW
HStem: 0 21G<106 357>
VStem: 1585 18<848.92 926.984>
AnchorPoint: "Cursive 1" 1129 812 exit 0
AnchorPoint: "Cursive 1" 108 5 entry 0
LayerCount: 6
Back
Refer: 140 -1 S 1 0 0 1 806 397 2
Refer: 140 -1 N 1 0 0 1 -215 -410 2
Fore
SplineSet
1136 807 m 1
 1322 644 1570 753 1570 885 c 0
 1570 997 1407.92285156 1068.13671875 1146 946 c 4
 913.985351562 837.809570312 583 623 115 0 c 9
 100 12 l 1
 571 638 903.172851562 853.96484375 1137 963 c 0
 1408.98339844 1089.828125 1589 1017.03417969 1589 885 c 0
 1589 733 1317 620 1123 793 c 1
 1136 807 l 1
EndSplineSet
Comment: "It is one parts of 'k'."
Colour: b5b5b5
EndChar

StartChar: _o
Encoding: 99 -1 70
Width: 887
VWidth: 0
Flags: HW
AnchorPoint: "Cursive 1" 754.942 781 exit 0
AnchorPoint: "Cursive 1" 684.942 819 entry 0
LayerCount: 6
Back
SplineSet
443.942382812 432 m 25
 443.942382812 387 l 1049
314.942382812 530 m 25
 314.942382812 485 l 1049
572.942382812 332 m 25
 572.942382812 287 l 1049
215.942382812 585 m 25
 651.942382812 250 l 1049
EndSplineSet
Refer: 150 -1 S 1 0 0 1 130.942 0 2
Refer: 137 -1 N 1 0 0 1 124.942 0 2
Fore
SplineSet
314.942382812 511 m 0
 175.942382812 334 60.7451171875 108.032226562 152.942382812 36 c 0
 243.090820312 -34.431640625 433.942382812 135 572.942382812 312 c 0
 711.942382812 489 824.987304688 713.430664062 735.942382812 783 c 0
 646.897460938 852.569335938 453.942382812 688 314.942382812 511 c 0
298.942382812 521 m 0
 451.942382812 716 645.942382812 878 747.942382812 798 c 0
 849.942382812 718 740.942382812 494 587.942382812 299 c 0
 434.942382812 104 241.942382812 -59 139.942382812 21 c 0
 37.9423828125 101 145.942382812 326 298.942382812 521 c 0
  Spiro
    298.942 521 o
    460.517 697.109 o
    620.35 805.132 o
    747.942 798 o
    785.814 676.564 o
    719.985 497.064 o
    587.942 299 o
    426.626 122.632 o
    267.275 14.1267 o
    139.942 21 o
    101.812 142.695 o
    167.158 322.677 o
    0 0 z
  EndSpiro
EndSplineSet
Comment: "It is one parts of 'o'."
Colour: 1285bd
EndChar

StartChar: p.0
Encoding: 100 -1 71
Width: 2247
VWidth: 0
Flags: HW
HStem: -967 21G<72 112.637> 819 21G<1275 1377>
AnchorPoint: "Cursive 1" 862 0 exit 0
AnchorPoint: "Cursive 1" 1304 812 entry 0
LayerCount: 6
Back
Refer: 143 -1 S 1 0 0 1 1139 0 2
Refer: 135 -1 N 1 0 0 1 862 0 2
Fore
SplineSet
1310 804 m 5
NamedP: "41 degree"
 1463.078125 937.068359375 1689 1126 1952 1412 c 1
 100 -952 l 1
 120 -967 l 1
 2147 1625 l 1
 2128 1638 l 1
 1787 1239 1493.40234375 988.860351562 1298 819 c 9
 1298 814 l 25
 1306 804 l 25
 1310 804 l 5
NamedP: "41 degree"
EndSplineSet
Comment: "It is one of parts of 'p'."
Colour: bdbdbd
EndChar

StartChar: r.0
Encoding: 101 -1 72
Width: 732
VWidth: 0
Flags: HW
HStem: 410 539 819 21G<130.281 176.281>
VStem: -3 329.281
AnchorPoint: "Cursive 1" 108 143 exit 0
AnchorPoint: "Cursive 1" 443 812 entry 0
LayerCount: 6
Back
Refer: 163 -1 S 1 0 0 1 -3 0 2
Refer: 140 -1 N 1 0 0 1 -2 0 2
Refer: 143 -1 N 1 0 0 1 278 0 2
Refer: 136 -1 N 1 0 0 1 -3 0 2
Fore
SplineSet
115 136 m 1
 632 798 l 1
 590 826 551 889 599 935 c 1
 581 949 l 1
 581 949 491 865 437 819 c 5x60
 437 816 l 25
 447 804 l 25
 449 804 l 17
NamedP: "41 degree"
 491.002929688 840.000976562 560 903 560 903 c 1
 550 843 592 807 605 795 c 1
 100 148 l 9xa0
 101 145 l 25
 113 136 l 25
 115 136 l 1
EndSplineSet
Comment: "It is one of parts of 'r'."
Colour: bdbdbd
EndChar

StartChar: s.0
Encoding: 102 -1 73
Width: 1125
VWidth: 0
Flags: HW
HStem: 819.2 21G<877 925.5>
VStem: 46 19<186.301 214>
AnchorPoint: "Cursive 1" 330 9 exit 0
AnchorPoint: "Cursive 1" 881 812 entry 0
LayerCount: 6
Back
Refer: 143 -1 S 1 0 0 1 716 0 2
Refer: 136 -1 N 1 0 0 1 -516 0 2
Fore
SplineSet
875 819 m 1
 968.64453125 900.403320312 1009 949 1009 949 c 1
 1025 938 l 1
 808 551 772.5234375 344.513671875 649 188.728515625 c 0
 405 -119 124 -2 100 202 c 1
 119 204 l 1
 145 12 400 -91 633 200.1875 c 0
 749.607421875 345.915039062 784 529 974 882 c 1
 974 882 935.075195312 845.791015625 887 804 c 5
NamedP: "41 degree"
 885 804 l 25
 875 817 l 25
 875 819 l 1
EndSplineSet
Comment: "It is one of parts of 's'."
Colour: bdbdbd
EndChar

StartChar: _t
Encoding: 103 -1 74
Width: 1043
VWidth: 0
Flags: HW
HStem: 818.2 21G<928.54 974.57> 1221 16<886 1729>
VStem: 886 843<1221 1237>
AnchorPoint: "Cursive 1" 177 814 exit 0
AnchorPoint: "Cursive 1" 177 814 entry 0
LayerCount: 6
Back
Refer: 140 -1 S 1 0 0 1 708 1490 2
Refer: 140 -1 S 1 0 0 1 67 671 2
Fore
SplineSet
100 1240 m 1
 943 1240 l 1
 943 1221 l 1
 100 1221 l 1
 100 1240 l 1
169 819 m 1
 810 1638 l 1
 825 1626 l 1
 184 807 l 9
 180 806 l 25
 169 815 l 25
 169 819 l 1
EndSplineSet
Comment: "It is one of pars of 't'."
Colour: bdbdbd
EndChar

StartChar: x.0
Encoding: 104 -1 75
Width: 1258
VWidth: 0
Flags: HW
HStem: 0 819
VStem: 100 1046
AnchorPoint: "Cursive 1" 427 143 exit 0
AnchorPoint: "Cursive 1" 427 143 entry 0
LayerCount: 6
Back
Refer: 143 -1 S 1 0 0 1 -59 -804 2
Refer: 143 -1 N 1 0 0 1 987 0 2
Refer: 139 -1 N 1 0 0 1 -463 0 2
Refer: 163 -1 N 1 0 0 1 -463 0 2
Refer: 140 -1 N 1 0 0 1 317 0 2
Fore
SplineSet
100 15 m 1
 1146 819 l 1
 1158 804 l 1
 112 0 l 1
 100 15 l 1
EndSplineSet
Comment: "It is for x."
Colour: c7c7c7
EndChar

StartChar: z.0
Encoding: 105 -1 76
Width: 1720
VWidth: 0
Flags: HW
AnchorPoint: "Cursive 1" 106 -1620 exit 0
AnchorPoint: "Cursive 1" 1531 0 entry 0
LayerCount: 6
Back
Refer: 142 -1 S 1 0 0 1 760 0 2
Fore
SplineSet
112 -1612 m 5
 157.4296875 -1639.296875 339.924804688 -1614.40332031 813 -1089 c 4
 1517.06542969 -307.055664062 1706 101 1545 0 c 5
 1517 0 l 5
 1778 166 1541.859375 -308.068359375 827 -1102 c 4
 272.959960938 -1717.32421875 124 -1642 100 -1627 c 13
 100 -1625 l 29
 109 -1614 l 29
 112 -1612 l 5
EndSplineSet
Comment: "It is one of part of glyphs like 'z'."
Colour: ff4036
EndChar

StartChar: f_
Encoding: 106 -1 77
Width: 1611
VWidth: 0
Flags: HW
HStem: 0 19<100 179.048>
AnchorPoint: "Cursive 1" 1505 812 exit 0
AnchorPoint: "Cursive 1" 101 9 entry 0
LayerCount: 6
Back
Refer: 143 -1 S 1 0 0 1 1340 0 2
Fore
SplineSet
100 0 m 1
 100 19 l 17
 504 19 1204 560 1499 819 c 1
 1511 804 l 17
 1215 545 513 -1 100 0 c 1
EndSplineSet
Substitution2: "* +- [t]" f_b
Substitution2: "* +- [i, j, u, w]" f_b
Substitution2: "* +- [b, f, h, k, l]" f_b
Substitution2: "* +- [a, d, g, q]" f_a
Substitution2: "* +- [e]" f_e
Substitution2: "* +- [m, n, v, x, y, z] - 1" f_m
Substitution2: "* +- [o]" f_o
Comment: "It is final part of 's' and 'f'."
Colour: ff3b2e
EndChar

StartChar: P004
Encoding: 107 -1 78
Width: 1437
VWidth: 0
Flags: HW
HStem: 0 21G<100 183.5> 795 24<1296.45 1313>
VStem: 100 1237
AnchorPoint: "Cursive 1" 1325 807 exit 0
LayerCount: 6
Fore
SplineSet
518 434 m 0
 752 615 1049 760 1337 819 c 1
 1313 795 l 1
 1020 726 764 590 542 426 c 0
 381 307 242 161 125 0 c 1
 100 0 l 1
 217 164 358 311 518 434 c 0
EndSplineSet
Substitution2: "Substitute with nulls" null1
Comment: "It was for intial part of 'o'."
Colour: 5b8ff
EndChar

StartChar: b.0
Encoding: 110 -1 80
Width: 1172
VWidth: 0
Flags: HW
AnchorPoint: "Cursive 1" 1039.79 781 exit 0
AnchorPoint: "Cursive 1" 150.795 143 entry 0
LayerCount: 6
Back
Refer: 140 -1 S 1 0 0 1 955.795 671 2
Refer: 140 -1 N 1 0 0 1 565.795 671 2
Refer: 154 -1 N 1 0 0 1 40.7952 0 2
Refer: 137 -1 N 1 0 0 1 40.7952 0 2
Refer: 140 -1 N 1 0 0 1 742.795 397 2
Refer: 140 -1 N 1 0 0 1 40.7952 0 2
Refer: 139 -1 N 1 0 0 1 40.7952 0 2
Fore
SplineSet
157.794921875 136 m 1
 120.3125 88.09375 108.8203125 40.3876953125 128.794921875 23.7451171875 c 0
 167.208984375 -8.2607421875 411.793945312 49.125 1057.79492188 819 c 1
 1072.79492188 807 l 1
 189.919921875 -245.169921875 0.3046875 -34.1162109375 142.794921875 148 c 1
 142.794921875 148 157.794921875 136 157.794921875 136 c 1
EndSplineSet
Comment: "It is for b."
Colour: d1d1d1
EndChar

StartChar: a_
Encoding: 111 -1 81
Width: 1558
VWidth: 0
Flags: HW
AnchorPoint: "Cursive 1" 170.031 143 entry 0
AnchorPoint: "Cursive 1" 1452.03 812 exit 0
LayerCount: 6
Back
Refer: 143 -1 S 1 0 0 1 1287.03 0 2
Refer: 163 -1 S 1 0 0 1 60.0311 0 2
Refer: 140 -1 S 1 0 0 1 60.0311 0 2
Fore
SplineSet
162.03125 148 m 1
 66.03125 24 79.03125 -26 218.03125 14 c 0
 501.03125 95 938.03125 367 1458.03125 804 c 1
 1446.03125 819 l 1
 927.03125 383 492.03125 114 211.03125 32 c 4
 89.03125 -4 105.03125 44 177.03125 136 c 5
 162.03125 148 l 1
EndSplineSet
Substitution2: "* +- [b, f, h, k, l]" a_bi
Substitution2: "'aalt' [+AH4A-i] +- *-1" a_bi
Substitution2: "* +- [o]" a_o
Substitution2: "* +- [e]" a_c
Substitution2: "* +- [c]" i_c
Substitution2: "* +- [a, d, g, q]" a_a
Substitution2: "* +- [m, n, v, x, y, z] - 1" a_m
Comment: "It is for final part of characters like a, c and w."
Colour: ff454c
EndChar

StartChar: m.0
Encoding: 112 -1 82
Width: 321
VWidth: 0
Flags: HW
HStem: 0.599609 409.4
VStem: 103.9 344.096
AnchorPoint: "Cursive 1" 214 143 entry 0
AnchorPoint: "Cursive 1" 108 7 exit 0
LayerCount: 6
Back
Refer: 163 -1 S 1 0 0 1 104 0 2
Refer: 140 -1 N 1 0 0 1 -2 -136 2
Refer: 140 -1 N 1 0 0 1 104 0 2
Refer: 140 -1 N 1 0 0 1 -216 -410 2
Fore
SplineSet
100 12 m 1
 206 148 l 1
 221 136 l 1
 115 0 l 1
 100 12 l 1
EndSplineSet
Comment: "it is for glyph like m and n."
Colour: cfcfcf
EndChar

StartChar: a_c
Encoding: 113 -1 83
Width: 1419
VWidth: 0
Flags: HW
AnchorPoint: "Cursive 1" 1314.2 418 exit 0
AnchorPoint: "Cursive 1" 163.196 143 entry 0
LayerCount: 6
Back
Refer: 141 -1 S 1 0 0 1 891.196 0 2
Refer: 140 -1 N 1 0 0 1 53.1964 0 2
Refer: 139 -1 N 1 0 0 1 53.1964 0 2
Fore
SplineSet
170.196289062 136 m 1
 90.953125 34.2080078125 103.69140625 10.669921875 233.196289062 22 c 0
 363.698242188 33.4169921875 885.171875 162.040039062 1309.19628906 427 c 1
 1319.19628906 410 l 1
 895.171875 145.040039062 369.05078125 14.7978515625 234.196289062 3 c 0
 98.275390625 -8.8916015625 54.267578125 18.1669921875 155.196289062 148 c 1
 170.196289062 136 l 1
EndSplineSet
Comment: "It is for final part of glyphs like 'i' before 'e'."
Colour: ff030d
EndChar

StartChar: a_bi
Encoding: 114 -1 84
Width: 1768
VWidth: 0
Flags: HW
AnchorPoint: "Cursive 1" 159.481 143 entry 0
AnchorPoint: "Cursive 1" 1663.48 811 exit 0
LayerCount: 6
Back
Refer: 182 -1 S 1 0 0 1 49.481 0 2
Refer: 164 -1 S 1 0 0 1 -18.519 0 2
Refer: 140 -1 S 1 0 0 1 49.481 0 2
Fore
SplineSet
166.481445312 136 m 5
 90.923828125 38.9423828125 103.2734375 3.509765625 219.481445312 24 c 4
 501.135742188 73.6630859375 1068.40429688 341.975585938 1657.48144531 819 c 5
 1668.48144531 803 l 5
 1074.76464844 322.217773438 507.8828125 55.5 221.481445312 5 c 4
 97.2470703125 -16.9052734375 58.48046875 28.365234375 151.481445312 148 c 5
 166.481445312 136 l 5
EndSplineSet
Comment: "It is final part of glyphs like 'a' before glyph like 'i' and glyhs like 'b'."
Colour: ff1214
EndChar

StartChar: a_a
Encoding: 115 -1 85
Width: 1534
VWidth: 0
Flags: HW
HStem: 605.857 20G<787.604 1208.7>
AnchorPoint: "Cursive 1" 1729.35 819 exit 0
AnchorPoint: "Cursive 1" 171.353 143 entry 0
LayerCount: 6
Back
Refer: 160 -1 S 1 0 0 1 817.353 0 2
Refer: 163 -1 N 1 0 0 1 61.3525 0 2
Refer: 140 -1 N 1 0 0 1 61.3525 0 2
Refer: 138 -1 N 1 0 0 1 61.3525 0 2
Fore
SplineSet
178.352539062 136 m 1
 98.7421875 33.5908203125 91.2333984375 -1.73046875 212.352539062 33 c 0
 421.907226562 93.0888671875 929.584960938 309.559570312 1424.35253906 656 c 1
 1434.35253906 640 l 1
 936.365234375 291.305664062 427.224609375 74.1796875 217.352539062 14 c 0
 76.201171875 -26.474609375 67.708984375 24.9658203125 163.352539062 148 c 1
 178.352539062 136 l 1
EndSplineSet
Comment: "It is final part of glyphs like 'a' that place before glyphs like 'a'."
Colour: ff0d0d
EndChar

StartChar: P005
Encoding: 116 -1 87
Width: 739
VWidth: 0
Flags: HW
VStem: 112 515
AnchorPoint: "Cursive 1" 633 417 exit 0
AnchorPoint: "Cursive 1" 106 7 entry 0
LayerCount: 6
Back
Refer: 139 -1 S 1 0 0 1 604 0 2
Fore
SplineSet
627 425 m 1
 468 309 285 170 100 15 c 5
 112 0 l 1
 281 141 465 285 639 410 c 1
 627 425 l 1
EndSplineSet
Substitution2: "Substitute with nulls" null1
Comment: "It was for initial part of v, x, m, n."
Colour: 4aabff
EndChar

StartChar: a_m
Encoding: 117 -1 88
Width: 1046
VWidth: 0
Flags: HW
AnchorPoint: "Cursive 1" 940.907 418 exit 0
AnchorPoint: "Cursive 1" 169.907 143 entry 0
LayerCount: 6
Back
Refer: 163 -1 S 1 0 0 1 59.9076 0 2
Refer: 143 -1 N 1 0 0 1 775.908 -394 2
Refer: 140 -1 N 1 0 0 1 59.9076 0 2
Refer: 139 -1 N 1 0 0 1 59.9076 0 2
Fore
SplineSet
176.907226562 136 m 5
 61.9072265625 -12 144.907226562 11 241.907226562 41 c 0
 308.907226562 61 532.907226562 146 934.907226562 425 c 1
 946.907226562 410 l 1
 541.907226562 131 318.907226562 44 246.907226562 22 c 0
 201.907226562 8 -0.0927734375 -60 161.907226562 148 c 1
 176.907226562 136 l 5
EndSplineSet
Comment: "It is final part of glyphs like a and m before glyphs like m and v."
Colour: ff141c
EndChar

StartChar: b_m
Encoding: 120 -1 89
Width: 768
VWidth: 0
Flags: HW
HStem: 696 19<258.476 445.197>
VStem: 111 550
AnchorPoint: "Cursive 1" 664 781 exit 0
AnchorPoint: "Cursive 1" 107 781 entry 0
LayerCount: 6
Back
Refer: 150 -1 N 1 0 0 1 -517 0 2
Refer: 146 -1 N 1 0 0 1 286 0 2
Refer: 137 -1 N 1 0 0 1 -516 0 2
Fore
SplineSet
661 789 m 1
 555 747 450 715 349 715 c 0
 267 715 186 736 111 788 c 1
 100 772 l 1
 183 714 266 696 349 696 c 0
 451 696 556 727 668 772 c 1
 661 789 l 1
EndSplineSet
Comment: "It is for final part glyphs like 'b' before glyphs like 'm'."
Colour: ff2638
EndChar

StartChar: b__m
Encoding: 121 -1 90
Width: 670
VWidth: 0
Flags: HW
HStem: 409.4 21G<561.569 743.961>
AnchorPoint: "Cursive 1" 108 143 exit 0
AnchorPoint: "Cursive 1" 375 781 entry 0
LayerCount: 6
Back
Refer: 163 -1 S 1 0 0 1 -3 0 2
Refer: 146 -1 N 1 0 0 1 -3 0 2
Refer: 137 -1 N 1 0 0 1 -3 0 2
Refer: 140 -1 N 1 0 0 1 -2 0 2
Fore
SplineSet
379 772 m 5
 538 830 615 809 488 646 c 2
 100 148 l 9
 100 146 l 25
 113 136 l 25
 115 136 l 1
 503 634 l 2
 640 810 555 857 372 789 c 9
 371 787 l 25
 377 773 l 25
 379 772 l 5
EndSplineSet
Comment: "It is default initial part of glyphs like 'm' after glyphs like 'b' and 'o'."
Colour: 549ebd
EndChar

StartChar: glyph98
Encoding: 9 44 91
Width: 323
VWidth: 0
Flags: HW
VStem: 155 62<-45.9682 39.2772>
LayerCount: 6
Fore
SplineSet
186 41 m 25
 223 3 l 1
 112 -110 l 1
 100 -98 l 1
 176 -20 l 1
 151 5 l 1
 186 41 l 25
EndSplineSet
EndChar

StartChar: g_m
Encoding: 123 -1 92
Width: 2390
VWidth: 0
Flags: HW
AnchorPoint: "Cursive 1" 133.176 -1620 entry 0
AnchorPoint: "Cursive 1" 2285.18 418 exit 0
LayerCount: 6
Back
Refer: 164 -1 S 1 0 0 1 603.176 -393 2
Refer: 143 -1 N 1 0 0 1 2039.18 -394 2
Refer: 139 -1 N 1 0 0 1 787.176 0 2
Refer: 142 -1 N 1 0 0 1 787.176 0 2
Fore
SplineSet
2279.17578125 426 m 1
 1359.17578125 -111 618.17578125 -769 318.17578125 -1153 c 0
 109.17578125 -1420 62.17578125 -1585 127.17578125 -1627 c 1
 139.17578125 -1612 l 1
 86.17578125 -1578 137.17578125 -1416 333.17578125 -1165 c 0
 630.17578125 -784 1370.17578125 -127 2290.17578125 410 c 1
 2279.17578125 426 l 1
EndSplineSet
Layer: 5
SplineSet
333.17578125 -1165 m 4
 136.780273438 -1416.375 86.0419921875 -1578.15039062 139.17578125 -1612 c 4
 181.286132812 -1638.82714844 327.17578125 -1593 555.17578125 -1387 c 4
 708.17578125 -1249 895.17578125 -1039 1108.17578125 -735 c 6
 2194.17578125 819 l 5
 2209.17578125 807 l 5
 1124.17578125 -746 l 6
 919.17578125 -1039 730.17578125 -1256 568.17578125 -1401 c 4
 350.17578125 -1597 189.17578125 -1667 127.17578125 -1627 c 4
 62.17578125 -1585 109.528320312 -1420.05664062 318.17578125 -1153 c 4
 687.573242188 -680.193359375 1724.91113281 206.846679688 2941.17578125 774 c 4
 3139.65722656 866.553710938 3231.54296875 812.421875 3099.17578125 643 c 6
 2703.17578125 136 l 5
 2701.17578125 136 l 29
 2688.17578125 146 l 29
 2688.17578125 148 l 5
 3084.17578125 655 l 6
 3205.86816406 810.802734375 3123.1875 837.142578125 2949.17578125 756 c 4
 1733.81738281 189.268554688 698.87890625 -696.921875 333.17578125 -1165 c 4
EndSplineSet
Comment: "It is final part of glyph like 'j' before glyphs like 'm'."
Colour: ff171f
EndChar

StartChar: period
Encoding: 11 46 93
Width: 244
VWidth: 0
Flags: HW
HStem: -8.9225 37.845<103.269 141.101>
VStem: 103.263 37.845<-8.91636 28.9164>
LayerCount: 6
Fore
SplineSet
100 22 m 4
 100 34.3251953125 109.859375 44.1845703125 122.184570312 44.1845703125 c 4
 134.509765625 44.1845703125 144.369140625 34.3251953125 144.369140625 22 c 4
 144.369140625 9.6748046875 134.509765625 -0.1845703125 122.184570312 -0.1845703125 c 4
 109.859375 -0.1845703125 100 9.6748046875 100 22 c 4
EndSplineSet
EndChar

StartChar: zero
Encoding: 12 48 94
Width: 1028
VWidth: 0
Flags: HW
LayerCount: 6
Back
Refer: 134 -1 S 1 0 0 1 -144 0 2
Fore
SplineSet
323.03125 627.80859375 m 0
 131.750976562 382.981445312 79.3359375 107.646484375 176.473632812 39.630859375 c 0
 273.612304688 -28.3857421875 505.77734375 85.333984375 697.05859375 330.163085938 c 0
 888.338867188 574.989257812 958.311523438 867.098632812 859.518554688 933.755859375 c 0
 761.217773438 1000.08105469 514.3125 872.635742188 323.03125 627.80859375 c 0
287.057617188 639.666015625 m 0
 492.0859375 902.08984375 753.608398438 1028.49902344 873.086914062 951.206054688 c 0
 992.563476562 873.912109375 907.30078125 557.143554688 716.03125 315.932617188 c 0
 520.208007812 68.9775390625 278.952148438 -58.38671875 162.243164062 23.029296875 c 0
 45.53515625 104.446289062 96.1796875 395.353515625 287.057617188 639.666015625 c 0
EndSplineSet
EndChar

StartChar: one
Encoding: 13 49 95
Width: 997
VWidth: 0
Flags: HW
LayerCount: 6
Back
Refer: 134 -1 S 1 0 0 1 14 0 2
Fore
SplineSet
897 975 m 5
 140 0 l 5
 100 0 l 5
 874 975 l 5
 897 975 l 5
EndSplineSet
EndChar

StartChar: two
Encoding: 14 50 96
Width: 1328
VWidth: 0
Flags: HW
LayerCount: 6
Back
Refer: 134 -1 S 1 0 0 1 -1.82021e-05 0 2
Fore
SplineSet
1110.78515625 937.04296875 m 1
 1019.04980469 987.403320312 868.903320312 960.524414062 701.83203125 783.084960938 c 0
 590.0078125 664.321289062 578.518554688 554.404296875 619.61328125 515.791992188 c 0
 658.529296875 479.2265625 758.536132812 494.639648438 898.46484375 643.8046875 c 0
 963.750976562 713.400390625 1031.43652344 803.033203125 1110.78515625 937.04296875 c 1
1125.81640625 927.736328125 m 1
 1047.69238281 795.944335938 977.040039062 701.731445312 911.35546875 631.711914062 c 0
 772.134765625 483.301757812 660.256835938 453.350585938 607.509765625 502.911132812 c 0
 553.274414062 553.870117188 578.432617188 673.942382812 688.963867188 795.202148438 c 0
 1205.44824219 1361.81347656 1704.38769531 448.7734375 391.42578125 40.337890625 c 1
 664.727539062 0 916.727539062 17 1149.76953125 88.646484375 c 1
 1154.06640625 71.5009765625 l 1
 900.727539062 -9 618.727539062 -18 351.4296875 30.2939453125 c 1
 315.60546875 21.6298828125 279.587890625 13.7109375 241.659179688 6.2216796875 c 0
 180.029296875 -5.9482421875 88.16796875 8.0634765625 101.259765625 57.0517578125 c 0
 109.265625 87.0068359375 160.864257812 96.7783203125 247.237304688 73.5068359375 c 0
 283.119140625 63.8388671875 316.069335938 55.87890625 351.15625 48.4169921875 c 1
 1100.40820312 279.09375 1348.86816406 769.954101562 1125.81640625 927.736328125 c 1
311.611328125 39.1123046875 m 1
 289.080078125 44.361328125 265.865234375 50.1826171875 242.638671875 56.4404296875 c 0
 153.484375 80.4609375 120.9140625 62.1337890625 118.3359375 52.48828125 c 0
 110.58203125 23.474609375 193.938476562 14.8154296875 238.235351562 23.5615234375 c 0
 263.12890625 28.4775390625 287.708984375 33.693359375 311.611328125 39.1123046875 c 1
EndSplineSet
Layer: 3
SplineSet
1033 932 m 4
 623 238 345.364257812 503.755859375 613 788 c 4
 1177 1387 1583.00097656 301.995117188 162.05859375 21.4140625 c 4
 4.2548828125 -9.74609375 -26.4580078125 123.123046875 167 71 c 4
 553 -33 805 15.8349609375 1065 81 c 1029
EndSplineSet
EndChar

StartChar: three
Encoding: 15 51 97
Width: 1124
VWidth: 0
Flags: HW
LayerCount: 6
Back
Refer: 134 -1 S 1 0 0 1 -73.3896 0 2
Fore
SplineSet
655.443359375 506.525390625 m 1
 645.297851562 516.935546875 633.510742188 526.952148438 620.340820312 536.055664062 c 0
 592.481445312 555.3125 577.770507812 548.432617188 573.40234375 542.063476562 c 0
 569.215820312 535.961914062 569.521484375 524.279296875 582.684570312 515.256835938 c 0
 596.956054688 505.474609375 628.1953125 505.131835938 655.443359375 506.525390625 c 1
943.129882812 942.923828125 m 1
 912.905273438 872.44921875 885.284179688 818.5859375 852.708007812 785.635742188 c 0
 718.610351562 650 591.610351562 759 709.909179688 893.922851562 c 0
 789.517578125 984.717773438 892.610351562 991 943.610351562 962 c 0
 1143.5546875 848.306640625 940.559570312 512.166992188 689.58203125 492.205078125 c 1
 863.907226562 228.1796875 594.610351562 -54 303.91015625 9.2880859375 c 0
 177.111328125 36.8935546875 108.610351562 136 100 255.079101562 c 1
 116.84765625 251.872070312 l 1
 122.610351562 156 186.749023438 62.1064453125 307.081054688 32.142578125 c 0
 548.610351562 -28 828.610351562 237 669.66015625 490.254882812 c 1
 633.462890625 487.536132812 594.369140625 486.455078125 572.98828125 501.111328125 c 0
 553.866210938 514.21875 548.658203125 536.310546875 559.259765625 551.764648438 c 0
 571.526367188 569.646484375 599.14453125 571.555664062 630.092773438 550.163085938 c 0
 648.600585938 537.37109375 664.041015625 523.438476562 677.1875 508.118164062 c 1
 927.357421875 532.564453125 1104.52441406 832.135742188 943.129882812 942.923828125 c 1
928.295898438 951.849609375 m 1
 881.6328125 974.421875 789.965820312 959.370117188 723.16015625 883.03515625 c 0
 621.610351562 767 714.610351562 680 839.436523438 796.498046875 c 0
 872.092773438 826.975585938 898.205078125 881.372070312 928.295898438 951.849609375 c 1
EndSplineSet
Layer: 3
SplineSet
929.610351562 950.75 m 4
 771.610351562 579.75 606.200195312 744.10546875 708.610351562 868.75 c 4
 860.610351562 1053.75 1094.60253906 965.256835938 977.610351562 731 c 4
 870.610351562 516.75 722.171875 496.25 613.255859375 496.25 c 4
 523.255859375 496.25 546.22265625 591.348632812 617.255859375 542.25 c 4
 804.610351562 412.75 680.610351562 148.75 538.610351562 58.75 c 4
 334.647460938 -70.5224609375 62.6103515625 54.75 100.255859375 252.5 c 1028
EndSplineSet
EndChar

StartChar: four
Encoding: 16 52 98
Width: 1290
VWidth: 0
Flags: HW
LayerCount: 6
Back
Refer: 134 -1 S 1 0 0 1 0 0 2
Fore
SplineSet
1190 961.72265625 m 1
 956.586914062 846.00390625 296.612304688 -1.9921875 296.612304688 -1.9921875 c 1
 280.655273438 10.3935546875 l 1
 280.655273438 10.3935546875 937.456054688 859.06640625 1181.02832031 979.819335938 c 1
 1190 961.72265625 l 1
493 721 m 1
 141.8671875 260.48828125 l 1
 817.874023438 260.48828125 l 1
 817.874023438 240.288085938 l 1
 100 241 l 1
 464.543945312 738.390625 l 1
 493 721 l 1
EndSplineSet
Layer: 3
SplineSet
1165 975 m 4
 929 858 277 18 277 18 c 1028
461 740.25 m 4
 337 505.5 109 261.75 109 261.75 c 5
 801 261.75 l 1029
EndSplineSet
EndChar

StartChar: five
Encoding: 17 53 99
Width: 1567
VWidth: 0
Flags: HW
LayerCount: 6
Back
Refer: 134 -1 S 1 0 0 1 67.5005 0 2
Fore
SplineSet
1467.90039062 956.948242188 m 1
 988.912109375 956.948242188 l 1
 850.271484375 738.970703125 769.071289062 602.00390625 690.926757812 534.111328125 c 1
 709.99609375 520.954101562 724.951171875 501.6796875 736.673828125 479.275390625 c 0
 842.500976562 277 607.313476562 -55.5576171875 286.373046875 5.2421875 c 0
 165.615234375 28.1171875 79.587890625 119.051757812 104.225585938 248.474609375 c 1
 112.889648438 246.825195312 l 1
 121.5546875 245.17578125 l 1
 99.0419921875 126.916992188 174.828125 40.9296875 289.657226562 24.5732421875 c 0
 574.500976562 -16 800.500976562 301 720.858398438 471.46484375 c 0
 710.323242188 494.013671875 694.663085938 511.313476562 676.551757812 522.41015625 c 1
 653.038085938 504.627929688 629.176757812 492.966796875 604.159179688 487.907226562 c 0
 567.721679688 480.5390625 543.194335938 481.45703125 535.874023438 497.844726562 c 0
 527.944335938 515.599609375 548.189453125 531.467773438 565.909179688 539.380859375 c 0
 606.609375 557.557617188 643.9453125 557.600585938 674.626953125 543.409179688 c 1
 749.9921875 606.004882812 836.653320312 751.331054688 979.500976562 975 c 1
 1467.90039062 974.586914062 l 1
 1467.90039062 956.948242188 l 1
658.336914062 530.96875 m 1
 634.572265625 539.05859375 605.982421875 537.958007812 573.1015625 523.275390625 c 0
 556.99609375 516.08203125 551.857421875 506.127929688 551.987304688 505.02734375 c 0
 552.48828125 504.27734375 564.048828125 497.79296875 600.663085938 505.197265625 c 0
 620.107421875 509.129882812 639.0703125 517.62890625 658.336914062 530.96875 c 1
EndSplineSet
Layer: 3
SplineSet
1484.50097656 960 m 29
 1004.50097656 960 l 5
 815.500976562 663 732.619140625 516.088867188 625.864257812 494.5 c 4
 549.21875 479 557.950195312 513.249023438 593.21875 529 c 4
 799.21875 621 878.21875 214 551.21875 53 c 4
 334.57421875 -53.666015625 102.573242188 49 140.21875 246.75 c 1028
EndSplineSet
EndChar

StartChar: six
Encoding: 18 54 100
Width: 920
VWidth: 0
Flags: HW
LayerCount: 6
Back
Refer: 134 -1 S 1 0 0 1 -0.578539 0 2
Fore
SplineSet
269.696289062 17.1005859375 m 1
 357.197265625 229.379882812 450.302734375 356.375 538.374023438 431.826171875 c 0
 647.809570312 525.581054688 748.4375 532.221679688 795.345703125 477.348632812 c 0
 849.235351562 414.309570312 820.446289062 284.548828125 668.086914062 154.91015625 c 0
 540.48828125 46.33984375 392.365234375 -8.431640625 278.692382812 -2.564453125 c 0
 231.775390625 -0.1435546875 190.34765625 12.6845703125 158.971679688 37.1171875 c 0
 58.5361328125 115.330078125 74.4892578125 297.008789062 300.076171875 591 c 2
 780.421875 1217 l 1
 806.421875 1195 l 1
 315.0390625 579.291015625 l 2
 83.23046875 288.83203125 85.748046875 118.220703125 170.645507812 52.1083984375 c 0
 196 32.3642578125 229.875976562 20.5830078125 269.696289062 17.1005859375 c 1
289.828125 16.0595703125 m 1
 395.826171875 14.2216796875 535.0703125 66.67578125 655.774414062 169.380859375 c 0
 806.793945312 297.879882812 822.89453125 415.8828125 780.903320312 465.002929688 c 0
 745.061523438 506.9296875 658.083007812 509.36328125 550.735351562 417.397460938 c 0
 467.043945312 345.698242188 374.915039062 220.479492188 289.828125 16.0595703125 c 1
EndSplineSet
Layer: 3
SplineSet
249.856445312 11 m 5
 567.856445312 785 1020.32324219 489.8359375 633.856445312 161 c 4
 291.856445312 -130 -197.862304688 -26.0185546875 279.483398438 584 c 6
 765.421875 1205 l 1029
EndSplineSet
EndChar

StartChar: seven
Encoding: 19 55 101
Width: 1182
VWidth: 0
Flags: HW
LayerCount: 6
Back
Refer: 134 -1 S 1 0 0 1 -75.1104 0 2
Fore
SplineSet
296.889648438 964 m 1
 161.271484375 790.688476562 l 1
 578.990234375 1102.99707031 570.587890625 557.30078125 1070.19238281 984.045898438 c 1
 1082.765625 972 l 1
 140.889648438 -239 l 1
 119.889648438 -223 l 1
 1021.53320312 922.145507812 l 1
 546.2265625 560.537109375 556.271484375 1113.08105469 112.623046875 728.78125 c 1
 112.623046875 728.78125 100 740.78515625 100 740.78515625 c 1
 283.108398438 974.78515625 l 1
 296.889648438 964 l 1
EndSplineSet
Layer: 3
SplineSet
254.012695312 966.999023438 m 29
 70.904296875 732.999023438 l 5
 539.169921875 1138.99902344 511.888671875 523.999023438 1039.88867188 974.999023438 c 5
 94.615234375 -233.000976562 l 1029
EndSplineSet
EndChar

StartChar: eight
Encoding: 20 56 102
Width: 1121
VWidth: 0
Flags: HW
LayerCount: 6
Back
Refer: 134 -1 S 1 0 0 1 -16.6322 0 2
Fore
SplineSet
443.169921875 527.549804688 m 1
 443.368164062 1088 1135.36816406 1081 1005.4296875 729.455078125 c 1
 989.306640625 736.259765625 l 1
 1105.36816406 1065 461.368164062 1042 461.3515625 541.107421875 c 1
 546.83984375 604.104492188 651.171875 670.979492188 777.138671875 740.517578125 c 1
 785.596679688 725.197265625 l 1
 654.325195312 652.73046875 547.959960938 584.0546875 460.385742188 518.59375 c 1
 460.375976562 99.3544921875 251.705078125 -36.611328125 155.368164062 8.5498046875 c 0
 65.2080078125 50.8154296875 39.3681640625 270 443.169921875 527.549804688 c 1
442.645507812 505.169921875 m 1
 102.368164062 256 87.2470703125 62.9599609375 163.3828125 27 c 0
 246.889648438 -12.44140625 441.454101562 120.61328125 442.645507812 505.169921875 c 1
EndSplineSet
Layer: 3
SplineSet
777.368164062 730.25 m 4
 -476.631835938 38 447.368164062 -370 447.368164062 496 c 4
 447.368164062 1088 1133.36816406 1062 993.368164062 730.25 c 1028
EndSplineSet
EndChar

StartChar: nine
Encoding: 21 57 103
Width: 1294
VWidth: 0
Flags: HW
LayerCount: 6
Back
Refer: 134 -1 S 1 0 0 1 -47.7256 0 2
Fore
SplineSet
1194.27441406 971.75 m 1
 1163.27441406 961.75 l 1
 234.274414062 -208 l 1
 263.274414062 -228 l 1
 1194.27441406 971.75 l 1
EndSplineSet
Refer: 53 -1 S 0.86 0 0 0.86 -20.2326 267.537 2
EndChar

StartChar: exclam
Encoding: 2 33 104
Width: 1508
VWidth: 0
Flags: HW
LayerCount: 6
Fore
SplineSet
1408.18457031 1630 m 1
 216.182617188 118.607421875 l 5
 202.400390625 129.392578125 l 5
 1382.18457031 1649 l 1
 1408.18457031 1630 l 1
EndSplineSet
Refer: 93 46 N 1 0 0 1 -473.815 0 2
EndChar

StartChar: question
Encoding: 24 63 105
Width: 2353
VWidth: 0
Flags: HW
LayerCount: 6
Fore
SplineSet
1319.58007812 1094.37988281 m 1
 1394.09472656 1357.97558594 1514.36035156 1510.94824219 1645.29882812 1582.97265625 c 0
 1862.62890625 1702.51855469 2105.20703125 1597.09765625 2205.88769531 1413.94335938 c 0
 2307.41113281 1229.25292969 2262.35253906 969.73046875 1916.2109375 776.374023438 c 0
 1372 472.374023438 1056 554 748.291015625 234.047851562 c 1
 735.46484375 245.952148438 l 1
 1090 625.857421875 1526.93847656 582.60546875 1907.7890625 791.713867188 c 0
 2249.40625 979.28125 2286.75 1230.51171875 2190.55175781 1405.51269531 c 0
 2093.89355469 1581.35058594 1861.49414062 1681.921875 1653.73339844 1567.63964844 c 0
 1528.18457031 1498.58007812 1410.12402344 1350.34863281 1336.41992188 1089.62011719 c 1
 1319.58007812 1094.37988281 l 1
EndSplineSet
Refer: 93 46 N 1 0 0 1 0.000195313 0 2
Layer: 3
SplineSet
1328 1092 m 5
 1648 2224 2808 1276 1912 784.043945312 c 4
 1527.39160156 572.872070312 1100 625.857421875 741.877929688 240 c 1029
EndSplineSet
EndChar

StartChar: underscore
Encoding: 52 95 110
Width: 1445
VWidth: 0
Flags: HW
LayerCount: 6
Fore
SplineSet
100 18 m 1
 1345 19 l 5
 1345 0 l 5
 100 0 l 1
 100 18 l 1
EndSplineSet
EndChar

StartChar: percent
Encoding: 6 37 111
Width: 2260
VWidth: 0
Flags: HW
LayerCount: 6
Fore
SplineSet
1209 926 m 1
 1209.10449219 932.499023438 l 1
 1517.46972656 927.557617188 1684.01269531 1105.66796875 2145.56445312 1639.25195312 c 1
 2150.48046875 1635 l 1
 2155.39648438 1630.74804688 l 1
 1694.85644531 1098.33203125 1524.53027344 914.442382812 1208.89550781 919.500976562 c 1
 1209 926 l 1
2160 1633 m 1
 127 -979 l 1
 100 -957 l 1
 2146.21875 1643.78613281 l 1
 2160 1633 l 1
EndSplineSet
Refer: 94 48 N 0.5 0 0 0.5 1222.03 -0.950344 2
Refer: 94 48 N 0.5 0 0 0.5 682.033 487.05 2
EndChar

StartChar: numbersign
Encoding: 4 35 112
Width: 1969
VWidth: 0
Flags: HW
LayerCount: 6
Fore
SplineSet
333 901.250976562 m 1
 333 907.083984375 333 912.91796875 333 918.750976562 c 1
 1869 918.75 l 1
 1869 912.916992188 1869 907.083007812 1869 901.25 c 1
 333 901.250976562 l 1
100 586.25 m 1
 100 592.083007812 100 597.916992188 100 603.75 c 1
 1636 603.749023438 l 1
 1636 597.916015625 1636 592.08203125 1636 586.249023438 c 1
 100 586.25 l 1
1626.11816406 1299.40332031 m 1
 1630.70605469 1295.80078125 1635.29394531 1292.19921875 1639.88183594 1288.59667969 c 1
 718.881835938 115.596679688 l 1
 714.293945312 119.19921875 709.706054688 122.80078125 705.118164062 126.403320312 c 1
 1626.11816406 1299.40332031 l 1
1209.02246094 1352.18945312 m 1
 1217.67382812 1345.39648438 1226.32617188 1338.60351562 1234.97753906 1331.81054688 c 1
 313.977539062 158.810546875 l 1
 305.326171875 165.603515625 296.673828125 172.396484375 288.022460938 179.189453125 c 1
 1209.02246094 1352.18945312 l 1
EndSplineSet
Layer: 3
SplineSet
333 910.000976562 m 5
 1869 910 l 1029
100 595 m 5
 1636 594.999023438 l 1029
1633 1294 m 5
 712 121 l 1029
1222 1342 m 5
 301 169 l 1029
EndSplineSet
EndChar

StartChar: dollar
Encoding: 5 36 113
Width: 2372
VWidth: 0
Flags: HW
LayerCount: 6
Fore
SplineSet
1769.04589844 721.338867188 m 1
 1763.31835938 722.446289062 1757.59179688 723.553710938 1751.86425781 724.661132812 c 1
 1779.18164062 865.9765625 1655.20507812 1001.82910156 1496.41503906 957.842773438 c 0
 1395.23242188 929.814453125 1330.43261719 829.34375 1323.19238281 714.865234375 c 0
 1312.34375 543.309570312 1405.56738281 392.212890625 1360.56054688 212.712890625 c 0
 1322.14746094 59.5146484375 1141.29785156 -80.4248046875 965.44140625 29.0322265625 c 0
 876.07421875 84.6591796875 806.40234375 225.607421875 879.0546875 347.965820312 c 0
 936.428710938 444.592773438 1094.0390625 485.829101562 1181.71191406 382.392578125 c 0
 1210.14746094 348.84375 1225.26464844 304.528320312 1223.1953125 260.588867188 c 1
 1217.36816406 260.86328125 1211.54199219 261.13671875 1205.71484375 261.411132812 c 1
 1211.34277344 380.91796875 1082.94238281 468.145507812 967.408203125 408.649414062 c 0
 885.024414062 366.225585938 836.63671875 248.94921875 887.752929688 141.141601562 c 0
 948.026367188 14.01953125 1126.54296875 -25.68359375 1249.45507812 83 c 0
 1322.26074219 147.377929688 1354.67773438 243.899414062 1341.45507812 377 c 0
 1330.37011719 488.578125 1298.11132812 595.54296875 1305.72753906 715.96875 c 0
 1315.27148438 866.895507812 1441.83496094 1041.99804688 1632.61035156 967.838867188 c 0
 1716.54882812 935.208007812 1791.92285156 839.681640625 1769.04589844 721.338867188 c 1
2258.28515625 1649.39746094 m 1
 2262.87597656 1645.79882812 2267.46777344 1642.20117188 2272.05859375 1638.60253906 c 1
 227.490234375 -970.397460938 l 1
 222.899414062 -966.798828125 218.307617188 -963.201171875 213.716796875 -959.602539062 c 1
 2258.28515625 1649.39746094 l 1
  Spiro
    2265.18 1644 v
    2272.06 1638.6 v
    227.491 -970.397 v
    220.603 -965 v
    213.716 -959.603 v
    2258.29 1649.4 v
    0 0 z
  EndSpiro
2144.56835938 1643.79785156 m 1
 2149.15917969 1640.19921875 2153.75097656 1636.6015625 2158.34179688 1633.00292969 c 1
 113.7734375 -975.997070312 l 1
 109.182617188 -972.3984375 104.590820312 -968.80078125 100 -965.202148438 c 1
 2144.56835938 1643.79785156 l 1
  Spiro
    2151.46 1638.4 v
    2158.35 1633 v
    113.774 -975.997 v
    106.887 -970.6 v
    99.9991 -965.202 v
    2144.57 1643.8 v
    0 0 z
  EndSpiro
EndSplineSet
Layer: 3
SplineSet
1760.45507812 723 m 4
 1769.74414062 771.052734375 1761.59863281 822.28125 1737.87792969 865.090820312 c 4
 1714.15722656 907.901367188 1675.05664062 941.950195312 1629.44042969 959.68359375 c 4
 1586.60449219 976.334960938 1538.36914062 978.543945312 1494.07910156 966.275390625 c 4
 1449.7890625 954.006835938 1409.81152344 927.443359375 1380.17578125 892.317382812 c 4
 1338.90722656 843.403320312 1318.49902344 779.286132812 1314.45996094 715.416992188 c 4
 1310.42089844 651.547851562 1321.46679688 587.75 1334.03613281 525 c 4
 1344.30078125 473.76171875 1355.52050781 422.586914062 1360.68652344 370.5859375 c 4
 1365.85253906 318.5859375 1364.78222656 265.528320312 1352.07324219 214.840820312 c 4
 1337.62109375 157.203125 1307.48242188 102.921875 1262.96777344 63.5595703125 c 4
 1218.45214844 24.1982421875 1159.87304688 0.673828125 1100.45507812 0 c 4
 1054.71484375 -0.5185546875 1008.90039062 12.2890625 970.065429688 36.4609375 c 4
 931.23046875 60.6337890625 899.444335938 96.0595703125 879.846679688 137.392578125 c 4
 864.51953125 169.717773438 856.62890625 205.61328125 857.556640625 241.375976562 c 4
 858.484375 277.138671875 868.313476562 312.737304688 886.578125 343.498046875 c 4
 904.842773438 374.258789062 931.59765625 400.05078125 963.40234375 416.428710938 c 4
 995.208007812 432.807617188 1031.9765625 439.592773438 1067.45507812 435 c 4
 1108.8359375 429.642578125 1148.05761719 408.565429688 1175.03710938 376.735351562 c 4
 1202.01660156 344.904296875 1216.41796875 302.680664062 1214.45507812 261 c 1028
  Spiro
    1760.46 723 {
    1629.44 959.683 o
    1380.18 892.317 o
    1334.04 525 o
    1352.08 214.841 o
    1100.46 0 o
    879.845 137.392 o
    1067.46 435 o
    1214.46 261 o
    0 0 z
  EndSpiro
EndSplineSet
EndChar

StartChar: ampersand
Encoding: 7 38 114
Width: 3025
VWidth: 0
Flags: HW
LayerCount: 6
Fore
SplineSet
2920.26464844 1638.40039062 m 1
 2925.18359375 1630.56640625 l 1
 2073.95507812 1096.10644531 1805.74609375 769.44921875 1603.00683594 481.506835938 c 1
 1539.19433594 157.329101562 1427.30273438 -90.71484375 1293.82226562 -264.180664062 c 0
 981.053710938 -670.639648438 543.760742188 -691.703125 293.911132812 -499.37890625 c 0
 72.96875 -329.307617188 2.2119140625 5.4541015625 288.936523438 377.645507812 c 1
 296.264648438 372 l 1
 303.592773438 366.354492188 l 1
 21.39453125 0.0400390625 93.501953125 -321.766601562 305.1953125 -484.71875 c 0
 545.840820312 -669.958007812 971.505859375 -652.7109375 1279.16015625 -252.8984375 c 0
 1405.04003906 -89.3115234375 1511.20898438 138.749023438 1576.28125 443.259765625 c 1
 1418.26464844 198.796875 934.264648438 -228 735.752929688 147.560546875 c 0
 621.362304688 363.975585938 799.734375 782.153320312 1644.97167969 1211.65820312 c 1
 1616.26464844 2164 2074.31542969 2472.28027344 2388.92871094 2474.20507812 c 0
 2560.203125 2475.25390625 2695.82128906 2371.54003906 2696.85351562 2199.92675781 c 0
 2698.30175781 1959.29980469 2437.08789062 1593.19140625 1663.55957031 1200.34179688 c 1
 1662.41699219 945.0703125 1646.26855469 736 1622.26464844 585 c 1
 1816.31933594 855.80078125 2093.22460938 1130.04980469 2915.34570312 1646.234375 c 1
 2920.26464844 1638.40039062 l 1
1596.67773438 548.9296875 m 1
 1627.26464844 725 1643.53320312 922.642578125 1645.11914062 1190.97265625 c 1
 806.049804688 762.5703125 644.245117188 352.618164062 752.375976562 155.686523438 c 0
 954.264648438 -212 1411.33300781 282.000976562 1596.67773438 548.9296875 c 1
1663.42578125 1221.03125 m 1
 2428.34375 1611.08886719 2678.87304688 1971.70800781 2678.35839844 2198.65429688 c 0
 2677.99609375 2358.63476562 2553.96289062 2456.14257812 2390.45800781 2455.71191406 c 0
 2091.4765625 2454.92480469 1658.26464844 2010 1663.42578125 1221.03125 c 1
EndSplineSet
Layer: 3
SplineSet
2920.26464844 1638.40039062 m 4
 1822.26464844 949 1680.02441406 586.346679688 1438.26464844 264 c 4
 934.264648438 -408 -1.798828125 367.325195312 1654.26464844 1206 c 4
 3988.26464844 2388 1636.26464844 3318 1654.26464844 1206 c 4
 1676.79492188 -1437.52832031 -535.735351562 -708 296.264648438 372 c 1028
EndSplineSet
EndChar

StartChar: cent
Encoding: 79 162 116
Width: 2125
VWidth: 0
Flags: HW
LayerCount: 6
Fore
SplineSet
1294.89648438 1500 m 1
 1287.98730469 1505.36914062 l 1
 1298.984375 1519.52148438 1309.03222656 1533.21582031 1318.16601562 1546.44824219 c 0
 1412.92089844 1683.70507812 1407.3359375 1766.53710938 1356.52050781 1801.57226562 c 0
 1246.22753906 1877.61523438 893.912109375 1754.54199219 642.114257812 1387.0546875 c 0
 610.87890625 1341.46777344 583.682617188 1295.89648438 560.659179688 1250.94140625 c 0
 420.57421875 977.4140625 436.040039062 731.177734375 626.877929688 633.6484375 c 0
 787.563476562 551.530273438 1354.37988281 689.958984375 1839.70214844 1390.98046875 c 1
 1846.89648438 1386 l 1
 1854.09082031 1381.01953125 l 1
 1367.41308594 678.041015625 794.229492188 528.469726562 618.915039062 618.06640625 c 0
 414.552734375 722.505859375 403.821289062 983.092773438 545.083007812 1258.91894531 c 0
 568.467773438 1304.57910156 596.046875 1350.78027344 627.678710938 1396.9453125 c 0
 879.986328125 1765.17871094 1240.15136719 1903.05957031 1366.45410156 1815.98046875 c 0
 1430.91503906 1771.53613281 1427.63378906 1674.21484375 1332.56835938 1536.50585938 c 0
 1323.23242188 1522.98242188 1312.99023438 1509.02441406 1301.80566406 1494.63085938 c 1
 1294.89648438 1500 l 1
106.896484375 0 m 1
 100 5.3857421875 l 1
 2011.66210938 2453.38574219 l 1
 2018.55859375 2448 l 1
 2025.45507812 2442.61425781 l 1
 113.79296875 -5.3857421875 l 1
 106.896484375 0 l 1
EndSplineSet
Layer: 3
SplineSet
1294.89648438 1500 m 5
 1653.89648438 1962 1021.70800781 1956.53613281 634.896484375 1392 c 4
 412.896484375 1068 392.703125 743.499023438 622.896484375 625.857421875 c 4
 790.896484375 540 1360.89648438 684 1846.89648438 1386 c 1028
106.896484375 0 m 29
 2018.55859375 2448 l 1053
EndSplineSet
EndChar

StartChar: at
Encoding: 25 64 117
Width: 2711
VWidth: 0
Flags: HW
LayerCount: 6
Fore
SplineSet
1683.26855469 615 m 1
 1659.26855469 612 l 1
 1408.56152344 297.623046875 l 2
 1318.26855469 184 1247.72265625 66.115234375 1309.91894531 14.896484375 c 0
 1408.09960938 -65.9541015625 2334.26855469 154 2341.95605469 563.907226562 c 0
 2345.25683594 739.876953125 2099.06640625 975.49609375 1334.88476562 975.49609375 c 3
 -299.731445312 975.49609375 -296.936523438 -500.748046875 1256.46582031 -500.748046875 c 7
 1898.12402344 -500.748046875 2239.09960938 -269.299804688 2611.30664062 -7.1533203125 c 1
 2606.26855469 0 l 1
 2601.23046875 7.1533203125 l 1
 2229.4375 -254.700195312 1893.47460938 -483.251953125 1256.07128906 -483.251953125 c 3
 -279.947265625 -483.251953125 -265.737304688 958 1335.26855469 958 c 3
 2077.26953125 958 2325.375 732.33203125 2324.45605469 563.916015625 c 0
 2322.37207031 181.999023438 1409.26855469 -43 1323.04394531 29.40625 c 0
 1271.38769531 72.7841796875 1336.09472656 175.186523438 1424.10742188 285.541992188 c 2
 1683.26855469 615 l 1
EndSplineSet
Refer: 53 -1 N 0.75 0 0 0.75 624.269 1 2
Layer: 3
SplineSet
1678.26855469 614 m 5
 1421.26855469 292 l 6
 979.897460938 -209.271484375 1966.26855469 18 2288.26855469 409.599609375 c 4
 2336.24023438 467.940429688 2544.26855469 975 1374.26855469 975 c 4
 168.342773438 975 -364.21484375 -528.517578125 1256.26855469 -492 c 4
 1895.63671875 -477.591796875 2234.26855469 -262 2606.26855469 0 c 1029
EndSplineSet
Refer: 53 -1 S 0.75 0 0 0.75 690.437 0.349718 2
EndChar

StartChar: hyphen
Encoding: 10 45 118
Width: 1142
VWidth: 0
Flags: HW
LayerCount: 6
Fore
SplineSet
100 418.349609375 m 1
 1042 418.349609375 l 1
 1042 412.516601562 1042 406.682617188 1042 400.849609375 c 1
 100 400.849609375 l 1
 100 406.682617188 100 412.516601562 100 418.349609375 c 1
EndSplineSet
EndChar

StartChar: b_e
Encoding: 127 -1 120
Width: 845
VWidth: 0
Flags: HW
VStem: 108.123 19<518.366 706>
AnchorPoint: "Cursive 1" 740.123 418 exit 0
AnchorPoint: "Cursive 1" 186.123 779 entry 0
LayerCount: 6
Back
Refer: 141 -1 S 1 0 0 1 317.123 0 2
Refer: 137 -1 N 1 0 0 1 -321.877 0 2
Fore
SplineSet
108.123046875 708 m 1
 127.123046875 706 l 1
 68.4306640625 373.134765625 344.545898438 201.5 735.123046875 427 c 1
 745.123046875 410 l 1
 340.123046875 176 46.771484375 360.057617188 108.123046875 708 c 1
EndSplineSet
Comment: "It is for final part of b and v before e."
Colour: ff1c2e
EndChar

StartChar: b_c
Encoding: 128 -1 121
Width: 1118
VWidth: 0
Flags: HW
HStem: 799.487 20G<664.672 805.172>
AnchorPoint: "Cursive 1" 1012.17 812 exit 0
AnchorPoint: "Cursive 1" 117.172 781 entry 0
LayerCount: 6
Back
Refer: 137 -1 S 1 0 0 1 112.172 0 2
Fore
SplineSet
115.171875 796 m 1
 115.171875 796 70.171875 738 135.171875 736.107421875 c 0
 278.126953125 731.9453125 805.58984375 735 856.171875 735 c 0
 924.171875 735 960.171875 773 1018.171875 805 c 1
 1006.171875 819 l 1
 952.171875 781 914.171875 756 855.171875 754 c 0
 805.344726562 752.311523438 281.88671875 754.610351562 136.171875 754.922851562 c 0
 100.171875 755 132.171875 789 132.171875 789 c 1
 115.171875 796 l 1
EndSplineSet
Comment: "It is for final part of b and v before c."
Colour: ff3829
EndChar

StartChar: b_a
Encoding: 129 -1 122
Width: 1068
VWidth: 0
Flags: HW
VStem: 100 861
AnchorPoint: "Cursive 1" 971 819 exit 0
AnchorPoint: "Cursive 1" 108 781 entry 0
LayerCount: 6
Back
Refer: 160 -1 S 1 0 0 1 59 0 2
Refer: 137 -1 N 1 0 0 1 278 0 2
Fore
SplineSet
100 776 m 1
 116 786 l 1
 214 632 564 619 961 779 c 1
 968 761 l 1
 551 592 198 619 100 776 c 1
EndSplineSet
Comment: "It is for final part of glyph like b before glyph like a."
Colour: ff212e
EndChar

StartChar: f_a
Encoding: 130 -1 123
Width: 1566
VWidth: 0
Flags: HW
HStem: 0 19<100 183.911>
AnchorPoint: "Cursive 1" 1750 819 exit 0
AnchorPoint: "Cursive 1" 101 9 entry 0
LayerCount: 6
Back
Refer: 160 -1 S 1 0 0 1 838 0 2
Refer: 143 -1 N 1 0 0 1 1295 -157 2
Refer: 138 -1 N 1 0 0 1 100 0 2
Fore
SplineSet
1454 662 m 1
 1115.15527344 397.265625 432 19 100 19 c 9
 100 0 l 17
 441 0 1127.80957031 382.776367188 1466 647 c 1
 1454 662 l 1
EndSplineSet
Comment: "It is final part of s before glyph like a."
Colour: ff3330
EndChar

StartChar: f_e
Encoding: 131 -1 124
Width: 1370
VWidth: 0
Flags: HW
HStem: 0 19<100.068 199.691> 798.953 20G<1292.78 1527>
AnchorPoint: "Cursive 1" 1265 418 exit 0
AnchorPoint: "Cursive 1" 101 9 entry 0
LayerCount: 6
Back
Refer: 141 -1 S 1 0 0 1 842 0 2
Refer: 139 -1 N 1 0 0 1 100 0 2
Fore
SplineSet
1260 427 m 1
 907.915039062 203.560546875 362 21 100 20 c 13
 100 1 l 17
 361 0 915 185 1270 410 c 1
 1260 427 l 1
EndSplineSet
Comment: "It is final part of s before e."
Colour: ff4c4c
EndChar

StartChar: f_m
Encoding: 132 -1 125
Width: 1015
VWidth: 0
Flags: HW
HStem: 0 19<100 195.248>
VStem: 100 803
AnchorPoint: "Cursive 1" 909 418 exit 0
AnchorPoint: "Cursive 1" 101 9 entry 0
LayerCount: 6
Back
Refer: 143 -1 S 1 0 0 1 744 -394 2
Refer: 139 -1 N 1 0 0 1 100 0 2
Fore
SplineSet
903 425 m 1
 592 201 356 19 100 19 c 9
 100 0 l 17
 361 0 599 181 915 410 c 1
 903 425 l 1
EndSplineSet
Comment: "It is final part of s before glyph like v."
Colour: ff4763
EndChar

StartChar: g_e..
Encoding: 126 -1 126
Width: 2917
VWidth: 0
Flags: HW
AnchorPoint: "Cursive 1" 2799.49 410 exit 0
AnchorPoint: "Cursive 1" 133.494 -1620 entry 0
LayerCount: 6
Back
Refer: 140 -1 S 1 0 0 1 2092.49 671 2
Refer: 142 -1 S 1 0 0 1 787.494 0 2
Refer: 141 -1 S 1 0 0 1 2388.49 0 2
Fore
SplineSet
127.494140625 -1627 m 1
 62.1279296875 -1584.55078125 108.51953125 -1418.68945312 318.494140625 -1153 c 0
 561.494140625 -846 1007.73925781 -442.493164062 1582.49414062 -24 c 0
 1902.49414062 209 2334.49414062 152 2807.49414062 427 c 1
 2817.49414062 410 l 1
 2339.49414062 134 1912.49414062 191 1592.49414062 -41 c 0
 1003.140625 -468.28125 561.670898438 -878.142578125 333.494140625 -1165 c 0
 138.647460938 -1409.95605469 84.98046875 -1576.59863281 139.494140625 -1612 c 1
 127.494140625 -1627 l 1
EndSplineSet
Layer: 5
SplineSet
2194.49414062 819 m 5
 2209.49414062 807 l 5
 1124.49414062 -746 l 6
 919.540039062 -1039.16699219 730.008789062 -1255.57128906 568.494140625 -1401 c 4
 350.693359375 -1597.10839844 189.178710938 -1667.05859375 127.494140625 -1627 c 4
 62.1279296875 -1584.55078125 108.51953125 -1418.68945312 318.494140625 -1153 c 4
 561.494140625 -846 1007.73925781 -442.493164062 1582.49414062 -24 c 0
 1902.49414062 209 2334.49414062 152 2807.49414062 427 c 1
 2817.49414062 410 l 1
 2339.49414062 134 1912.49414062 191 1592.49414062 -41 c 0
 1003.140625 -468.28125 561.670898438 -878.142578125 333.494140625 -1165 c 4
 138.647460938 -1409.95605469 84.98046875 -1576.59863281 139.494140625 -1612 c 4
 181.427734375 -1639.23242188 327.229492188 -1592.1171875 555.494140625 -1386.58691406 c 4
 708.366210938 -1248.94042969 895.536132812 -1039.45019531 1108.49414062 -735 c 6
 2194.49414062 819 l 5
EndSplineSet
Comment: "It is final part of glyphs like 'j' before 'e'."
Colour: ff2b33
EndChar

StartChar: g_p
Encoding: 134 -1 127
Width: 3065
VWidth: 0
Flags: HW
AnchorPoint: "Cursive 1" 2959 812 exit 0
AnchorPoint: "Cursive 1" 128.002 -1620 entry 0
LayerCount: 6
Back
Refer: 143 -1 S 1 0 0 1 2794 0 2
Refer: 142 -1 S 1 0 0 1 883.002 0 2
Fore
SplineSet
122.001953125 -1627 m 1
 12.974609375 -1556.19726562 320.571289062 -1068.61621094 792.001953125 -629 c 4
 1741.29882812 256.233398438 2338.74121094 265.916992188 2953.00195312 819 c 5
 2965.00195312 804 l 5
 2350.24316406 250.46875 1752.10546875 240.1875 805.001953125 -643 c 4
 316.458007812 -1098.57519531 50.134765625 -1557.53613281 134.001953125 -1612 c 1
 122.001953125 -1627 l 1
EndSplineSet
Layer: 5
SplineSet
122.001953125 -1627 m 4
 183.686523438 -1667.05859375 345.201171875 -1597.10839844 563.001953125 -1401 c 4
 724.516601562 -1255.57128906 914.047851562 -1039.16699219 1119.00195312 -746 c 6
 2204.00195312 807 l 5
 2189.00195312 819 l 5
 1103.00195312 -735 l 6
 890.043945312 -1039.45019531 702.874023438 -1248.94042969 550.001953125 -1386.58691406 c 4
 321.737304688 -1592.1171875 175.935546875 -1639.23242188 134.001953125 -1612 c 4
 50.134765625 -1557.53613281 316.458007812 -1098.57519531 805.001953125 -643 c 4
 1752.10546875 240.1875 2350.24316406 250.46875 2965.00195312 804 c 5
 2953.00195312 819 l 5
 2338.74121094 265.916992188 1741.29882812 256.233398438 792.001953125 -629 c 4
 320.571289062 -1068.61621094 12.974609375 -1556.19726562 122.001953125 -1627 c 4
EndSplineSet
Refer: 57 -1 S 1 0 0 1 782.002 0 2
Refer: 76 -1 S 1 0 0 1 782.002 0 2
Comment: "It is final part of glyphs like 'j' before glyphs like 's'."
Colour: ff171a
EndChar

StartChar: g_a
Encoding: 135 -1 128
Width: 3361
VWidth: 0
Flags: HW
HStem: 800 20G<2211.84 2851.1>
AnchorPoint: "Cursive 1" 3257.58 819 exit 0
AnchorPoint: "Cursive 1" 132.578 -1620 entry 0
LayerCount: 6
Back
Refer: 160 -1 S 1 0 0 1 2345.58 0 2
Refer: 142 -1 N 1 0 0 1 787.578 0 2
Fore
SplineSet
127.578125 -1627 m 5
 62.2119140625 -1584.55078125 108.09375 -1417.61523438 318.578125 -1153 c 0
 771.768554688 -583.26171875 1950.43945312 430.752929688 3257.578125 781 c 1
 3261.578125 762 l 1
 1963.37402344 414.147460938 785.5234375 -596.826171875 333.578125 -1165 c 0
 133.750976562 -1416.21679688 85.9033203125 -1577.14355469 139.578125 -1612 c 5
 127.578125 -1627 l 5
EndSplineSet
Layer: 5
SplineSet
127.578125 -1627 m 4
 189.262695312 -1667.05859375 350.77734375 -1597.10839844 568.578125 -1401 c 4
 730.09375 -1255.57128906 919.624023438 -1039.16699219 1124.578125 -746 c 6
 2209.578125 807 l 5
 2194.578125 819 l 5
 1108.578125 -735 l 6
 895.620117188 -1039.45019531 708.450195312 -1248.94042969 555.578125 -1386.58691406 c 4
 327.313476562 -1592.1171875 181.51171875 -1639.23242188 139.578125 -1612 c 4
 85.9033203125 -1577.14355469 133.750976562 -1416.21679688 333.578125 -1165 c 4
 785.5234375 -596.826171875 1963.37402344 414.147460938 3261.578125 762 c 5
 3257.578125 781 l 5
 1950.43945312 430.752929688 771.768554688 -583.26171875 318.578125 -1153 c 4
 108.09375 -1417.61523438 62.2119140625 -1584.55078125 127.578125 -1627 c 4
EndSplineSet
Comment: "It is final part of glyphs like 'j' before glyphs like 'a'."
Colour: ff3324
EndChar

StartChar: g_t
Encoding: 136 -1 129
Width: 3085
VWidth: 0
Flags: HW
HStem: 800 20G<2212.68 2851.94>
AnchorPoint: "Cursive 1" 2978.42 812 exit 0
AnchorPoint: "Cursive 1" 133.42 -1620 entry 0
LayerCount: 6
Back
Refer: 140 -1 S 1 0 0 1 2655.42 397 2
Refer: 142 -1 N 1 0 0 1 788.42 0 2
Fore
SplineSet
128.419921875 -1627 m 1
 61.419921875 -1585 108.13671875 -1419.57324219 319.419921875 -1153 c 0
 1485.05957031 317.670898438 2485.41992188 200 2970.41992188 819 c 1
 2985.41992188 807 l 5
 2503.20605469 187.569335938 1494.10351562 299.155273438 334.419921875 -1164 c 0
 133.224609375 -1417.84570312 83.419921875 -1573 139.419921875 -1612 c 1
 128.419921875 -1627 l 1
EndSplineSet
Layer: 5
SplineSet
2196.41992188 819.200195312 m 5
 2218.41992188 819 l 5
 1124.41992188 -746 l 6
 348.66796875 -1857.66308594 -237.196289062 -1852.50390625 319.419921875 -1153.46875 c 4
 1488.41992188 314.63671875 2484.41992188 210 2969.41992188 819.200195312 c 5
 3000.41992188 819.200195312 l 5
 2526.41992188 198 1479.41992188 280 334.419921875 -1164.24121094 c 4
 -210.55859375 -1851.6484375 362.936523438 -1802.328125 1109.41992188 -735 c 6
 2196.41992188 819.200195312 l 5
EndSplineSet
Comment: "it was final part of 'j' before 't'."
Colour: ff262e
EndChar

StartChar: g_
Encoding: 137 -1 130
Width: 3079
VWidth: 0
Flags: HW
AnchorPoint: "Cursive 1" 2980.56 819 exit 0
AnchorPoint: "Cursive 1" 133.556 -1620 entry 0
LayerCount: 6
Back
Refer: 142 -1 S 1 0 0 1 787.555 0 2
Fore
SplineSet
127.555664062 -1627 m 5
 62.189453125 -1584.55078125 108.209960938 -1418.38964844 318.555664062 -1153 c 4
 731.618164062 -631.84375 1566.66894531 72.5400390625 2970.55566406 819 c 5
 2979.55566406 802 l 5
 1575.66894531 55.5400390625 746.905273438 -645.348632812 333.555664062 -1165 c 4
 138.708007812 -1409.95605469 85.0419921875 -1576.59863281 139.555664062 -1612 c 5
 127.555664062 -1627 l 5
EndSplineSet
Layer: 5
SplineSet
2979.55566406 802 m 5
 2970.55566406 819 l 5
 1566.66894531 72.5400390625 731.618164062 -631.84375 318.555664062 -1153 c 4
 108.209960938 -1418.38964844 62.189453125 -1584.55078125 127.555664062 -1627 c 4
 189.239257812 -1667.05859375 350.75390625 -1597.10839844 568.555664062 -1401 c 4
 730.0703125 -1255.57128906 919.600585938 -1039.16699219 1124.55566406 -746 c 6
 2209.55566406 807 l 5
 2194.55566406 819 l 5
 1108.55566406 -735 l 6
 895.596679688 -1039.45019531 708.427734375 -1248.94042969 555.555664062 -1386.58691406 c 4
 327.291015625 -1592.1171875 181.48828125 -1639.23242188 139.555664062 -1612 c 4
 85.0419921875 -1576.59863281 138.708007812 -1409.95605469 333.555664062 -1165 c 4
 746.905273438 -645.348632812 1575.66894531 55.5400390625 2979.55566406 802 c 5
EndSplineSet
Substitution2: "* +- [o]" g_o
Substitution2: "* +- [e]" g_e..
Substitution2: "* +- [t]" g_b
Substitution2: "* +- [m, n, v, x, y, z] - 1" g_m
Substitution2: "* +- [a, d, g, q]" g_a
Substitution2: "* +- [p, r, s]" g_p
Substitution2: "* +- [b, f, h, k, l]" g_b
Substitution2: "* +- [i, j, u, w]" g_i
Substitution2: "* +- [c]" g_c
Comment: "It is default final part of glyphs like g. "
Colour: ff3845
EndChar

StartChar: g_o
Encoding: 138 -1 131
Width: 3189
VWidth: 0
Flags: HW
AnchorPoint: "Cursive 1" 3163.56 819 exit 0
AnchorPoint: "Cursive 1" 133.556 -1620 entry 0
LayerCount: 6
Back
Refer: 137 -1 N 1 0 0 1 787.555 0 2
Refer: 142 -1 N 1 0 0 1 787.555 0 2
Fore
SplineSet
127.555664062 -1627 m 1
 62.189453125 -1584.55078125 108.209960938 -1418.38964844 318.555664062 -1153 c 0
 868.271484375 -459.431640625 1806.24609375 230.1953125 3081.55566406 798 c 1
 3089.55566406 780 l 1
 1812.41894531 211.381835938 883.858398438 -473.174804688 333.555664062 -1165 c 0
 138.708007812 -1409.95605469 85.0419921875 -1576.59863281 139.555664062 -1612 c 1
 127.555664062 -1627 l 1
EndSplineSet
Layer: 5
SplineSet
3089.55566406 780 m 5
 3081.55566406 798 l 5
 1806.24609375 230.1953125 868.271484375 -459.431640625 318.555664062 -1153 c 4
 108.209960938 -1418.38964844 62.189453125 -1584.55078125 127.555664062 -1627 c 4
 189.239257812 -1667.05859375 350.75390625 -1597.10839844 568.555664062 -1401 c 4
 730.0703125 -1255.57128906 919.600585938 -1039.16699219 1124.55566406 -746 c 6
 2209.55566406 807 l 5
 2194.55566406 819 l 5
 1108.55566406 -735 l 6
 895.596679688 -1039.45019531 708.427734375 -1248.94042969 555.555664062 -1386.58691406 c 4
 327.291015625 -1592.1171875 181.48828125 -1639.23242188 139.555664062 -1612 c 4
 85.0419921875 -1576.59863281 138.708007812 -1409.95605469 333.555664062 -1165 c 4
 883.858398438 -473.174804688 1812.41894531 211.381835938 3089.55566406 780 c 5
EndSplineSet
Comment: "It is final part of glyphs like j before o."
Colour: ff292e
EndChar

StartChar: o_c
Encoding: 140 -1 132
Width: 1429
VWidth: 0
Flags: HW
HStem: 735 19<134.995 1218.98>
AnchorPoint: "Cursive 1" 1324 811 exit 0
AnchorPoint: "Cursive 1" 105 781 entry 0
LayerCount: 6
Back
Refer: 164 -1 S 1 0 0 1 -358 0 2
Refer: 137 -1 N 1 0 0 1 -358 0 2
Fore
SplineSet
100 772 m 1
 100 772 123.94921875 736.107421875 159 736.107421875 c 3
 300.00390625 736.107421875 1116.41796875 735 1167 735 c 3
 1232 735 1272.82519531 767.8984375 1329 803 c 1
 1318 819 l 1
 1262.00292969 784.009765625 1226.03417969 754 1167 754 c 3
 1117.14453125 754 299 754.922851562 160 754.922851562 c 3
 133 754.922851562 115 783 115 783 c 1
 100 772 l 1
EndSplineSet
Comment: "It is for final part of o before c."
Colour: ff1414
EndChar

StartChar: b_b
Encoding: 141 -1 133
Width: 979
VWidth: 0
Flags: HW
HStem: 605 19<260.717 452.385>
VStem: 100.273 17<729.98 781>
AnchorPoint: "Cursive 1" 873.273 812 exit 0
AnchorPoint: "Cursive 1" 111.273 781 entry 0
LayerCount: 6
Back
Refer: 143 -1 S 1 0 0 1 708.273 0 2
Refer: 137 -1 N 1 0 0 1 143.273 0 2
Fore
SplineSet
100.2734375 781 m 1
 117.2734375 781 l 1
 111.252929688 678.151367188 214.274414062 620.9375 362.2734375 624 c 0
 507.2734375 627 699.84375 687.947265625 867.2734375 819 c 1
 879.2734375 804 l 1
 711.063476562 672.400390625 515.2734375 608 362.2734375 605 c 0
 206.2734375 602 93.705078125 663.2734375 100.2734375 781 c 1
EndSplineSet
Comment: "It is for final part of glyph like b before glyp like b, l and etc."
Colour: ff242b
EndChar

StartChar: Guid.Numbers
Encoding: 176 -1 134
Width: 200
VWidth: 0
Flags: HW
LayerCount: 6
Back
SplineSet
-300 810 m 29
 1700 810 l 1053
-300 0 m 29
 1700 0 l 1053
-300 162 m 29
 1700 162 l 1053
-300 324 m 29
 1700 324 l 1053
-300 486 m 29
 1700 486 l 1053
-300 648 m 29
 1700 648 l 1053
-300 972 m 29
 1700 972 l 1053
EndSplineSet
EndChar

StartChar: Guid.p_q
Encoding: 177 -1 135
Width: 200
VWidth: 0
Flags: HW
LayerCount: 6
Back
SplineSet
-3996 -968 m 1
 8292 -968 l 1025
  Named: "p and q "
EndSplineSet
EndChar

StartChar: Guid.r_s
Encoding: 178 -1 136
Width: 200
VWidth: 0
Flags: HW
LayerCount: 6
Back
SplineSet
-3996 949 m 1
 8292 949 l 1025
  Named: "r and s"
EndSplineSet
EndChar

StartChar: Guid.b_v_w_o_m_n
Encoding: 179 -1 137
Width: 200
VWidth: 0
Flags: HW
LayerCount: 6
Back
SplineSet
-3996 781 m 1
 8292 781 l 1029
  Named: "final part of b, v, w, and o"
EndSplineSet
EndChar

StartChar: Guid.a_d_g_q
Encoding: 180 -1 138
Width: 200
VWidth: 0
Flags: HW
LayerCount: 6
Back
SplineSet
-3996 647 m 4
 8292 647 l 1028
  Named: "[+AH4A-a] +- [+AH4A-a]"
EndSplineSet
EndChar

StartChar: Guid.Middle_lowercase
Encoding: 181 -1 139
Width: 200
VWidth: 0
Flags: HW
LayerCount: 6
Back
SplineSet
-3996 410 m 4
 8292 410 l 1028
  Named: "Middle"
EndSplineSet
EndChar

StartChar: Guid.General1
Encoding: 182 -1 140
Width: 200
VWidth: 0
Flags: HW
LayerCount: 6
Back
SplineSet
209 143 m 29
 211 143 l 1053
210 144 m 29
 210 142 l 1053
202 148 m 29
 217 136 l 1053
EndSplineSet
EndChar

StartChar: Guid.e
Encoding: 183 -1 141
Width: 200
VWidth: 0
Flags: HW
LayerCount: 6
Back
SplineSet
521 418 m 25
 525 418 l 1049
523 420 m 25
 523 416 l 1049
518 427 m 25
 528 410 l 1033
EndSplineSet
EndChar

StartChar: Guid.g_j
Encoding: 184 -1 142
Width: 200
VWidth: 0
Flags: HW
LayerCount: 6
Back
SplineSet
-556 -1620 m 25
 -552 -1620 l 1049
-554 -1618 m 25
 -554 -1622 l 1049
-548 -1612 m 25
 -560 -1627 l 1049
-212 -960 m 25
 -212 -978 l 1049
-368 -960 m 25
 -368 -978 l 1049
-56 -978 m 25
 -56 -960 l 25
 -56 -978 l 25
-524 -960 m 25
 -524 -978 l 1049
256 -960 m 25
 256 -978 l 1049
100 -960 m 25
 100 -978 l 1049
EndSplineSet
EndChar

StartChar: Guid.General2
Encoding: 185 -1 143
Width: 200
VWidth: 0
Flags: HW
LayerCount: 6
Back
SplineSet
265 813 m 29
 265 811 l 1053
264 812 m 29
 266 812 l 1053
259 819 m 25
 271 804 l 1049
EndSplineSet
EndChar

StartChar: b_p
Encoding: 142 -1 144
Width: 970
VWidth: 0
Flags: HW
HStem: 799.487 20G<503.5 644>
AnchorPoint: "Cursive 1" 864 812 exit 0
AnchorPoint: "Cursive 1" 155 781 entry 0
LayerCount: 6
Back
Refer: 154 -1 N 1 0 0 1 -844 0 2
Refer: 143 -1 N 1 0 0 1 698 0 2
Refer: 137 -1 N 1 0 0 1 -534 0 2
Fore
SplineSet
100 730 m 1
 130 644 249 600 368 600 c 0
 523 600 715 666 870 804 c 1
 858 819 l 1
 711 686 516 620 368 619 c 0
 266 618 146 657 118 738 c 1
 100 730 l 1
EndSplineSet
Comment: "It is final part of glyph like b before s."
Colour: ff2b3d
EndChar

StartChar: P116.1
Encoding: 143 -1 145
Width: 894
VWidth: 0
Flags: HW
HStem: 819.2 21G<646 694.5>
VStem: -185 19<186.301 214>
AnchorPoint: "Cursive 1" 99 9 exit 0
AnchorPoint: "Cursive 1" 650 812 entry 0
LayerCount: 6
Back
Refer: 143 -1 S 1 0 0 1 485 0 2
Fore
SplineSet
100 0 m 1
 197 0 310.6640625 53.3583984375 418 188.728515625 c 0
 541.5234375 344.513671875 577 551 794 938 c 1
 778 949 l 1
 778 949 737.64453125 900.403320312 644 819 c 5
 644 817 l 25
 654 804 l 25
 656 804 l 1
NamedP: "41 degree"
 704.075195312 845.791015625 743 882 743 882 c 1
 553 529 518.607421875 345.915039062 402 200.1875 c 0
 298.204101562 70.4697265625 190 19 100 19 c 1
 100 0 l 1
EndSplineSet
MultipleSubs2: "'ccmp' [s] +- *" s.0 f_
Comment: "It is final part 's' when there are not any glyphs after it."
Colour: d1408c
EndChar

StartChar: Guid.r_u_v_w_y_z_m_n
Encoding: 186 -1 146
Width: 200
VWidth: 0
Flags: HW
LayerCount: 6
Back
SplineSet
478 779 m 29
 478 783 l 1053
474 781 m 25
 481 781 l 1049
475 789 m 25
 482 772 l 1049
EndSplineSet
EndChar

StartChar: o_a
Encoding: 144 -1 147
Width: 1290
VWidth: 0
Flags: HW
AnchorPoint: "Cursive 1" 1191 819 exit 0
AnchorPoint: "Cursive 1" 107 781 entry 0
LayerCount: 6
Back
Refer: 160 -1 S 1 0 0 1 279 0 2
Refer: 150 -1 N 1 0 0 1 -517 0 2
Refer: 137 -1 N 1 0 0 1 -523 0 2
Fore
SplineSet
100 771 m 1
 116 782 l 1
 170 698 821 678 1185 780 c 1
 1190 761 l 1
 821 660 162 674 100 771 c 1
EndSplineSet
Comment: "It is final part of o before glyph like a."
Colour: ff4552
EndChar

StartChar: o_b
Encoding: 145 -1 148
Width: 1074
VWidth: 0
Flags: HW
HStem: 799.487 20G<509.5 650>
AnchorPoint: "Cursive 1" 968 811 exit 0
AnchorPoint: "Cursive 1" 100 781 entry 0
LayerCount: 6
Back
Refer: 154 -1 S 1 0 0 1 -528 0 2
Refer: 137 -1 N 1 0 0 1 -528 0 2
Fore
SplineSet
100 765 m 1
 117 774 l 1
 173 657 332 624 457 624 c 0
 602 624 795 688 962 819 c 1
 974 804 l 1
 806 672 610 605 457 605 c 0
 322 605 163 639 100 765 c 1
EndSplineSet
Comment: "It is final part of o before glyphs like h."
Colour: ff1442
EndChar

StartChar: o_e
Encoding: 146 -1 149
Width: 918
VWidth: 0
Flags: HW
HStem: 799.487 20G<14.9948 155.495>
AnchorPoint: "Cursive 1" 813.495 418 exit 0
AnchorPoint: "Cursive 1" 86.4951 781 entry 0
LayerCount: 6
Back
Refer: 141 -1 S 1 0 0 1 390.495 0 2
Refer: 150 -1 N 1 0 0 1 -537.505 0 2
Refer: 137 -1 N 1 0 0 1 -537.505 0 2
Fore
SplineSet
100.495117188 706 m 1
 119.495117188 706 l 5
 104.881835938 371.318359375 417.051757812 201 808.495117188 427 c 1
 818.495117188 410 l 1
 413.495117188 176 85.4951171875 357.243164062 100.495117188 706 c 1
EndSplineSet
Comment: "It is final part of o before e."
Colour: ff3045
EndChar

StartChar: Guid.o
Encoding: 187 -1 150
Width: 200
VWidth: 0
Flags: HW
AnchorPoint: "Cursive 1" 724 781 exit 0
LayerCount: 6
Back
SplineSet
724 785 m 29
 724 776 l 1053
703 781 m 29
 739 781 l 1053
734 787 m 29
 734 773 l 1053
707 774 m 29
 707 788 l 1053
EndSplineSet
EndChar

StartChar: o_i
Encoding: 147 -1 151
Width: 1077
VWidth: 0
Flags: HW
HStem: 665 19<277.578 516.19>
VStem: 100 870
AnchorPoint: "Cursive 1" 973 812 exit 0
AnchorPoint: "Cursive 1" 97 781 entry 0
LayerCount: 6
Back
Refer: 150 -1 S 1 0 0 1 -527 0 2
Refer: 137 -1 N 1 0 0 1 -527 0 2
Fore
SplineSet
115 778 m 1
 161.564453125 716.516601562 257 684 389 684 c 0
 546 684 751.172851562 730.184570312 970 819 c 1
 977 801 l 1
 754.930664062 711.000976562 549 665 389 665 c 0
 255 665 154.375 696.088867188 100 766 c 1
 115 778 l 1
EndSplineSet
Comment: "It is final part of o before glyphs like j and u."
Colour: ff3d40
EndChar

StartChar: o_m
Encoding: 148 -1 152
Width: 874
VWidth: 0
Flags: HW
AnchorPoint: "Cursive 1" 770 781 exit 0
AnchorPoint: "Cursive 1" 99 781 entry 0
LayerCount: 6
Back
Refer: 150 -1 S 1 0 0 1 -525 0 2
Refer: 146 -1 N 1 0 0 1 392 0 2
Refer: 137 -1 N 1 0 0 1 -531 0 2
Fore
SplineSet
767 789 m 1
 661 749 492.928710938 694.684570312 403 685 c 0
 338 678 209 666 115 772 c 1
 100 760 l 1
 201 645 337.962890625 659.362304688 405 666 c 0
 506 676 662 731 774 772 c 1
 767 789 l 1
EndSplineSet
Comment: "It is final part of o before glyphs like m and v."
Colour: ff3333
EndChar

StartChar: o_p
Encoding: 149 -1 153
Width: 970
VWidth: 0
Flags: HW
HStem: 799.487 20G<496.5 637>
AnchorPoint: "Cursive 1" 89 781 entry 0
AnchorPoint: "Cursive 1" 863 812 exit 0
LayerCount: 6
Back
Refer: 143 -1 N 1 0 0 1 691 0 2
Refer: 150 -1 S 1 0 0 1 -535 0 2
Refer: 137 -1 N 1 0 0 1 -541 0 2
Fore
SplineSet
100 730 m 1
 130 644 249 600 368 600 c 0
 523 600 715 666 870 804 c 1
 858 819 l 1
 711 686 516 620 368 619 c 0
 266 618 146 657 118 738 c 1
 100 730 l 1
EndSplineSet
Comment: "It is final part of o before s and r."
Colour: ff1a29
EndChar

StartChar: Guid.b
Encoding: 190 -1 154
Width: 200
VWidth: 0
Flags: HW
LayerCount: 6
Back
SplineSet
728 787 m 29
 728 776 l 1053
740 787 m 29
 740 776 l 1053
713 787 m 29
 713 776 l 1053
713 781 m 29
 740 781 l 1053
EndSplineSet
EndChar

StartChar: a_o
Encoding: 150 -1 155
Width: 1588
VWidth: 0
Flags: HW
AnchorPoint: "Cursive 1" 1577.7 819 exit 0
AnchorPoint: "Cursive 1" 164.697 143 entry 0
LayerCount: 6
Back
Refer: 140 -1 S 1 0 0 1 54.6977 0 2
Refer: 137 -1 N 1 0 0 1 54.6977 0 2
Fore
SplineSet
171.697265625 136 m 5
 127.697265625 79 111.697265625 38 122.697265625 25 c 0
 137.697265625 7 226.697265625 27 358.697265625 91 c 0
 544.697265625 182 1028.69726562 532 1479.69726562 789 c 1
 1488.69726562 772 l 1
 1037.69726562 515 553.697265625 165 367.697265625 74 c 0
 98.697265625 -57 40.697265625 -2 156.697265625 148 c 1
 171.697265625 136 l 5
EndSplineSet
Comment: "It is final part of glyphs like a and m before o."
Colour: ff2b59
EndChar

StartChar: b_o
Encoding: 151 -1 156
Width: 991
VWidth: 0
Flags: HW
AnchorPoint: "Cursive 1" 940 819 exit 0
AnchorPoint: "Cursive 1" 108 781 entry 0
LayerCount: 6
Back
Refer: 154 -1 S 1 0 0 1 -891 0 2
Refer: 137 -1 N 1 0 0 1 -891 0 2
Fore
SplineSet
100 776 m 1
 116 787 l 1
 209 636 486 648 884 809 c 1
 891 790 l 1
 474 623 198 619 100 776 c 1
EndSplineSet
Comment: "It is final part of glyphs like b before o."
Colour: ff4259
EndChar

StartChar: o_o
Encoding: 152 -1 157
Width: 1189
VWidth: 0
Flags: HW
VStem: 99.9996 983.376
AnchorPoint: "Cursive 1" 1152.18 819 exit 0
AnchorPoint: "Cursive 1" 103.182 781 entry 0
LayerCount: 6
Back
Refer: 154 -1 S 1 0 0 1 -895.818 0 2
Refer: 137 -1 N 1 0 0 1 -524.818 0 2
Fore
SplineSet
100 769.20703125 m 1
 209.254882812 627.526367188 689.984375 634.639648438 1089.5625 784.755859375 c 1
 1083.37597656 803.296875 l 1
 690.051757812 653.830078125 214.181640625 651 115.204101562 780.741210938 c 1
 100 769.20703125 l 1
EndSplineSet
Comment: "It is final part of o before o."
Colour: ff3b3b
EndChar

StartChar: f_o
Encoding: 153 -1 158
Width: 1664
VWidth: 0
Flags: HW
HStem: 0 19<100 179.048>
AnchorPoint: "Cursive 1" 1635 819 exit 0
AnchorPoint: "Cursive 1" 101 9 entry 0
LayerCount: 6
Fore
SplineSet
100 0 m 1
 107 19 l 17
 625 19 1145 598 1556 799 c 1
 1564 781 l 17
 1137 570 638 0 100 0 c 1
EndSplineSet
Comment: "It final part of glyphs like s before o."
Colour: ff4040
EndChar

StartChar: q_a
Encoding: 154 -1 159
Width: 2641
VWidth: 0
Flags: HW
HStem: 811 16<2164.37 2201.81>
AnchorPoint: "Cursive 1" 2405.49 819 exit 0
AnchorPoint: "Cursive 1" 1419.49 812 entry 0
LayerCount: 6
Back
Refer: 160 -1 S 1 0 0 1 1493.49 0 2
Fore
SplineSet
1411.4921875 819 m 25
 195.4921875 -737 l 2
 1.4921875 -984 129.01171875 -1081.3359375 346.4921875 -782 c 0
 819.071289062 -131.55078125 1709.07714844 697.509765625 2541.4921875 785 c 5
 2539.4921875 804 l 1
 1702.28417969 716.005859375 809.7265625 -111.767578125 331.4921875 -770 c 0
 227.76953125 -912.762695312 143.088867188 -959.98828125 125.4921875 -947.817382812 c 0
 106.922851562 -934.973632812 125.747070312 -856.909179688 208.4921875 -751 c 10
 1426.4921875 807 l 1
 1411.4921875 819 l 25
EndSplineSet
Comment: "It is final part of 'q' before glyphs like 'a'."
Colour: ff2e3d
EndChar

StartChar: Guid.a_anchors
Encoding: 188 -1 160
Width: 200
VWidth: 0
Flags: HW
AnchorPoint: "Cursive 1" 1496 814 exit 0
LayerCount: 6
Back
SplineSet
242 272 m 25
 242 0 l 1049
1515 794 m 25
 1515 845 l 1049
1495 814 m 25
 1501 814 l 1049
  Named: "Cursive 1 Exit"
1498 817 m 25
 1498 811 l 1049
998 819 m 25
 1026 819 l 1049
  Named: "Cursive 1 entery"
1012 833 m 25
 1012 806 l 1049
EndSplineSet
EndChar

StartChar: q_p
Encoding: 155 -1 161
Width: 2304
VWidth: 0
Flags: HW
HStem: 811 16<2164.51 2201.95>
AnchorPoint: "Cursive 1" 2198.63 812 exit 0
AnchorPoint: "Cursive 1" 1419.63 812 entry 0
LayerCount: 6
Back
Refer: 143 -1 S 1 0 0 1 2033.63 0 2
Fore
SplineSet
1411.62988281 819 m 25
 195.629882812 -737 l 2
 1.6298828125 -984 128.561523438 -1082.14550781 346.629882812 -782 c 0
 1061.37597656 201.764648438 1569.953125 216.283203125 2204.62988281 804 c 1
 2192.62988281 819 l 5
 1556.62988281 233 1046.96386719 214.573242188 331.629882812 -770 c 0
 227.909179688 -912.758789062 143.2265625 -959.98828125 125.629882812 -947.817382812 c 0
 107.060546875 -934.973632812 125.884765625 -856.909179688 208.629882812 -751 c 10
 1426.62988281 807 l 1
 1411.62988281 819 l 25
EndSplineSet
Comment: "It is final part of 'q' before glyphs like 's' and 'p'."
Colour: ff1a1f
EndChar

StartChar: q_b
Encoding: 156 -1 162
Width: 2304
VWidth: 0
Flags: HW
AnchorPoint: "Cursive 1" 2200.63 812 exit 0
AnchorPoint: "Cursive 1" 1419.63 812 entry 0
LayerCount: 6
Fore
SplineSet
1411.62988281 819 m 25
 195.629882812 -737 l 2
 1.6298828125 -984 128.561523438 -1082.14550781 346.629882812 -782 c 0
 1061.37597656 201.764648438 1550.734375 235.577148438 2204.62988281 804 c 1
 2192.62988281 819 l 1
 1542.4921875 253.844726562 1046.96386719 214.573242188 331.629882812 -770 c 0
 227.909179688 -912.758789062 143.2265625 -959.98828125 125.629882812 -947.817382812 c 0
 107.060546875 -934.973632812 125.884765625 -856.909179688 208.629882812 -751 c 10
 1426.62988281 807 l 1
 1411.62988281 819 l 25
EndSplineSet
Comment: "It is final part of 'q' before glyphs like h."
Colour: ff4c40
EndChar

StartChar: Guid.General3
Encoding: 189 -1 163
Width: 200
VWidth: 0
Flags: HW
LayerCount: 6
Back
SplineSet
-3996 136 m 1
 8292 136 l 1029
  Named: "For final part of glyphs like u"
EndSplineSet
EndChar

StartChar: Guid.General4
Encoding: 191 -1 164
Width: 200
VWidth: 0
Flags: HW
LayerCount: 6
Back
SplineSet
1782 812 m 29
 1782 810 l 1053
1781 811 m 29
 1783 811 l 1053
1776 819 m 25
 1787 803 l 1049
EndSplineSet
EndChar

StartChar: c_e
Encoding: 118 -1 165
Width: 1551
VWidth: 0
Flags: HW
AnchorPoint: "Cursive 1" 1446.69 418 exit 0
AnchorPoint: "Cursive 1" 152.691 143 entry 0
LayerCount: 6
Back
Refer: 139 -1 S 1 0 0 1 42.6914 0 2
Refer: 141 -1 N 1 0 0 1 1023.69 0 2
Fore
SplineSet
159.69140625 136 m 1
 126.033203125 92.919921875 114.311523438 69.1474609375 121.48046875 53 c 0
 131.69140625 30 190.879882812 19 264.69140625 19 c 0
 464.69140625 19 985.455078125 130.716796875 1441.69140625 427 c 1
 1451.69140625 410 l 1
 999.69140625 116 475.69140625 0 264.69140625 0 c 0
 35.69140625 0 97.69140625 89 144.69140625 148 c 1
 159.69140625 136 l 1
EndSplineSet
Comment: "It is final part of 'c' and 'e' before 'e'."
Colour: ff292e
EndChar

StartChar: c_c
Encoding: 119 -1 166
Width: 2137
VWidth: 0
Flags: HW
HStem: 389.6 429.601G<273.629 371.742 1496.84 1886.74>
AnchorPoint: "Cursive 1" 159.742 143 entry 0
AnchorPoint: "Cursive 1" 2032.74 811 exit 0
LayerCount: 6
Back
Refer: 164 -1 S 1 0 0 1 350.742 0 2
Refer: 140 -1 S 1 0 0 1 49.742 0 2
Refer: 139 -1 S 1 0 0 1 49.742 0 2
Fore
SplineSet
166.7421875 136 m 1
 91.9736328125 39.8193359375 99.6435546875 7.25390625 219.7421875 22 c 0
 498.647460938 56.2451171875 1391.03027344 406.1640625 2026.7421875 819 c 5
 2037.7421875 803 l 5
 1397.0234375 386.912109375 506.275390625 37.9365234375 221.7421875 3 c 0
 96.5322265625 -12.3740234375 58.7412109375 28.365234375 151.7421875 148 c 1
 166.7421875 136 l 1
EndSplineSet
Comment: "It is fianl part of 'c' and 'e' before 'c'."
Colour: ff3d29
EndChar

StartChar: c_a
Encoding: 133 -1 167
Width: 1727
VWidth: 0
Flags: HW
HStem: 605.857 20G<788.689 1209.79>
AnchorPoint: "Cursive 1" 1922.44 819 exit 0
AnchorPoint: "Cursive 1" 172.438 143 entry 0
LayerCount: 6
Back
Refer: 160 -1 S 1 0 0 1 1010.44 0 2
Refer: 163 -1 N 1 0 0 1 62.438 0 2
Refer: 140 -1 N 1 0 0 1 62.438 0 2
Refer: 138 -1 N 1 0 0 1 62.438 0 2
Fore
SplineSet
179.438476562 136 m 1
 131.944335938 75.2099609375 113.439453125 37.724609375 122.438476562 27 c 0
 130.151367188 17.8076171875 162.786132812 18.240234375 214.438476562 28 c 0
 451.248046875 72.74609375 1125.94726562 311.854492188 1617.43847656 656 c 1
 1627.43847656 640 l 1
 1129.45117188 291.305664062 459.849609375 55.92578125 218.438476562 9 c 0
 74.2958984375 -19.0185546875 68.4931640625 25.1962890625 164.438476562 148 c 1
 179.438476562 136 l 1
EndSplineSet
Comment: "It is final part of glyphs like 'c' and 'e' before glyphs like 'a'."
Colour: ff2638
EndChar

StartChar: c_
Encoding: 161 -1 168
Width: 1768
VWidth: 0
Flags: HW
HStem: 5 814
AnchorPoint: "Cursive 1" 159.481 143 entry 0
AnchorPoint: "Cursive 1" 1663.48 811 exit 0
LayerCount: 6
Fore
SplineSet
166.481445312 136 m 5
 90.923828125 38.9423828125 103.2734375 3.509765625 219.481445312 24 c 4
 501.135742188 73.6630859375 1068.40429688 341.975585938 1657.48144531 819 c 5
 1668.48144531 803 l 5
 1074.76464844 322.217773438 507.8828125 55.5 221.481445312 5 c 4
 97.2470703125 -16.9052734375 58.48046875 28.365234375 151.481445312 148 c 5
 166.481445312 136 l 5
EndSplineSet
Substitution2: "* +- [e]" c_e
Substitution2: "* +- [a, d, g, q]" c_a
Substitution2: "* +- [o]" c_o
Substitution2: "* +- [m, n, v, x, y, z] - 1" a_m
Substitution2: "* +- [c]" c_c
Comment: "It is same as glyph with name 'a_bi'."
Colour: ff2424
EndChar

StartChar: P9012
Encoding: 162 -1 169
Width: 1558
VWidth: 0
Flags: HW
AnchorPoint: "Cursive 1" 170.031 143 entry 0
AnchorPoint: "Cursive 1" 1452.03 812 exit 0
LayerCount: 6
Back
Refer: 143 -1 S 1 0 0 1 1287.03 0 2
Refer: 163 -1 N 1 0 0 1 60.0311 0 2
Refer: 140 -1 N 1 0 0 1 60.0311 0 2
Fore
SplineSet
162.03125 148 m 1
 66.03125 24 79.03125 -26 218.03125 14 c 0
 501.03125 95 938.03125 367 1458.03125 804 c 1
 1446.03125 819 l 1
 927.03125 383 492.03125 114 211.03125 32 c 0
 89.03125 -4 105.03125 44 177.03125 136 c 1
 162.03125 148 l 1
EndSplineSet
Comment: "It is same as P9000, it because of preventing of confilict in parts of 'u' in patters like 'uu' and conflilct in parts of 'y'."
Colour: ff2929
EndChar

StartChar: c_o
Encoding: 163 -1 170
Width: 1798
VWidth: 0
Flags: HW
AnchorPoint: "Cursive 1" 1787.57 819 exit 0
AnchorPoint: "Cursive 1" 165.573 143 entry 0
LayerCount: 6
Fore
SplineSet
172.573242188 136 m 1
 130.708007812 82.4150390625 110.8828125 40.6875 122.573242188 27 c 0
 144.654296875 1.146484375 311.778320312 34.361328125 599.573242188 181 c 0
 976.557617188 373.083007812 1238.57324219 532 1689.57324219 789 c 1
 1698.57324219 772 l 1
 1247.57324219 515 982.065429688 354.303710938 608.573242188 164 c 0
 311.868164062 12.8212890625 -40.306640625 -105.274414062 157.573242188 148 c 1
 172.573242188 136 l 1
EndSplineSet
Comment: "It is final part of 'c' and 'e' before 'o'."
Colour: ff3824
EndChar

StartChar: f_b
Encoding: 164 -1 171
Width: 1805
VWidth: 0
Flags: HW
HStem: 0 19<100 179.048>
AnchorPoint: "Cursive 1" 1699 812 exit 0
AnchorPoint: "Cursive 1" 101 9 entry 0
LayerCount: 6
Fore
SplineSet
100 0 m 1
 100 19 l 17
 504 19 1398 560 1693 819 c 5
 1705 804 l 21
 1409 545 513 -1 100 0 c 1
EndSplineSet
Comment: "It is for final part of 's' and 'f' before glyphs like 'l'."
Colour: ff1a21
EndChar

StartChar: q_e
Encoding: 157 -1 172
Width: 2093
VWidth: 0
Flags: HW
HStem: 811 16<2164.51 2201.95>
AnchorPoint: "Cursive 1" 1988.63 418 exit 0
AnchorPoint: "Cursive 1" 1419.63 812 entry 0
LayerCount: 6
Back
Refer: 141 -1 S 1 0 0 1 1565.63 0 2
Refer: 139 -1 N 1 0 0 1 785.63 0 2
Fore
SplineSet
1411.62988281 819 m 25
 195.629882812 -737 l 2
 1.6298828125 -984 128.561523438 -1082.14550781 346.629882812 -782 c 0
 813.918945312 -138.831054688 1239.61328125 -61.162109375 1993.62988281 410 c 1
 1983.62988281 427 l 1
 1229.18945312 -44.4267578125 801.857421875 -122.786132812 331.629882812 -770 c 0
 227.909179688 -912.758789062 143.2265625 -959.98828125 125.629882812 -947.817382812 c 0
 107.060546875 -934.973632812 125.884765625 -856.909179688 208.629882812 -751 c 10
 1426.62988281 807 l 1
 1411.62988281 819 l 25
EndSplineSet
Comment: "It is for final part of 'q' before 'e'."
Colour: ff333d
EndChar

StartChar: q_c
Encoding: 158 -1 173
Width: 2572
VWidth: 0
Flags: HW
HStem: 811 16<2164.51 2201.95>
AnchorPoint: "Cursive 1" 2467.63 811 exit 0
AnchorPoint: "Cursive 1" 1419.63 812 entry 0
LayerCount: 6
Back
Refer: 164 -1 S 1 0 0 1 785.63 0 2
Fore
SplineSet
1411.62988281 819 m 25
 195.629882812 -737 l 2
 1.6298828125 -984 128.561523438 -1082.14550781 346.629882812 -782 c 0
 875.63671875 -53.884765625 1739.06835938 344.620117188 2472.62988281 803 c 1
 2461.62988281 819 l 1
 1728.22949219 360.720703125 863.575195312 -37.83984375 331.629882812 -770 c 0
 227.909179688 -912.758789062 143.2265625 -959.98828125 125.629882812 -947.817382812 c 0
 107.060546875 -934.973632812 125.884765625 -856.909179688 208.629882812 -751 c 10
 1426.62988281 807 l 1
 1411.62988281 819 l 25
EndSplineSet
Comment: "It is final part of 'q' before 'c'."
Colour: ff172e
EndChar

StartChar: q_m
Encoding: 159 -1 174
Width: 1623
VWidth: 0
Flags: HW
HStem: 811 16<2164.37 2201.81>
AnchorPoint: "Cursive 1" 1514.49 417 exit 0
AnchorPoint: "Cursive 1" 1419.49 812 entry 0
LayerCount: 6
Back
Refer: 143 -1 S 1 0 0 1 1352.49 -394 2
Refer: 139 -1 N 1 0 0 1 785.492 0 2
Fore
SplineSet
1411.4921875 819 m 25
 195.4921875 -737 l 2
 1.4921875 -984 129.01171875 -1081.3359375 346.4921875 -782 c 0
 698.576171875 -297.3984375 999.249023438 29.115234375 1523.4921875 410 c 1
 1511.4921875 425 l 1
 985.630859375 42.939453125 684.163085938 -284.58984375 331.4921875 -770 c 0
 227.771484375 -912.758789062 143.088867188 -959.98828125 125.4921875 -947.817382812 c 0
 106.922851562 -934.973632812 125.747070312 -856.909179688 208.4921875 -751 c 10
 1426.4921875 807 l 1
 1411.4921875 819 l 25
EndSplineSet
Comment: "It is final part of 'q' before glyphs like 'm'."
Colour: ff1a2e
EndChar

StartChar: q_o
Encoding: 160 -1 175
Width: 2465
VWidth: 0
Flags: HW
HStem: 811 16<2164.37 2201.81>
AnchorPoint: "Cursive 1" 2377.49 819 exit 0
AnchorPoint: "Cursive 1" 1419.49 812 entry 0
LayerCount: 6
Fore
SplineSet
1411.4921875 819 m 25
 195.4921875 -737 l 2
 1.4921875 -984 129.01171875 -1081.3359375 346.4921875 -782 c 0
 819.071289062 -131.55078125 1656.23339844 673.938476562 2365.4921875 799 c 1
 2362.4921875 818 l 1
 1648.97949219 692.188476562 809.7265625 -111.767578125 331.4921875 -770 c 0
 227.76953125 -912.762695312 143.088867188 -959.98828125 125.4921875 -947.817382812 c 0
 106.922851562 -934.973632812 125.747070312 -856.909179688 208.4921875 -751 c 10
 1426.4921875 807 l 1
 1411.4921875 819 l 25
EndSplineSet
Comment: "It is final part of 'q' before 'o'."
Colour: ff3038
EndChar

StartChar: g__m
Encoding: 165 -1 176
Width: 1081
VWidth: 0
Flags: HW
AnchorPoint: "Cursive 1" 517 143 exit 0
AnchorPoint: "Cursive 1" 106 418 entry 0
LayerCount: 6
Back
Refer: 140 -1 S 1 0 0 1 407 0 2
Refer: 139 -1 N 1 0 0 1 -372 0 2
Refer: 164 -1 N 1 0 0 1 -1576 -393 2
Fore
SplineSet
100 426 m 1
 312 550 534 668 762 774 c 0
 960 867 1052 812 920 643 c 2
 524 136 l 5
 522 136 l 25
 509 146 l 25
 509 148 l 1
 905 655 l 2
 1027 811 944 837 770 756 c 0
 543 650 322 533 111 410 c 1
 100 426 l 1
EndSplineSet
Comment: "It is default initial part of glyphs like 'm' after glyphs like 'j'."
Colour: 6badff
EndChar

StartChar: m__m
Encoding: 166 -1 177
Width: 1021
VWidth: 0
Flags: HW
AnchorPoint: "Cursive 1" 447 143 exit 0
AnchorPoint: "Cursive 1" 106 418 entry 0
LayerCount: 6
Back
Refer: 163 -1 S 1 0 0 1 -443 0 2
Refer: 140 -1 S 1 0 0 1 337 0 2
Refer: 143 -1 S 1 0 0 1 -59 -394 2
Refer: 139 -1 S 1 0 0 1 -443 0 2
Fore
SplineSet
452 136 m 25
 439 146 l 25
 439 148 l 1
 832 650 l 2
 966.549804688 817.370117188 901 834 700 756 c 0
 547 697 330 567 112 410 c 5
NamedP: "36 degree"
 110 410 l 25
 100 423 l 25
 100 425 l 1
 329 592 541 713 692 774 c 0
 903 859 997.219726562 826.58984375 850 643 c 2
 454 136 l 1
 452 136 l 25
EndSplineSet
Comment: "It is intial part of glyphs like 'm' after glyphs like 'm'."
Colour: 87baff
EndChar

StartChar: g_b
Encoding: 167 -1 178
Width: 3302
VWidth: 0
Flags: HW
AnchorPoint: "Cursive 1" 3196 812 exit 0
AnchorPoint: "Cursive 1" 128.002 -1620 entry 0
LayerCount: 6
Back
Refer: 143 -1 S 1 0 0 1 3031 0 2
Refer: 142 -1 S 1 0 0 1 1120 0 2
Fore
SplineSet
122.001953125 -1627 m 1
 12.974609375 -1556.19726562 320.571289062 -1068.61621094 792.001953125 -629 c 0
 1926.33105469 428.779296875 2586.98828125 294.80859375 3190.00195312 819 c 1
 3202.00195312 804 l 1
 2591.27246094 274.969726562 1934.21191406 410.005859375 805.001953125 -643 c 0
 316.45703125 -1098.57519531 50.134765625 -1557.53613281 134.001953125 -1612 c 1
 122.001953125 -1627 l 1
EndSplineSet
Layer: 5
SplineSet
122.001953125 -1627 m 4
 183.686523438 -1667.05859375 345.201171875 -1597.10839844 563.001953125 -1401 c 0
 724.516601562 -1255.57128906 914.047851562 -1039.16699219 1119.00195312 -746 c 2
 2204.00195312 807 l 1
 2189.00195312 819 l 1
 1103.00195312 -735 l 2
 890.043945312 -1039.45019531 702.874023438 -1248.94042969 550.001953125 -1386.58691406 c 0
 321.737304688 -1592.1171875 175.935546875 -1639.23242188 134.001953125 -1612 c 0
 50.134765625 -1557.53613281 316.45703125 -1098.57519531 805.001953125 -643 c 0
 1934.21191406 410.005859375 2591.27246094 274.969726562 3202.00195312 804 c 1
 3190.00195312 819 l 1
 2586.98828125 294.80859375 1926.33105469 428.779296875 792.001953125 -629 c 0
 320.571289062 -1068.61621094 12.974609375 -1556.19726562 122.001953125 -1627 c 4
EndSplineSet
Refer: 57 -1 N 1 0 0 1 782.002 0 2
Refer: 76 -1 N 1 0 0 1 782.002 0 2
Comment: "It is final part of glyphs like 'j' before glyphs like 'h'."
Colour: ff0a26
EndChar

StartChar: g_i
Encoding: 168 -1 179
Width: 3288
VWidth: 0
Flags: HW
AnchorPoint: "Cursive 1" 133.556 -1620 entry 0
AnchorPoint: "Cursive 1" 3189.56 814 exit 0
LayerCount: 6
Back
Refer: 140 -1 S 1 0 0 1 3079.56 671 2
Refer: 142 -1 N 1 0 0 1 787.555 0 2
Fore
SplineSet
127.555664062 -1627 m 1
 62.189453125 -1584.55078125 108.209960938 -1418.38964844 318.555664062 -1153 c 0
 731.618164062 -631.84375 1499.79296875 105.133789062 3181.55566406 819 c 1
 3188.55566406 801 l 1
 1517.83886719 91.8232421875 753.129882812 -637.522460938 333.555664062 -1165 c 0
 138.708007812 -1409.95605469 85.0419921875 -1576.59863281 139.555664062 -1612 c 1
 127.555664062 -1627 l 1
EndSplineSet
Layer: 5
SplineSet
3188.55566406 801 m 5
 3181.55566406 819 l 5
 1499.79296875 105.133789062 731.618164062 -631.84375 318.555664062 -1153 c 4
 108.209960938 -1418.38964844 62.189453125 -1584.55078125 127.555664062 -1627 c 4
 189.239257812 -1667.05859375 350.75390625 -1597.10839844 568.555664062 -1401 c 4
 730.0703125 -1255.57128906 919.600585938 -1039.16699219 1124.55566406 -746 c 6
 2209.55566406 807 l 5
 2194.55566406 819 l 5
 1108.55566406 -735 l 6
 895.596679688 -1039.45019531 708.427734375 -1248.94042969 555.555664062 -1386.58691406 c 4
 327.291015625 -1592.1171875 181.48828125 -1639.23242188 139.555664062 -1612 c 4
 85.0419921875 -1576.59863281 138.708007812 -1409.95605469 333.555664062 -1165 c 4
 753.129882812 -637.522460938 1517.83886719 91.8232421875 3188.55566406 801 c 5
EndSplineSet
Comment: "It is final part of glyphs like 'j' before glyphs like 'i'."
Colour: ff4559
EndChar

StartChar: i_c
Encoding: 169 -1 180
Width: 2031
VWidth: 0
Flags: HW
HStem: 389.6 429.601G<273.629 371.742 1496.84 1886.74>
AnchorPoint: "Cursive 1" 159.742 143 entry 0
AnchorPoint: "Cursive 1" 1926.74 811 exit 0
LayerCount: 6
Back
Refer: 164 -1 S 1 0 0 1 350.742 0 2
Refer: 140 -1 S 1 0 0 1 49.742 0 2
Refer: 139 -1 S 1 0 0 1 49.742 0 2
Fore
SplineSet
166.7421875 136 m 1
 91.9736328125 39.8193359375 99.6435546875 7.25390625 219.7421875 22 c 0
 498.647460938 56.2451171875 1285.03027344 406.1640625 1920.7421875 819 c 5
 1931.7421875 803 l 5
 1291.0234375 386.912109375 506.275390625 37.9365234375 221.7421875 3 c 0
 96.5322265625 -12.3740234375 58.7412109375 28.365234375 151.7421875 148 c 1
 166.7421875 136 l 1
EndSplineSet
Comment: "It is final part of glyphs like 'i' before 'c'."
Colour: ff3045
EndChar

StartChar: Guid.ruller_with_four_part
Encoding: 192 -1 182
Width: 200
VWidth: 0
Flags: HW
LayerCount: 6
Back
SplineSet
2296 816 m 29
 2296 824 l 1053
2102 815 m 29
 2102 822 l 1053
1908 816 m 29
 1908 823 l 1053
1714 816 m 29
 1714 823 l 1053
1520 823 m 29
 1520 816 l 1053
EndSplineSet
EndChar

StartChar: g_c
Encoding: 172 -1 183
Width: 3427
VWidth: 0
Flags: HW
AnchorPoint: "Cursive 1" 3322.63 811 exit 0
AnchorPoint: "Cursive 1" 127.633 -1620 entry 0
LayerCount: 6
Back
Refer: 164 -1 N 1 0 0 1 1640.63 0 2
Refer: 182 -1 N 1 0 0 1 1559.63 0 2
Refer: 142 -1 S 1 0 0 1 781.633 0 2
Fore
SplineSet
121.6328125 -1627 m 1
 12.60546875 -1556.19726562 327.955078125 -1061.38671875 791.6328125 -629 c 0
 1862.33496094 369.4453125 2432.11914062 266.293945312 3316.6328125 819 c 1
 3327.6328125 803 l 1
 2437.18261719 246.584960938 1872.40917969 352.717773438 804.6328125 -643 c 0
 316.088867188 -1098.57519531 49.765625 -1557.53613281 133.6328125 -1612 c 1
 121.6328125 -1627 l 1
EndSplineSet
Layer: 5
SplineSet
121.6328125 -1627 m 4
 183.317382812 -1667.05859375 344.83203125 -1597.10839844 562.6328125 -1401 c 4
 724.147460938 -1255.57128906 913.678710938 -1039.16699219 1118.6328125 -746 c 6
 2203.6328125 807 l 5
 2188.6328125 819 l 5
 1102.6328125 -735 l 6
 889.674804688 -1039.45019531 702.504882812 -1248.94042969 549.6328125 -1386.58691406 c 4
 321.368164062 -1592.1171875 175.56640625 -1639.23242188 133.6328125 -1612 c 4
 49.765625 -1557.53613281 316.088867188 -1098.57519531 804.6328125 -643 c 4
 1872.40917969 352.717773438 2437.18261719 246.584960938 3327.6328125 803 c 5
 3316.6328125 819 l 5
 2432.11914062 266.293945312 1862.33496094 369.4453125 791.6328125 -629 c 4
 327.955078125 -1061.38671875 12.60546875 -1556.19726562 121.6328125 -1627 c 4
EndSplineSet
Refer: 57 -1 N 1 0 0 1 781.633 0 2
Refer: 76 -1 N 1 0 0 1 781.633 0 2
Comment: "It is final part of glyphs like 'j' before 'c'."
Colour: ff3b42
EndChar

StartChar: Guid.A_H
Encoding: 193 -1 184
Width: 200
VWidth: 0
Flags: HW
LayerCount: 6
Back
SplineSet
2414 855 m 29
 2414 851 l 1053
2412 853 m 29
 2416 853 l 1053
2418 861 m 25
 2409 844 l 1049
EndSplineSet
EndChar

StartChar: A_
Encoding: 204 -1 185
Width: 886
VWidth: 0
Flags: HW
VStem: 100 19<654.774 743.021>
AnchorPoint: "Cursive 1" 398 853 entry 0
LayerCount: 6
Back
Refer: 182 -1 S 1 0 0 1 -255 0 2
Refer: 182 -1 S 1 0 0 1 -1031 0 2
Refer: 184 -1 S 1 0 0 1 -1916 0 2
Refer: 184 -1 N 1 0 0 1 -1031 0 2
Fore
SplineSet
100 693 m 3
 100 837 264 923 402 861 c 1
 393 844 l 1
 264 902 119 818 119 693 c 3
 119 501 546 463 769 819 c 9
 786 810 l 17
 552 436 100 478 100 693 c 3
EndSplineSet
Substitution2: "* +- [p, r, s]" A_p
Substitution2: "* +- [t]" A_b
Substitution2: "* +- [o]" A_o
Substitution2: "* +- [m, n, v, x, y, z] - 1" A_m
Substitution2: "* +- [i, j, u, w]" A_i
Substitution2: "* +- [e]" A_e
Substitution2: "* +- [c]" A_c
Substitution2: "* +- [b, f, h, k, l]" A_b
Substitution2: "* +- [a, d, g, q]" A_a
Comment: "It is default final part of 'A' and 'H'."
Colour: 70ff29
EndChar

StartChar: A_a
Encoding: 205 -1 186
Width: 1266
VWidth: 0
Flags: HW
AnchorPoint: "Cursive 1" 1459 819 exit 0
AnchorPoint: "Cursive 1" 398 853 entry 0
LayerCount: 6
Back
Refer: 160 -1 S 1 0 0 1 547 0 2
Refer: 182 -1 N 1 0 0 1 -255 0 2
Refer: 182 -1 N 1 0 0 1 -1031 0 2
Refer: 184 -1 N 1 0 0 1 -1916 0 2
Fore
SplineSet
402 861 m 1
 393 844 l 1
 263.788085938 901.529296875 119 818 119 693 c 3
 119 404.954101562 628.314453125 314.966796875 1155 657 c 1
 1166 641 l 1
 625.18359375 289.7890625 100 385.993164062 100 693 c 3
 100 837 263.790039062 922.53515625 402 861 c 1
EndSplineSet
Comment: "It is final part of 'A' and 'H' before glyphs like glyphs like 'a'."
Colour: ff334c
EndChar

StartChar: A_b
Encoding: 206 -1 187
Width: 1353
VWidth: 0
Flags: HW
AnchorPoint: "Cursive 1" 1247 812 exit 0
AnchorPoint: "Cursive 1" 398 853 entry 0
LayerCount: 6
Back
Refer: 143 -1 S 1 0 0 1 1082 0 2
Refer: 182 -1 N 1 0 0 1 -255 0 2
Refer: 182 -1 N 1 0 0 1 -1031 0 2
Refer: 184 -1 N 1 0 0 1 -1916 0 2
Fore
SplineSet
1253 804 m 1
 1241 819 l 1
 698 393 119 410.954101562 119 693 c 3
 119 818 263.788085938 901.529296875 393 844 c 1
 402 861 l 1
 263.790039062 922.53515625 100 837 100 693 c 3
 100 385.993164062 703 371 1253 804 c 1
EndSplineSet
Comment: "It is final part of 'A' and 'H' before glyphs like glyphs like 'l'."
Colour: ff1424
EndChar

StartChar: A_c
Encoding: 207 -1 188
Width: 1688
VWidth: 0
Flags: HW
AnchorPoint: "Cursive 1" 1583.89 811 exit 0
AnchorPoint: "Cursive 1" 324.893 853 entry 0
LayerCount: 6
Back
Refer: 164 -1 S 1 0 0 1 -98.1073 0 2
Refer: 182 -1 N 1 0 0 1 -328.107 0 2
Refer: 182 -1 N 1 0 0 1 -1104.11 0 2
Refer: 184 -1 N 1 0 0 1 -1989.11 0 2
Fore
SplineSet
335.892578125 653.922851562 m 3
 474.892578125 653.922851562 1215.03710938 653 1264.89257812 653 c 3
 1339.92089844 653 1521.89550781 784.009765625 1577.89257812 819 c 1
 1588.89257812 803 l 1
 1532.71777344 767.8984375 1347.94628906 634 1264.89257812 634 c 3
 1214.31054688 634 475.896484375 635.107421875 334.892578125 635.107421875 c 3
 -47.107421875 635.107421875 100.505859375 962.684570312 328.892578125 861 c 1
 319.892578125 844 l 1
 120.740234375 932.668945312 -13.1083984375 653.922851562 335.892578125 653.922851562 c 3
EndSplineSet
Comment: "It is final part of 'A' and 'H' before 'c'."
Colour: ff1a24
EndChar

StartChar: A_e
Encoding: 208 -1 189
Width: 1181
VWidth: 0
Flags: HW
AnchorPoint: "Cursive 1" 1076 418 exit 0
AnchorPoint: "Cursive 1" 398 853 entry 0
LayerCount: 6
Back
Refer: 141 -1 S 1 0 0 1 653 0 2
Refer: 182 -1 N 1 0 0 1 -255 0 2
Refer: 182 -1 N 1 0 0 1 -1031 0 2
Refer: 184 -1 N 1 0 0 1 -1916 0 2
Fore
SplineSet
1071 427 m 1
 1081 410 l 1
 589.322265625 126.129882812 100 385.993164062 100 693 c 3
 100 837 263.790039062 922.53515625 402 861 c 1
 393 844 l 1
 263.788085938 901.529296875 119 818 119 693 c 3
 119 400.954101562 592.087890625 150.5 1071 427 c 1
EndSplineSet
Comment: "It is final part of 'A' and 'H' before 'e'."
Colour: ff1a21
EndChar

StartChar: A_i
Encoding: 209 -1 190
Width: 1267
VWidth: 0
Flags: HW
AnchorPoint: "Cursive 1" 1160 814 exit 0
AnchorPoint: "Cursive 1" 398 853 entry 0
LayerCount: 6
Back
Refer: 140 -1 S 1 0 0 1 1050 671 2
Refer: 182 -1 N 1 0 0 1 -255 0 2
Refer: 182 -1 N 1 0 0 1 -1031 0 2
Refer: 184 -1 N 1 0 0 1 -1916 0 2
Fore
SplineSet
100 693 m 3
 100 837 264 923 402 861 c 1
 393 844 l 1
 264 902 119 818 119 693 c 3
 119 385.349609375 826.776367188 402.733398438 1152 819 c 9
 1167 807 l 17
 832.080078125 378.322265625 100 361.084960938 100 693 c 3
EndSplineSet
Comment: "It is final part of 'A' and 'H' before 'i'."
Colour: ff2e1f
EndChar

StartChar: A_m
Encoding: 210 -1 191
Width: 1218
VWidth: 0
Flags: HW
AnchorPoint: "Cursive 1" 1114 781 exit 0
AnchorPoint: "Cursive 1" 398 853 entry 0
LayerCount: 6
Back
Refer: 146 -1 S 1 0 0 1 736 0 2
Refer: 182 -1 N 1 0 0 1 -255 0 2
Refer: 182 -1 N 1 0 0 1 -1031 0 2
Refer: 184 -1 N 1 0 0 1 -1916 0 2
Fore
SplineSet
1111 789 m 1
 1118 772 l 1
 460.21484375 532.5859375 100 456.25 100 693 c 3
 100 804.543945312 263.790039062 922.53515625 402 861 c 1
 393 844 l 1
 263.788085938 901.529296875 119 785 119 693 c 3
 119 486.52734375 453.21484375 549.5859375 1111 789 c 1
EndSplineSet
Comment: "It is final part of 'A' and 'H' before glyphs like 'm'."
Colour: ff5970
EndChar

StartChar: A_p
Encoding: 211 -1 192
Width: 1276
VWidth: 0
Flags: HW
AnchorPoint: "Cursive 1" 1170 812 exit 0
AnchorPoint: "Cursive 1" 398 853 entry 0
LayerCount: 6
Back
Refer: 143 -1 N 1 0 0 1 1005 0 2
Refer: 182 -1 N 1 0 0 1 -255 0 2
Refer: 182 -1 N 1 0 0 1 -1031 0 2
Refer: 184 -1 N 1 0 0 1 -1916 0 2
Fore
SplineSet
1164 819 m 1
 1176 804 l 1
 804.427734375 469.434570312 100 382.993164062 100 693 c 3
 100 837 263.790039062 922.53515625 402 861 c 1
 393 844 l 1
 263.788085938 901.529296875 119 818 119 693 c 3
 119 411 799.116210938 490.45703125 1164 819 c 1
EndSplineSet
Comment: "It is final part of 'A' and 'H' before glyphs like 's'."
Colour: ff5763
EndChar

StartChar: A_o
Encoding: 212 -1 193
Width: 1463
VWidth: 0
Flags: HW
AnchorPoint: "Cursive 1" 1424 819 exit 0
AnchorPoint: "Cursive 1" 398 853 entry 0
LayerCount: 6
Back
Refer: 182 -1 S 1 0 0 1 -255 0 2
Refer: 182 -1 S 1 0 0 1 -1031 0 2
Refer: 184 -1 S 1 0 0 1 -1916 0 2
Fore
SplineSet
1355.19433594 803.296875 m 1
 1363.38085938 785.755859375 l 1
 863.7421875 552.770507812 100 378.974609375 100 693 c 3
 100 829.528320312 263.790039062 922.53515625 402 861 c 1
 393 844 l 1
 263.788085938 901.529296875 119 799.569335938 119 693 c 3
 119 410.700195312 854.005859375 569.588867188 1355.19433594 803.296875 c 1
EndSplineSet
Comment: "It is final part of 'A' and 'H' before 'o'."
Colour: ff363b
EndChar

StartChar: Guid.D
Encoding: 194 -1 194
Width: 200
VWidth: 0
Flags: HW
LayerCount: 6
Back
SplineSet
263 851 m 29
 263 845 l 1053
232 848 m 29
 294 848 l 1053
EndSplineSet
Colour: 616161
EndChar

StartChar: D__m
Encoding: 171 -1 195
Width: 772
VWidth: 0
Flags: HW
AnchorPoint: "Cursive 1" 177 143 exit 0
AnchorPoint: "Cursive 1" 106 418 entry 0
LayerCount: 6
Back
Refer: 164 -1 S 1 0 0 1 -1576 -393 2
Refer: 163 -1 N 1 0 0 1 -713 0 2
Refer: 140 -1 N 1 0 0 1 67 0 2
Refer: 139 -1 N 1 0 0 1 -713 0 2
Fore
SplineSet
182 136 m 25
 169 146 l 25
 169 148 l 1
 562 650 l 1
 699.40234375 820.91796875 673.001953125 835.75 539 738.392578125 c 0
 418.25390625 650.666015625 277.6328125 540.1875 111 410 c 5
NamedP: "38 degree"
 109 411 l 25
 100 424 l 25
 100 426 l 1
 266.120117188 555.787109375 411.4453125 672.20703125 528 756.889648438 c 0
 666.58203125 857.575195312 745.075195312 848.856445312 580 643 c 1
 184 136 l 1
 182 136 l 25
EndSplineSet
Comment: "It is initial part 'm' after 'D'."
Colour: 5e8fff
EndChar

StartChar: L_
Encoding: 222 -1 196
Width: 2532
VWidth: 0
Flags: HW
AnchorPoint: "Cursive 1" 100 114 entry 0
LayerCount: 6
Back
Refer: 229 -1 S 1 0 0 1 -546 0 2
Fore
SplineSet
100 124 m 3
 387.006835938 124 1259.71972656 -375.7578125 2419 819 c 9
 2432 805 l 17
 1260.296875 -398.2890625 387.140625 105 100 105 c 0
 100 124 l 3
EndSplineSet
Substitution2: "* +- [p, r, s]" L_p
Substitution2: "* +- [i, j, u, w]" L_i
Substitution2: "* +- [o]" L_o
Substitution2: "* +- [a, d, g, q]" L_a
Substitution2: "* +- [e]" L_e
Substitution2: "* +- [c]" L_c
Substitution2: "* +- [m, n, v, x, y, z] - 1" L_m
Substitution2: "* +- [t]" L_b
Substitution2: "* +- [b, f, h, k, l]" L_b
Comment: "It is default final part of 'L' and 'Q."
Colour: ff384a
EndChar

StartChar: L_a
Encoding: 223 -1 197
Width: 1973
VWidth: 0
Flags: HW
AnchorPoint: "Cursive 1" 2395 819 exit 0
AnchorPoint: "Cursive 1" 100 114 entry 0
LayerCount: 6
Back
Refer: 182 -1 N 1 0 0 1 -547 0 2
Refer: 229 -1 N 1 0 0 1 -546 0 2
Refer: 160 -1 S 1 0 0 1 1483 0 2
Refer: 182 -1 N 1 0 0 1 1005 0 2
Refer: 182 -1 N 1 0 0 1 229 0 2
Fore
SplineSet
100 124 m 3
 389.006835938 124 1145.99316406 -267.797851562 1860 469 c 9
 1873 455 l 17
 1148.64550781 -289.870117188 387.140625 105 100 105 c 0
 100 124 l 3
EndSplineSet
Comment: "It is final part of 'L' and 'Q' before 'a'."
Colour: ff384a
EndChar

StartChar: L_b
Encoding: 224 -1 198
Width: 2436
VWidth: 0
Flags: HW
AnchorPoint: "Cursive 1" 100 114 entry 0
AnchorPoint: "Cursive 1" 2330 812 exit 0
LayerCount: 6
Back
Refer: 182 -1 N 1 0 0 1 -547 0 2
Refer: 229 -1 N 1 0 0 1 -546 0 2
Refer: 143 -1 S 1 0 0 1 2165 0 2
Refer: 182 -1 N 1 0 0 1 1005 0 2
Refer: 182 -1 N 1 0 0 1 229 0 2
Fore
SplineSet
100 124 m 3
 395.006835938 124 947.41015625 -377.651367188 2324 819 c 9
 2336 804 l 17
 951.862304688 -399.211914062 387.140625 105 100 105 c 0
 100 124 l 3
EndSplineSet
Comment: "It is final part of 'L' and 'Q' before 'l'."
Colour: ff3030
EndChar

StartChar: L_c
Encoding: 225 -1 199
Width: 2701
VWidth: 0
Flags: HW
AnchorPoint: "Cursive 1" 100 114 entry 0
AnchorPoint: "Cursive 1" 2596 811 exit 0
LayerCount: 6
Back
Refer: 182 -1 N 1 0 0 1 -547 0 2
Refer: 229 -1 N 1 0 0 1 -546 0 2
Refer: 164 -1 N 1 0 0 1 2293 0 2
Refer: 164 -1 S 1 0 0 1 914 0 2
Refer: 182 -1 N 1 0 0 1 1005 0 2
Refer: 182 -1 N 1 0 0 1 229 0 2
Fore
SplineSet
100 124 m 3
 392 124 711.767578125 -377.56640625 2590 819 c 9
 2601 803 l 17
 714.333007812 -398.939453125 387.140625 105 100 105 c 0
 100 124 l 3
EndSplineSet
Comment: "It is final part of 'L' and 'Q' before 'c'."
Colour: ff3030
EndChar

StartChar: L_e
Encoding: 226 -1 200
Width: 2221
VWidth: 0
Flags: HW
AnchorPoint: "Cursive 1" 100 114 entry 0
AnchorPoint: "Cursive 1" 2116 418 exit 0
LayerCount: 6
Back
Refer: 182 -1 N 1 0 0 1 -547 0 2
Refer: 229 -1 N 1 0 0 1 -546 0 2
Refer: 141 -1 S 1 0 0 1 1693 0 2
Refer: 182 -1 N 1 0 0 1 1005 0 2
Refer: 182 -1 N 1 0 0 1 229 0 2
Refer: 182 -1 N 1 0 0 1 1005 0 2
Refer: 182 -1 N 1 0 0 1 229 0 2
Fore
SplineSet
100 124 m 3
 393.006835938 124 1020.41015625 -254.4765625 2111 427 c 9
 2121 410 l 17
 1025.32226562 -274.655273438 387.140625 105 100 105 c 0
 100 124 l 3
EndSplineSet
Comment: "It is final part of 'L' and 'Q' before 'e'."
Colour: ff3030
EndChar

StartChar: L_i
Encoding: 227 -1 201
Width: 2433
VWidth: 0
Flags: HW
AnchorPoint: "Cursive 1" 100 114 entry 0
AnchorPoint: "Cursive 1" 2328 814 exit 0
LayerCount: 6
Back
Refer: 182 -1 N 1 0 0 1 -547 0 2
Refer: 229 -1 N 1 0 0 1 -546 0 2
Refer: 140 -1 S 1 0 0 1 2218 671 2
Refer: 182 -1 N 1 0 0 1 1005 0 2
Refer: 182 -1 N 1 0 0 1 229 2 2
Fore
SplineSet
100 124 m 3
 392.006835938 124 1164.08886719 -377.981445312 2320 819 c 9
 2333 805 l 17
 1169.44726562 -399.89453125 387.140625 105 100 105 c 0
 100 124 l 3
EndSplineSet
Comment: "It is final part of 'L' and 'Q' before glyphs like 'i'."
Colour: ff3030
EndChar

StartChar: L_m
Encoding: 228 -1 202
Width: 1836
VWidth: 0
Flags: HW
AnchorPoint: "Cursive 1" 100 114 entry 0
AnchorPoint: "Cursive 1" 1731 418 exit 0
LayerCount: 6
Back
Refer: 182 -1 N 1 0 0 1 -547 0 2
Refer: 229 -1 N 1 0 0 1 -546 0 2
Refer: 139 -1 N 1 0 0 1 -546 0 2
Refer: 164 -1 S 1 0 0 1 49 -393 2
Refer: 182 -1 N 1 0 0 1 1005 0 2
Refer: 182 -1 N 1 0 0 1 229 0 2
Fore
SplineSet
100 124 m 3
 390.006835938 124 855.036132812 -253.690429688 1725 426 c 9
 1736 410 l 17
 859.692382812 -274.646484375 387.140625 105 100 105 c 0
 100 124 l 3
EndSplineSet
Comment: "It is final part of 'L' and 'Q' before glyphs like 'm'."
Colour: ff3030
EndChar

StartChar: L_p
Encoding: 229 -1 203
Width: 2244
VWidth: 0
Flags: HW
AnchorPoint: "Cursive 1" 100 114 entry 0
AnchorPoint: "Cursive 1" 2138 812 exit 0
LayerCount: 6
Back
Refer: 182 -1 N 1 0 0 1 -547 0 2
Refer: 229 -1 N 1 0 0 1 -546 0 2
Refer: 143 -1 S 1 0 0 1 1973 0 2
Refer: 182 -1 N 1 0 0 1 1005 0 2
Refer: 182 -1 N 1 0 0 1 229 0 2
Fore
SplineSet
100 124 m 3
 391.006835938 124 754.655273438 -378.307617188 2132 819 c 9
 2144 804 l 17
 759.108398438 -399.868164062 388.140625 105 100 105 c 0
 100 124 l 3
EndSplineSet
Comment: "It is final part of 'L' and 'Q' before glyphs like 'r'."
Colour: ff3030
EndChar

StartChar: L_o
Encoding: 230 -1 204
Width: 2172
VWidth: 0
Flags: HW
AnchorPoint: "Cursive 1" 100 114 entry 0
AnchorPoint: "Cursive 1" 2336 819 exit 0
LayerCount: 6
Back
Refer: 182 -1 S 1 0 0 1 -547 0 2
Refer: 229 -1 N 1 0 0 1 -546 0 2
Refer: 182 -1 N 1 0 0 1 1005 0 2
Refer: 182 -1 N 1 0 0 1 229 0 2
Fore
SplineSet
100 124 m 3
 388.001953125 124 1117.4296875 -325.625 2059 646 c 9
 2072 632 l 17
 1117.01660156 -348.016601562 387.140625 105 100 105 c 0
 100 124 l 3
EndSplineSet
Comment: "It is final part of 'L' and 'Q' before 'o'."
Colour: ff3030
EndChar

StartChar: K_
Encoding: 231 -1 205
Width: 1467
VWidth: 0
Flags: HW
HStem: 0 19<-1371.26 -1204.2> 1196 19<240.821 462.831> 1358 19<117.971 202.611> 2090 20G<793.871 1246.37> 2439 19<331.061 612.681>
VStem: 115.371 19<239.587 273 273 302.214>
AnchorPoint: "Cursive 1" 125.371 276 entry 0
LayerCount: 6
Back
Refer: 182 -1 N 1 0 0 1 -264.629 0 2
Refer: 182 -1 N 1 0 0 1 -1040.63 0 2
Refer: 218 -1 S 1 0 0 1 -1815.63 0 2
Fore
SplineSet
115.37109375 277 m 1
 20.4951171875 -133.952148438 356.02734375 -170.618164062 1367.37109375 740 c 257
 1355.37109375 755 l 257
 768.375 226.465820312 410.37109375 19 237.37109375 19 c 3
 125.37109375 19 97.8828125 114.950195312 134.37109375 273 c 1
 115.37109375 277 l 1
EndSplineSet
Substitution2: "* +- [t]" K_b
Substitution2: "* +- [o]" K_o
Substitution2: "* +- [p, r, s]" K_p
Substitution2: "* +- [i, j, u, w]" K_i
Substitution2: "* +- [m, n, v, x, y, z] - 1" K_m
Substitution2: "* +- [e]" K_e
Substitution2: "* +- [c]" K_c
Substitution2: "* +- [b, f, h, k, l]" K_b
Substitution2: "* +- [a, d, g, q]" K_a
Comment: "It is default final part of 'K', 'R' and 'X'."
Colour: ff3d30
EndChar

StartChar: K_a
Encoding: 232 -1 206
Width: 1232
VWidth: 0
Flags: HW
AnchorPoint: "Cursive 1" 1573.05 819 exit 0
AnchorPoint: "Cursive 1" 124.046 276 entry 0
LayerCount: 6
Back
Refer: 218 -1 N 1 0 0 1 -1816.95 0 2
Refer: 160 -1 S 1 0 0 1 661.046 0 2
Refer: 182 -1 N 1 0 0 1 -265.954 0 2
Refer: 182 -1 N 1 0 0 1 -1041.95 0 2
Fore
SplineSet
114.045898438 277 m 1
 19.169921875 -133.952148438 410.036132812 -119.100585938 1132.04589844 531 c 257
 1120.04589844 546 l 257
 533.049804688 17.4658203125 293.27734375 19 254.045898438 19 c 3
 131.045898438 19 96.5576171875 114.950195312 133.045898438 273 c 1
 114.045898438 277 l 1
EndSplineSet
Comment: "It is final part of 'K', 'R' and 'X' before glyphs like 'a'."
Colour: ff3d30
EndChar

StartChar: K_b
Encoding: 233 -1 207
Width: 1615
VWidth: 0
Flags: HW
AnchorPoint: "Cursive 1" 124.536 276 entry 0
AnchorPoint: "Cursive 1" 1509.54 812 exit 0
LayerCount: 6
Back
Refer: 218 -1 N 1 0 0 1 -1816.46 0 2
Refer: 143 -1 S 1 0 0 1 1344.54 0 2
Refer: 182 -1 N 1 0 0 1 -265.463 0 2
Refer: 182 -1 N 1 0 0 1 -1041.46 0 2
Fore
SplineSet
114.536132812 277 m 1
 19.66015625 -133.952148438 378.189453125 -184.680664062 1515.53613281 804 c 257
 1503.53613281 819 l 257
 885.74609375 281.962890625 457.5390625 19 249.536132812 19 c 3
 127.536132812 19 97.0478515625 114.950195312 133.536132812 273 c 1
 114.536132812 277 l 1
EndSplineSet
Comment: "It is final part of 'K', 'R' and 'X' before  glyphs like 'l'."
Colour: ff3d30
EndChar

StartChar: K_c
Encoding: 234 -1 208
Width: 1857
VWidth: 0
Flags: HW
AnchorPoint: "Cursive 1" 130.627 276 entry 0
AnchorPoint: "Cursive 1" 1752.63 811 exit 0
LayerCount: 6
Back
Refer: 218 -1 N 1 0 0 1 -1810.37 0 2
Refer: 164 -1 S 1 0 0 1 70.627 0 2
Refer: 182 -1 N 1 0 0 1 -259.373 0 2
Refer: 182 -1 N 1 0 0 1 -1035.37 0 2
Fore
SplineSet
120.626953125 277 m 1
 25.7509765625 -133.952148438 207.233398438 -184.709960938 1757.62695312 803 c 257
 1746.62695312 819 l 257
 809.333984375 221.877929688 392.626953125 19 219.626953125 19 c 3
 103.626953125 19 104.388671875 120.362304688 139.626953125 273 c 1
 120.626953125 277 l 1
EndSplineSet
Comment: "It is final part of 'K', 'R' and 'X' before 'c'."
Colour: ff594c
EndChar

StartChar: K_e
Encoding: 235 -1 209
Width: 1368
VWidth: 0
Flags: HW
AnchorPoint: "Cursive 1" 122.345 276 entry 0
AnchorPoint: "Cursive 1" 1263.34 418 exit 0
LayerCount: 6
Back
Refer: 218 -1 N 1 0 0 1 -1818.66 0 2
Refer: 141 -1 S 1 0 0 1 840.344 0 2
Refer: 182 -1 N 1 0 0 1 -267.656 0 2
Refer: 182 -1 N 1 0 0 1 -1043.66 0 2
Fore
SplineSet
112.344726562 277 m 1
 17.46875 -133.952148438 475.848632812 -85.2060546875 1268.34472656 410 c 257
 1258.34472656 427 l 257
 606.7109375 19.814453125 355.352539062 20 300.344726562 20 c 3
 135.33203125 20 95.869140625 119.340820312 131.344726562 273 c 1
 112.344726562 277 l 1
EndSplineSet
Comment: "It is final part of 'K', 'R' and 'X' before 'e'."
Colour: ff6645
EndChar

StartChar: K_i
Encoding: 236 -1 210
Width: 1583
VWidth: 0
Flags: HW
AnchorPoint: "Cursive 1" 124.44 276 entry 0
AnchorPoint: "Cursive 1" 1478.44 814 exit 0
LayerCount: 6
Back
Refer: 218 -1 S 1 0 0 1 -1816.56 0 2
Refer: 140 -1 N 1 0 0 1 1608.44 671 2
Refer: 182 -1 N 1 0 0 1 -25.5591 0 2
Refer: 182 -1 N 1 0 0 1 -801.559 0 2
Fore
SplineSet
114.440429688 277 m 1
 19.0615234375 -136.1328125 387.302734375 -181.967773438 1483.44042969 805 c 257
 1470.44042969 819 l 257
 785.71484375 202.469726562 415.440429688 19 249.440429688 19 c 3
 129.440429688 19 96.9521484375 114.950195312 133.440429688 273 c 1
 114.440429688 277 l 1
EndSplineSet
Comment: "It is final part of 'K', 'R' and 'X' before glyphs like 'i'."
Colour: ff4c45
EndChar

StartChar: K_m
Encoding: 237 -1 211
Width: 993
VWidth: 0
Flags: HW
AnchorPoint: "Cursive 1" 130.396 276 entry 0
AnchorPoint: "Cursive 1" 888.396 418 exit 0
LayerCount: 6
Back
Refer: 218 -1 N 1 0 0 1 -1810.6 0 2
Refer: 164 -1 S 1 0 0 1 -793.604 -393 2
Refer: 139 -1 N 1 0 0 1 -1810.6 0 2
Refer: 182 -1 N 1 0 0 1 519.396 0 2
Refer: 182 -1 N 1 0 0 1 -256.604 0 2
Refer: 182 -1 N 1 0 0 1 -259.604 0 2
Refer: 182 -1 N 1 0 0 1 -1035.6 0 2
Fore
SplineSet
120.396484375 277 m 1
 26.1416015625 -131.260742188 254.319335938 -89.3017578125 893.396484375 410 c 257
 882.396484375 426 l 257
 465.297851562 100.125976562 285.540039062 19 198.396484375 19 c 3
 111.344726562 19 102.908203125 114.950195312 139.396484375 273 c 1
 120.396484375 277 l 1
EndSplineSet
Comment: "It is final part of 'K', 'R' and 'X' before glyphs like 'm'."
Colour: ff3d30
EndChar

StartChar: K_p
Encoding: 238 -1 212
Width: 1403
VWidth: 0
Flags: HW
AnchorPoint: "Cursive 1" 134.62 276 entry 0
AnchorPoint: "Cursive 1" 1297.62 812 exit 0
LayerCount: 6
Back
Refer: 218 -1 N 1 0 0 1 -1806.38 0 2
Refer: 143 -1 S 1 0 0 1 1132.62 0 2
Refer: 182 -1 N 1 0 0 1 -255.38 0 2
Refer: 182 -1 N 1 0 0 1 -1031.38 0 2
Fore
SplineSet
124.620117188 277 m 1
 29.744140625 -133.952148438 166.272460938 -184.680664062 1303.62011719 804 c 257
 1291.62011719 819 l 257
 695.490234375 300.791992188 317.634765625 19 178.620117188 19 c 3
 105.553710938 19 107.131835938 114.950195312 143.620117188 273 c 1
 124.620117188 277 l 1
EndSplineSet
Comment: "It is final part of 'K', 'R' and 'X' before glyphs like 'r'."
Colour: ff3d30
EndChar

StartChar: K_o
Encoding: 239 -1 213
Width: 1393
VWidth: 0
Flags: HW
AnchorPoint: "Cursive 1" 124.602 276 entry 0
AnchorPoint: "Cursive 1" 1522.6 819 exit 0
LayerCount: 6
Back
Refer: 218 -1 S 1 0 0 1 -1816.4 0 2
Refer: 182 -1 N 1 0 0 1 -265.398 0 2
Refer: 182 -1 N 1 0 0 1 -1041.4 0 2
Fore
SplineSet
114.6015625 277 m 1
 19.7255859375 -133.952148438 384.282226562 -151.755859375 1293.6015625 667 c 257
 1281.6015625 682 l 257
 694.60546875 153.465820312 384.6015625 19 246.6015625 19 c 3
 129.6015625 19 97.11328125 114.950195312 133.6015625 273 c 1
 114.6015625 277 l 1
EndSplineSet
Comment: "It is final part of 'K', 'R' and 'X' before 'o'."
Colour: ff3d30
EndChar

StartChar: XW
Encoding: 240 -1 214
Width: 2255
VWidth: 0
Flags: HW
HStem: 0 19<264.584 288.274>
VStem: 135.584 15<13 22.7938>
AnchorPoint: "Cursive 1" 267.584 9 exit 0
LayerCount: 6
Back
Refer: 215 -1 S 1 0 0 1 -642.416 0 2
Fore
SplineSet
135.583984375 0 m 1
 32.990234375 482.666992188 144.385742188 1176.9296875 572.583984375 1724.99902344 c 0
 1665.99023438 3124.49511719 2782.58398438 2296 1739.45703125 1023 c 0
 1401.50488281 610.57421875 779.583984375 138 269.583984375 0 c 1
 264.583984375 19 l 1
 768.583984375 162 1362.51464844 653.216796875 1699.58398438 1056 c 0
 2730.58398438 2288 1656.06640625 3080.87402344 586.583984375 1711.99902344 c 0
 168.475585938 1176.84472656 54.0146484375 477.139648438 154.583984375 4 c 5
 135.583984375 0 l 1
EndSplineSet
EndChar

StartChar: Guid.General5
Encoding: 195 -1 215
Width: 200
VWidth: 0
Flags: HW
LayerCount: 6
Back
SplineSet
1010 10 m 29
 1010 8 l 1053
1009 9 m 5
 1011 9 l 1037
1012 0 m 29
 1007 19 l 1053
EndSplineSet
Comment: "It is for glyphs like 'W'."
Colour: c4c4c4
EndChar

StartChar: c_p
Encoding: 173 -1 216
Width: 1769
VWidth: 0
Flags: HW
AnchorPoint: "Cursive 1" 159.481 143 entry 0
AnchorPoint: "Cursive 1" 1663.48 812 exit 0
LayerCount: 6
Back
Refer: 182 -1 N 1 0 0 1 -726.519 1 2
Refer: 143 -1 S 1 0 0 1 1498.48 0 2
Refer: 182 -1 N 1 0 0 1 49.481 0 2
Refer: 140 -1 N 1 0 0 1 49.481 0 2
Fore
SplineSet
166.481445312 136 m 1
 90.923828125 38.9423828125 103.2734375 3.509765625 219.481445312 24 c 0
 501.135742188 73.6630859375 1094.17675781 311.798828125 1657.48144531 819 c 1
 1669.48144531 804 l 5
 1101.74023438 292.8046875 507.8828125 55.5 221.481445312 5 c 0
 97.2470703125 -16.9052734375 58.48046875 28.365234375 151.481445312 148 c 1
 166.481445312 136 l 1
EndSplineSet
Comment: "It is final part of 'e' and 'c' before glyphs like 's'."
Colour: ff5252
EndChar

StartChar: AMN
Encoding: 241 -1 217
Width: 3746
VWidth: 0
Flags: HW
AnchorPoint: "Cursive 1" 3641.11 2450 exit 0
LayerCount: 6
Back
Refer: 164 -1 N 1 0 0 1 1959.11 1639 2
Fore
SplineSet
3635.11132812 2458 m 1
 3120.28417969 2110.74414062 2621.01464844 1573.88964844 2419.11132812 1352 c 0
 2102.29785156 1003.82617188 1819.85449219 619.125976562 1459.11132812 317 c 0
 722.684570312 -299.765625 119.111328125 175.990234375 119.111328125 641 c 3
 119.111328125 1313 1114.90625 1508.47363281 1615.11132812 820 c 1
 1631.11132812 831 l 1
 1117.88671875 1537.39355469 100 1329.06054688 100 642 c 3
 100 175 676.609375 -318.598632812 1506.11132812 268 c 0
 1889.45800781 539.090820312 2136.29394531 973.840820312 2441.11132812 1332 c 0
 2635.546875 1560.46191406 3159.43359375 2113.73144531 3646.11132812 2442 c 1
 3635.11132812 2458 l 1
EndSplineSet
EndChar

StartChar: Guid.K_R_X
Encoding: 196 -1 218
Width: 200
VWidth: 0
Flags: HW
LayerCount: 6
Back
SplineSet
2043 276 m 29
 2039 276 l 1053
2041 278 m 29
 2041 274 l 1053
2031 277 m 25
 2050 273 l 1049
2100 273 m 25
 1942 273 l 1049
EndSplineSet
EndChar

StartChar: M_
Encoding: 242 -1 219
Width: 1361
VWidth: 0
Flags: HW
HStem: 2438 20G<491.79 726.79 1098.79 1644.79>
AnchorPoint: "Cursive 1" 179.79 279 entry 0
LayerCount: 6
Back
Refer: 228 -1 S 1 0 0 1 -2704.21 0 2
Fore
SplineSet
187.790039062 273 m 1
 132.712890625 143.24609375 102.774414062 42.9775390625 128.790039062 22.578125 c 0
 179.154296875 -16.912109375 479.055664062 169.797851562 1249.79003906 819 c 1
 1261.79003906 804 l 1
 78.3125 -189.055664062 -5.4140625 -132.75390625 169.790039062 280 c 1
 187.790039062 273 l 1
EndSplineSet
Substitution2: "* +- [t]" M_b
Substitution2: "* +- [o]" M_o
Substitution2: "* +- [p, r, s]" M_p
Substitution2: "* +- [m, n, v, x, y, z] - 1" M_m
Substitution2: "* +- [i, j, u, w]" M_i
Substitution2: "* +- [e]" M_e
Substitution2: "* +- [c]" M_c
Substitution2: "* +- [b, f, h, k, l]" M_b
Substitution2: "* +- [a, d, g, q]" M_a
Comment: "It is default final part of 'M'."
Colour: ff4057
EndChar

StartChar: M_a
Encoding: 243 -1 220
Width: 1520
VWidth: 0
Flags: HW
AnchorPoint: "Cursive 1" 1730.75 819 exit 0
AnchorPoint: "Cursive 1" 159.754 279 entry 0
LayerCount: 6
Back
Refer: 160 -1 S 1 0 0 1 818.753 0 2
Refer: 182 -1 N 1 0 0 1 -394.247 0 2
Refer: 182 -1 N 1 0 0 1 -1170.25 0 2
Refer: 228 -1 N 1 0 0 1 -2724.25 0 2
Fore
SplineSet
167.75390625 273 m 1
 109.840820312 136.567382812 104.518554688 53.5390625 148.75390625 31 c 0
 254.375 -22.8173828125 609.8125 126.51171875 1409.75390625 646 c 1
 1420.75390625 630 l 1
 230.907226562 -142.6953125 -25.4501953125 -132.75390625 149.75390625 280 c 1
 167.75390625 273 l 1
EndSplineSet
Comment: "It is final part of 'M' before glyphs like 'a'."
Colour: ff4057
EndChar

StartChar: M_b
Encoding: 244 -1 221
Width: 1647
VWidth: 0
Flags: HW
AnchorPoint: "Cursive 1" 147.011 279 entry 0
AnchorPoint: "Cursive 1" 1541.01 812 exit 0
LayerCount: 6
Back
Refer: 143 -1 S 1 0 0 1 1376.01 0 2
Refer: 182 -1 N 1 0 0 1 -406.989 0 2
Refer: 182 -1 N 1 0 0 1 -1182.99 0 2
Refer: 228 -1 N 1 0 0 1 -2736.99 0 2
Fore
SplineSet
155.010742188 273 m 1
 87.5205078125 114.001953125 114.006835938 19 242.010742188 19 c 3
 443.033203125 19 875.095703125 245.344726562 1535.01074219 819 c 1
 1547.01074219 804 l 1
 404.848632812 -188.866210938 -38.1923828125 -132.75390625 137.010742188 280 c 1
 155.010742188 273 l 1
EndSplineSet
Comment: "It is final part of 'M' before glyphs like 'h'."
Colour: ff4057
EndChar

StartChar: M_c
Encoding: 245 -1 222
Width: 1897
VWidth: 0
Flags: HW
AnchorPoint: "Cursive 1" 155.806 279 entry 0
AnchorPoint: "Cursive 1" 1792.81 811 exit 0
LayerCount: 6
Back
Refer: 164 -1 S 1 0 0 1 110.806 0 2
Refer: 182 -1 N 1 0 0 1 -398.194 0 2
Refer: 182 -1 N 1 0 0 1 -1174.19 0 2
Refer: 228 -1 N 1 0 0 1 -2728.19 0 2
Fore
SplineSet
163.805664062 273 m 1
 88.8056640625 97 117.405273438 19 219.805664062 19 c 3
 417.805664062 19 906.3984375 257.6171875 1786.80566406 819 c 1
 1797.80566406 803 l 1
 501.805664062 -23 -74.1943359375 -238 145.805664062 280 c 1
 163.805664062 273 l 1
EndSplineSet
Comment: "It is final part of 'M' before 'c'."
Colour: ff4057
EndChar

StartChar: M_e
Encoding: 246 -1 223
Width: 1406
VWidth: 0
Flags: HW
AnchorPoint: "Cursive 1" 142.645 279 entry 0
AnchorPoint: "Cursive 1" 1301.64 418 exit 0
LayerCount: 6
Back
Refer: 141 -1 S 1 0 0 1 878.645 0 2
Refer: 182 -1 N 1 0 0 1 -411.355 0 2
Refer: 182 -1 N 1 0 0 1 -1187.36 0 2
Refer: 228 -1 N 1 0 0 1 -2741.36 0 2
Fore
SplineSet
150.64453125 273 m 1
 74.8427734375 94.421875 140.64453125 19 295.64453125 19 c 3
 502.64453125 19 861.064453125 154.819335938 1296.64453125 427 c 1
 1306.64453125 410 l 1
 508.934570312 -88.46484375 -42.7939453125 -133.306640625 132.64453125 280 c 1
 150.64453125 273 l 1
EndSplineSet
Comment: "It is final part 'M' before 'e'."
Colour: ff5466
EndChar

StartChar: M_i
Encoding: 247 -1 224
Width: 1626
VWidth: 0
Flags: HW
AnchorPoint: "Cursive 1" 150.631 279 entry 0
AnchorPoint: "Cursive 1" 1522.63 814 exit 0
LayerCount: 6
Back
Refer: 140 -1 S 1 0 0 1 1412.63 671 2
Refer: 182 -1 N 1 0 0 1 -403.369 0 2
Refer: 182 -1 N 1 0 0 1 -1179.37 0 2
Refer: 228 -1 N 1 0 0 1 -2733.37 0 2
Fore
SplineSet
158.630859375 273 m 1
 87.7265625 105.958984375 111.630859375 19 224.630859375 19 c 3
 418.630859375 19 871.1640625 276.997070312 1514.63085938 819 c 1
 1526.63085938 804 l 1
 343.153320312 -189.055664062 -34.4169921875 -132.385742188 140.630859375 280 c 1
 158.630859375 273 l 1
EndSplineSet
Comment: "It is final part of 'M' before glyphs like 'i'."
Colour: ff5466
EndChar

StartChar: M_m
Encoding: 248 -1 225
Width: 1037
VWidth: 0
Flags: HW
AnchorPoint: "Cursive 1" 156.837 279 entry 0
AnchorPoint: "Cursive 1" 932.837 418 exit 0
LayerCount: 6
Back
Refer: 164 -1 S 1 0 0 1 -749.163 -393 2
Refer: 139 -1 N 1 0 0 1 -2727.16 0 2
Refer: 182 -1 N 1 0 0 1 -397.163 0 2
Refer: 182 -1 N 1 0 0 1 -1173.16 0 2
Refer: 228 -1 N 1 0 0 1 -2727.16 0 2
Fore
SplineSet
164.836914062 273 m 1
 -56.9404296875 -249.473632812 591.731445312 163.581054688 926.836914062 426 c 1
 937.836914062 410 l 1
 300.544921875 -87.9072265625 -28.6015625 -133.306640625 146.836914062 280 c 1
 164.836914062 273 l 1
EndSplineSet
Comment: "It is final part of 'M' before glyphs like 'm'."
Colour: ff5466
EndChar

StartChar: M_p
Encoding: 249 -1 226
Width: 1450
VWidth: 0
Flags: HW
AnchorPoint: "Cursive 1" 162.459 279 entry 0
AnchorPoint: "Cursive 1" 1344.46 812 exit 0
LayerCount: 6
Back
Refer: 143 -1 S 1 0 0 1 1179.46 0 2
Refer: 182 -1 N 1 0 0 1 -391.541 0 2
Refer: 182 -1 N 1 0 0 1 -1167.54 0 2
Refer: 228 -1 N 1 0 0 1 -2721.54 0 2
Fore
SplineSet
170.458984375 273 m 1
 101.810546875 111.275390625 99.458984375 19 178.458984375 19 c 3
 336.471679688 19 748.473632812 306.133789062 1338.45898438 819 c 1
 1350.45898438 804 l 1
 207.828125 -189.274414062 -22.7451171875 -132.75390625 152.458984375 280 c 1
 170.458984375 273 l 1
EndSplineSet
Comment: "It is final part of 'M' before glyphs like 's'."
Colour: ff5466
EndChar

StartChar: M_o
Encoding: 250 -1 227
Width: 1470
VWidth: 0
Flags: HW
AnchorPoint: "Cursive 1" 153.04 279 entry 0
AnchorPoint: "Cursive 1" 1543.04 819 exit 0
LayerCount: 6
Back
Refer: 182 -1 S 1 0 0 1 -400.96 0 2
Refer: 182 -1 S 1 0 0 1 -1176.96 0 2
Refer: 228 -1 N 1 0 0 1 -2730.96 0 2
Fore
SplineSet
161.040039062 273 m 1
 88.25390625 101.525390625 113.040039062 19 213.040039062 19 c 3
 396.46484375 19 812.84765625 271.905273438 1358.04003906 731 c 1
 1370.04003906 716 l 1
 317.928710938 -166.826171875 -32.1630859375 -132.75390625 143.040039062 280 c 1
 161.040039062 273 l 1
EndSplineSet
Comment: "It final part of 'M' before 'o'."
Colour: ff5466
EndChar

StartChar: Guid.M
Encoding: 197 -1 228
Width: 200
VWidth: 0
Flags: HW
LayerCount: 6
Back
SplineSet
2986 279 m 25
 2982 279 l 1049
2984 281 m 25
 2984 277 l 1049
2974 280 m 29
 2992 273 l 1049
3043 273 m 25
 2885 273 l 1049
EndSplineSet
EndChar

StartChar: Guid.L_Q
Encoding: 198 -1 229
Width: 200
VWidth: 0
Flags: HW
LayerCount: 6
Back
SplineSet
746 116 m 29
 746 112 l 1053
744 114 m 29
 748 114 l 1053
746 124 m 29
 746 105 l 1053
EndSplineSet
Colour: ababab
EndChar

StartChar: UY
Encoding: 251 -1 230
Width: 2645
VWidth: 0
Flags: HW
AnchorPoint: "Cursive 1" 2539.98 1633 exit 0
LayerCount: 6
Back
Refer: 140 -1 S 1 0 0 1 2429.98 1490 2
Fore
SplineSet
468.975585938 0 m 5
 170.25 382.350585938 27.9326171875 1001.69628906 135.975585938 1510 c 0
 470.87890625 3085.59570312 2481.97558594 2553 1355.97558594 967 c 0
 1143.97558594 668 624.975585938 19 865.975585938 19 c 3
 1003.92773438 19 1392.07421875 372.010742188 2531.97558594 1638 c 1
 2545.97558594 1625 l 1
 1401.9765625 354.459960938 1015.97558594 0 865.975585938 0 c 3
 593.975585938 0 1069.80175781 674.866210938 1297.97558594 983 c 0
 2447.97558594 2536 483.432617188 3051.265625 154.975585938 1506 c 0
 48.4189453125 1004.68945312 186.995117188 392.397460938 484.975585938 11 c 5
 468.975585938 0 l 5
EndSplineSet
EndChar

